<svg width="1098" height="776" viewBox="0 0 1098 776" fill="none" xmlns="http://www.w3.org/2000/svg">
<path d="M1097.4 665.3V776H1094.4L814.8 678L912.6 627.3C912.6 627.3 916.5 622.5 911.8 620.4C911.4 620.2 910.9 620 910.3 619.9L911.1 616.9L1097.4 665.3Z" fill="#9F8675"/>
<path d="M1097.4 661.8V665.3L911.1 616.9L448.6 496.7C452.1 496.4 455.5 496.1 459 495.9L1097.4 661.8Z" fill="#977C6B"/>
<path d="M1097.4 597.5V661.8L458.9 495.9C488.6 493.7 517.8 493 544.8 494C623 496.6 697.3 512.2 774.2 521.4C792.1 523.1 810.1 525.2 828.1 527.7L950.1 550.2C958.9 552.3 967.6 554.4 976.2 556.7C1007.8 564.1 1055.1 579.1 1097.4 597.5Z" fill="#9F8675"/>
<path d="M1097.4 577.2V597.5C1055.1 579.1 1007.8 564.1 976.3 556.6C967.7 554.4 958.9 552.2 950.2 550.1L1097.4 577.2Z" fill="#9F8675"/>
<path d="M1097.4 573.8V577.2L950.2 550.1C930 545.4 909.6 541.1 889 537.3L889.3 535.5L1097.4 573.8Z" fill="#704E3F"/>
<path d="M1097.4 552V573.8L889.3 535.5L472.6 458.8C473 458.6 473.4 458.3 473.7 458C478.9 458 482.5 458.2 484.1 455.9C492.4 456.3 494.7 452.8 495.2 445.8L1097.4 552Z" fill="#9F8675"/>
<path d="M494.9 379.1V188.5V165.5C508.8 153.2 535.8 146.1 549.2 142.1C576.1 133.4 603.1 126.5 630.9 121.2C698.7 109 771.7 114.3 838.6 129C904.7 142.9 973.3 167.2 1021.1 216.8C1041.1 237.7 1052.2 257.7 1065.4 284.6C1077.1 308.5 1082.1 329.6 1090 353C1093 361.3 1095.5 371 1097.5 381.2V551.9L495.2 445.8L494.9 445.7V379.1V379.1Z" fill="#AFC8CE"/>
<path d="M1097.4 14.2002V381.2C1095.4 371 1093 361.3 1089.9 353C1082.1 329.5 1077.1 308.5 1065.3 284.6C1052.1 257.7 1041 237.7 1021 216.8C973.2 167.3 904.6 142.9 838.5 129C771.6 114.2 698.6 109 630.8 121.2C603 126.4 576 133.4 549.1 142.1C535.7 146.1 508.7 153.3 494.8 165.5V136.6L1097.4 14.2002Z" fill="#9BC0C4"/>
<path d="M1097.4 9.7998V14.1998L494.9 136.6L491.6 137.3V132.5L492.5 132.7L1097.4 9.7998Z" fill="#C1B498"/>
<path d="M1097.4 0V9.8L492.5 132.7L491.6 132.5V131.6V122.3L818.6 49.6L1041.9 0H1097.4Z" fill="#E2DCCF"/>
<path d="M1094.4 776H1082L809.8 680.6L814.9 678L1094.4 776Z" fill="#977C6B"/>
<path d="M1082 776H844.5L721.6 726.3L809.8 680.6L1082 776Z" fill="#9F8675"/>
<path d="M1041.9 0L818.6 49.6C753.1 57.4 686.4 61 616.8 60.8C473.7 60.3 342.8 32.8 152.3 0H1041.9V0Z" fill="#F4F1ED"/>
<path d="M950.2 550.1L828.2 527.6C848.5 530.4 868.8 533.6 889 537.3C909.6 541.1 930 545.4 950.2 550.1Z" fill="#D19436"/>
<path d="M911.9 620.4C916.6 622.5 912.7 627.3 912.7 627.3L814.9 678L809.9 680.6L721.6 726.3L716.8 728.8L634.1 771.7C634.1 769.3 633.5 767.1 633.1 764.9L708.9 725.6L713.7 723.1L801.5 677.6L806.5 675L911.9 620.4Z" fill="#B7D7D3"/>
<path d="M911.9 620.4L806.4 675.1L801.4 677.7L713.6 723.2L708.8 725.7L633 765H632.9L197.4 573.1C198 572.8 198.9 572.4 199.9 572.2C200 572.2 200 572.2 200.1 572.1L282 553.2L288.9 551.6L381 530.3L388.5 528.6L467.8 510.3L910.4 619.9C911 620 911.5 620.2 911.9 620.4Z" fill="#CFE4E2"/>
<path d="M911.2 616.9L910.4 619.9L467.8 510.3L388.5 528.6L339.5 511.4C373.8 505 411.3 499.8 448.5 496.7L911.2 616.9Z" fill="#9F8675"/>
<path d="M889.3 535.5L889 537.3C868.8 533.6 848.5 530.4 828.2 527.6L462.6 460.3C462.9 459.8 463.1 459.2 463.3 458.5C467.8 459.9 470.7 459.8 472.7 458.7L889.3 535.5Z" fill="#704E3F"/>
<path d="M844.5 776H833.6L716.8 728.8L721.6 726.3L844.5 776Z" fill="#977C6B"/>
<path d="M833.6 776H609.7L195.9 583.2L197.5 579.8L633.6 771.9L634.1 771.7L716.8 728.8L833.6 776Z" fill="#9F8675"/>
<path d="M462.6 460.3L828.2 527.7C810.2 525.2 792.2 523.2 774.3 521.4C697.4 512.3 623.1 496.6 544.9 494C517.9 492.9 488.7 493.7 459 495.9L346.1 466.6L429.6 454.3L439.9 452.8L449.9 451.3V454.6V458V458.2C453.7 461.7 456.5 463.2 458.5 463.3C460.4 463.3 461.7 462.2 462.6 460.3Z" fill="#805948"/>
<path d="M818.6 49.6L491.6 122.3L0 13V0H152.3C342.7 32.8 473.6 60.3 616.8 60.8C686.4 61 753.1 57.4 818.6 49.6Z" fill="#E5E1DB"/>
<path d="M633.1 764.9C633.5 767.1 634.1 769.3 634.1 771.7L633.7 771.9L197.5 579.8C197.5 579.8 192.8 575.5 197.4 573L633.1 764.9Z" fill="#8FC5BF"/>
<path d="M609.7 776H603.1L151.2 565.5C152.2 564.9 153.2 564.4 154.3 563.9L196 583.3L609.7 776Z" fill="#977C6B"/>
<path d="M603.1 776H436.4L107.4 596.9C120.5 584.5 135.2 574.2 151.2 565.5L603.1 776Z" fill="#9F8675"/>
<path d="M494.9 445.7L495.2 445.8C494.7 452.8 492.4 456.3 484.1 455.9C484.8 455 485.1 453.6 485.1 451.7H485.5V446.1V373C488.9 374.7 492 376.8 494.8 379.1V445.7H494.9Z" fill="#BBC8D4"/>
<path d="M494.9 188.5V379.1C492.1 376.8 488.9 374.8 485.6 373V182.3C488.8 184.2 491.9 186.3 494.9 188.5Z" fill="#CBD9E6"/>
<path d="M494.9 165.5V188.5C491.9 186.3 488.8 184.2 485.6 182.3V177.7V136L491.7 137.3L495 136.6V165.5H494.9Z" fill="#BBC8D4"/>
<path d="M491.6 132.5V137.3L485.5 136L475.8 133.9L465 131.6L458.4 130.2L449.8 128.4L111.4 56.7002L94.1 53.0002L83.3 50.8002L58.3 45.5002L38.2 41.2002L28.9 39.2002L10.4 35.3002L0 33.1002V28.7002L491.6 132.5Z" fill="#A99A75"/>
<path d="M491.6 131.6V132.5L0 28.7V13L491.6 122.3V131.6Z" fill="#D9D1C0"/>
<path d="M485.5 446V451.6H485.1C485.1 453.6 484.8 454.9 484.1 455.8C482.5 458.1 479 457.9 473.7 457.9C476 455.6 476.3 451.4 476.6 447.3L475.7 447.4V368.7C479.1 369.9 482.4 371.2 485.5 372.9V446Z" fill="#9FB4C5"/>
<path d="M485.5 182.3V373C482.4 371.4 479.1 370 475.7 368.8V176.9C479.1 178.6 482.4 180.4 485.5 182.3Z" fill="#B0C7DA"/>
<path d="M485.5 177.7V182.3C482.3 180.4 479.1 178.6 475.7 176.9V133.9L485.5 136V177.7Z" fill="#9FB4C5"/>
<path d="M475.8 447.5L476.7 447.4C476.5 451.5 476.2 455.8 473.8 458C473.5 458.3 473.1 458.6 472.7 458.8C470.8 459.9 467.8 460 463.3 458.6C463.4 458.1 463.6 457.6 463.7 457.1C464.3 454.6 464.6 451.8 465 449.7H465.1V449.1V365.9C468.7 366.7 472.3 367.7 475.9 368.9V447.5H475.8Z" fill="#BBC8D4"/>
<path d="M475.8 176.9V368.8C472.2 367.6 468.6 366.6 465 365.8V171.8C468.6 173.4 472.2 175.1 475.8 176.9Z" fill="#CBD9E6"/>
<path d="M475.8 133.9V176.9C472.3 175.1 468.6 173.4 465 171.8V131.6L475.8 133.9Z" fill="#BBC8D4"/>
<path d="M465 449.1V449.7H464.9C464.5 451.8 464.2 454.6 463.6 457.1C463.5 457.6 463.4 458.1 463.2 458.6C463 459.2 462.8 459.8 462.5 460.4C461.6 462.2 460.3 463.4 458.4 463.3V459.7V456.3V450.1V364.7C460.6 365 462.7 365.4 464.9 365.9V449.1H465Z" fill="#9FB4C5"/>
<path d="M465 171.8V365.8C462.8 365.3 460.6 364.9 458.5 364.6V306.3V169C460.6 169.9 462.8 170.8 465 171.8Z" fill="#B0C7DA"/>
<path d="M465 131.6V171.8C462.8 170.8 460.6 169.9 458.5 169V130.2L465 131.6Z" fill="#9FB4C5"/>
<path d="M346 466.6L458.9 495.9C455.5 496.1 452 496.4 448.5 496.7L337.3 467.8L346 466.6Z" fill="#704E3F"/>
<path d="M458.4 459.6V463.2C456.4 463.1 453.6 461.7 449.8 458.1V457.9V454.5V451.2V373.8V363.7C452.5 363.9 455.4 364.1 458.4 364.6V450V456.2V459.6Z" fill="#BBC8D4"/>
<path d="M458.4 306.3V364.6C455.4 364.2 452.5 363.9 449.8 363.7V290.2C452.5 295.5 454.6 300.9 456.2 306.3H458.4V306.3Z" fill="#CBD9E6"/>
<path d="M458.4 169V306.3H456.2C454.6 301 452.5 295.6 449.8 290.2V261.9V165.5C452.7 166.7 455.5 167.8 458.4 169Z" fill="#CBD9E6"/>
<path d="M458.4 130.2V169C455.5 167.8 452.6 166.7 449.8 165.6V150.7V128.4L458.4 130.2Z" fill="#BBC8D4"/>
<path d="M449.8 373.9V451.3L439.8 452.8L429.5 454.3L346 466.6L337.4 467.9L251.2 480.6L242.5 481.9L149.8 495.5L141.8 496.7L111.2 501.2C111.2 498.8 111.2 496.6 111.2 495C111.2 481.1 111.2 467.2 111.2 454.1C111.2 419.3 111.2 384.6 111.2 349.8C111.2 342.4 111.2 335 111.2 327.6C111.2 270.3 111.2 213.1 111.2 155.8C112.4 155.6 113.5 155.3 114.7 155.2H118V312.9V372.9V386.2V394.1L445.2 374.4L448.7 374.2H449.8V373.9Z" fill="#CBD2CB"/>
<path d="M449.8 363.7V373.9H448.6L445.1 373.4V281.8C446.8 284.6 448.4 287.4 449.8 290.2V363.7Z" fill="#CBD2CB"/>
<path d="M449.8 165.6V262V290.3C448.4 287.4 446.8 284.6 445.1 281.9V260.1V178.6V177.9L117.9 131.6V140.3V155.1H114.6C113.4 155.3 112.3 155.5 111.1 155.7C111.1 140.9 111.1 126 111.1 111.2C133.6 93.8002 191.5 97.9002 209.7 98.4002C254.7 99.7002 296.4 110.1 340.7 117.3C361.6 120.6 381.1 125.8 401.3 131C414.9 134.7 438.3 140.7 449.7 150.8V165.6H449.8Z" fill="#CBD2CB"/>
<path d="M449.8 128.4V150.7C438.5 140.7 415 134.6 401.4 130.9C381.2 125.7 361.6 120.5 340.8 117.2C296.5 110 254.8 99.6002 209.8 98.3002C191.6 97.8002 133.7 93.7002 111.2 111.1C111.2 93.3002 111.2 75.5002 111.2 57.7002L111.4 56.7002L449.8 128.4Z" fill="#BCC6BD"/>
<path d="M448.6 373.9L445.1 374.1V373.4L448.6 373.9Z" fill="#C0C9C0"/>
<path d="M337.4 467.8L448.6 496.7C411.4 499.8 373.8 505 339.6 511.4L251.3 480.5L337.4 467.8Z" fill="#805948"/>
<path d="M445.1 373.4V374.1L117.9 393.9V386L418 369.5L445.1 373.4Z" fill="#829B89"/>
<path d="M445.1 281.8V373.4L418 369.5L419.3 253.1C429.1 260 438.1 270.4 445.1 281.8Z" fill="#C5CCC4"/>
<path d="M445.1 260V281.8C438.1 270.4 429 260 419.3 253.1L419.4 244.7L420.1 182L431.5 180.1L445.1 178.5V260Z" fill="#ADB7AD"/>
<path d="M445.1 177.9V178.6L431.5 180.2L445.1 177.9Z" fill="#C0C9C0"/>
<path d="M445.1 177.9L431.5 180.2L417.9 181.8L117.9 140.3V131.6L445.1 177.9Z" fill="#829B89"/>
<path d="M436.4 776H428.6L104.6 599.6C105.5 598.7 106.5 597.7 107.4 596.9L436.4 776Z" fill="#977C6B"/>
<path d="M431.5 180.2L420.1 182.1L417.9 181.8L431.5 180.2Z" fill="#C0C9C0"/>
<path d="M428.5 776H273.7L72.8999 648.3C77.7999 633.1 86.7999 618.5 98.3999 605.9C100.4 603.7 102.5 601.6 104.6 599.5L428.5 776Z" fill="#9F8675"/>
<path d="M420.1 182.1L419.4 244.8C418.4 244.3 417.4 243.7 416.4 243.2L416 243.5C415.2 242.3 414.3 241.2 413.4 240.1L414.1 187.8L331.5 176.4V210.7C329.2 210.5 326.8 210.3 324.5 210.2V175.3L229.7 162.2L229.1 223.7C226.8 224.5 224.6 225.3 222.4 226.1V161.2L122.5 147.4V304.3C120.8 307.1 119.3 310 117.9 312.9V155.1V140.3L417.9 181.7L420.1 182.1Z" fill="#C7BCA2"/>
<path d="M419.3 253.1L418 369.5L117.9 386V372.7V312.7C119.2 309.8 120.8 307 122.5 304.1V378.8L222.4 373.2V226C224.6 225.2 226.9 224.4 229.1 223.6L227.6 373L324.4 367.6V210.1C326.7 210.2 329.1 210.4 331.4 210.6V367.2L411.8 362.7L413.3 239.9C414.3 241 415.2 242.1 415.9 243.3L416.3 243C417.3 243.5 418.3 244.1 419.3 244.6V253.1Z" fill="#D9D1C0"/>
<path d="M414.1 187.7L413.4 240C401.5 226.5 377.4 219.8 361.7 215.8C351.8 213.4 341.7 211.7 331.5 210.8V176.4L414.1 187.7Z" fill="#DEF0E7"/>
<path d="M413.4 240L411.9 362.8L331.5 367.3V210.7C341.7 211.6 351.8 213.3 361.7 215.7C377.4 219.8 401.5 226.5 413.4 240Z" fill="#EDF7EF"/>
<path d="M388.5 528.6L381 530.3L331.5 512.9C334.2 512.4 336.8 511.9 339.5 511.4L388.5 528.6Z" fill="#977C6B"/>
<path d="M381.1 530.4L289 551.7L240.9 532.3C270.4 524.8 301.2 519 331.6 513.1L381.1 530.4Z" fill="#9F8675"/>
<path d="M251.2 480.5L339.5 511.4C336.8 511.9 334.1 512.4 331.5 512.9L242.5 481.7L251.2 480.5Z" fill="#704E3F"/>
<path d="M242.5 481.8L331.5 513C301.1 518.9 270.3 524.7 240.8 532.2L149.7 495.4L242.5 481.8Z" fill="#805948"/>
<path d="M324.5 210.1V367.7L227.7 373.1L229.2 223.7C259.6 213.2 292.5 208.2 324.5 210.1Z" fill="#EDF7EF"/>
<path d="M324.5 175.3V210.2C292.5 208.3 259.6 213.3 229.1 223.7L229.7 162.2L324.5 175.3Z" fill="#DEF0E7"/>
<path d="M288.9 551.6L282 553.2L234.2 533.9C236.4 533.3 238.6 532.7 240.8 532.2L288.9 551.6Z" fill="#977C6B"/>
<path d="M282 553.2L200.1 572.1C200 572.1 200 572.1 199.9 572.2C198.8 572.4 198 572.8 197.4 573.1C192.9 575.6 197.5 579.9 197.5 579.9L195.9 583.3L154.2 563.9C178.6 551 205.8 541.6 234.2 534L282 553.2Z" fill="#9F8675"/>
<path d="M273.7 776H267.4L71.8999 651.6C72.1999 650.5 72.5999 649.4 72.8999 648.2L273.7 776Z" fill="#977C6B"/>
<path d="M267.5 776H168.1C133.9 755.6 103.4 734.8 93.8002 726.4C69.3002 704.7 64.6002 677.5 71.8002 651.7L267.5 776Z" fill="#9F8675"/>
<path d="M240.8 532.2C238.6 532.8 236.4 533.3 234.2 533.9L141.8 496.6L149.8 495.4L240.8 532.2Z" fill="#704E3F"/>
<path d="M141.8 496.6L234.2 533.9C205.8 541.5 178.6 550.9 154.2 563.8L82.5 530.4C82.5 530.1 82.5 529.8 82.5 529.4C85.6 531.3 97 530.6 94.5 523.9H93.8C93.8 523.7 93.8 523.5 93.8 523.2C98.7 523.1 108.8 522.4 111.2 518.5C111.2 516.1 111.2 507.7 111.2 501L141.8 496.6Z" fill="#805948"/>
<path d="M222.4 226V373.3L122.5 378.9V304.2C126.8 297 131.9 290.3 135.5 285.4C152.4 263.2 175.3 246.9 200.7 235.2C207.8 231.9 215 228.8 222.4 226Z" fill="#EDF7EF"/>
<path d="M222.4 161.1V226C215 228.8 207.7 231.8 200.7 235.2C175.3 246.9 152.5 263.2 135.5 285.4C131.9 290.3 126.8 297 122.5 304.2V147.3L222.4 161.1Z" fill="#DEF0E7"/>
<path d="M168.1 776H113.5L0 690.8V605.9L71.9 651.6C64.6 677.4 69.4 704.7 93.9 726.3C103.4 734.8 133.9 755.5 168.1 776Z" fill="#805948"/>
<path d="M154.2 563.8C153.2 564.3 152.2 564.9 151.1 565.4L82.2002 533.3C82.2002 533.2 82.2002 533.1 82.2002 533H82.4002C82.4002 532.4 82.4002 531.4 82.4002 530.3L154.2 563.8Z" fill="#704E3F"/>
<path d="M82.3001 533.4L151.2 565.5C135.2 574.2 120.5 584.5 107.4 596.9L20.1001 549.4C23.5001 549.8 26.9001 549.6 28.7001 548.4L28.6001 547.9C28.6001 547.6 28.6001 545.9 28.6001 543.5C31.9001 543.9 35.0001 544.5 38.1001 542H38.2001C38.2001 541 38.2001 539.5 38.2001 537.8C42.1001 540.6 58.0001 544.2 58.0001 538.1H58.2001C58.2001 537.3 58.2001 536.3 58.2001 535.3C63.0001 540.8 81.7001 539.6 82.3001 533.4Z" fill="#805948"/>
<path d="M113.5 776H107.7L0 695.2V690.8L113.5 776Z" fill="#704E3F"/>
<path d="M111.4 56.7004L111.2 57.7004C111.2 75.5004 111.2 93.3004 111.2 111.1C111.2 125.9 111.2 140.8 111.2 155.6C105.4 156.9 99.4998 159 93.7998 161.8C93.7998 126 93.7998 90.1004 93.7998 54.3004L94.0998 52.9004L111.4 56.7004Z" fill="#9FB4C5"/>
<path d="M111.2 501.1C111.2 507.8 111.2 516.2 111.2 518.6C108.8 522.6 98.6998 523.2 93.7998 523.3C93.7998 518.2 93.7998 509.1 93.7998 503.6C93.7998 503 93.7998 502.4 93.7998 501.9C93.7998 487.7 93.7998 473.4 93.7998 460.1C93.7998 424.5 93.7998 388.9 93.7998 353.3C93.7998 289.5 93.7998 225.7 93.7998 161.9C99.4998 159.1 105.3 156.9 111.2 155.7C111.2 213 111.2 270.3 111.2 327.5C111.2 334.9 111.2 342.3 111.2 349.7C111.2 384.5 111.2 419.2 111.2 454C111.2 467 111.2 480.9 111.2 494.9C111.2 496.5 111.2 498.7 111.2 501.1Z" fill="#B0C7DA"/>
<path d="M107.7 776H0V695.2L107.7 776Z" fill="#805948"/>
<path d="M20.0999 549.3L107.4 596.8C106.4 597.7 105.5 598.6 104.6 599.5L10.3999 548.2C10.3999 547.5 10.3999 546.6 10.3999 545.7C11.6999 547.4 15.8999 548.8 20.0999 549.3Z" fill="#704E3F"/>
<path d="M10.4 548.3L104.6 599.6C102.5 601.6 100.4 603.8 98.4 606C86.8 618.5 77.8 633.1 72.9 648.4L0 602.1V551H0.599998C0.599998 553.4 7.5 555.1 10.4 551.7C10.4 550.8 10.4 549.7 10.4 548.3Z" fill="#805948"/>
<path d="M94.5 524C97.1 530.6 85.7 531.4 82.5 529.5C82.5 523.6 82.5 513.6 82.5 508.9C82.5 507.7 82.5 506.6 82.5 505.4C82.5 492.1 82.5 478.9 82.5 466.4C82.5 430.3 82.5 394.1 82.5 358C82.5 294.8 82.5 231.7 82.5 168.5C86.2 166.1 90 163.9 93.8 162C93.8 225.8 93.8 289.6 93.8 353.4C93.8 389 93.8 424.6 93.8 460.2C93.8 473.5 93.8 487.8 93.8 502C93.8 502.5 93.8 503.1 93.8 503.7C93.8 509.1 93.8 518.3 93.8 523.4C93.8 523.6 93.8 523.9 93.8 524.1H94.5V524Z" fill="#CBD9E6"/>
<path d="M94.1 53.0002L93.8 54.4002C93.8 90.2002 93.8 126.1 93.8 161.9C90 163.8 86.2 166 82.5 168.4C82.5 130.4 82.5 92.4002 82.5 54.4002L83.3 50.7002L94.1 53.0002Z" fill="#BBC8D4"/>
<path d="M83.3002 50.8004L82.5002 54.5004C82.5002 92.5004 82.5002 130.5 82.5002 168.5C73.9002 174.1 65.7002 181 58.2002 188.4C58.2002 141 58.2002 93.6004 58.2002 46.2004L58.4002 45.4004L83.3002 50.8004Z" fill="#9FB4C5"/>
<path d="M82.5002 530.4C82.5002 531.5 82.5002 532.4 82.5002 533.1H82.3002C82.3002 533.2 82.3002 533.3 82.3002 533.4C81.6002 539.6 62.9002 540.8 58.2002 535.2C58.2002 529 58.2002 519.5 58.2002 514.8C58.2002 512.8 58.2002 510.8 58.2002 508.9C58.2002 496 58.2002 483.2 58.2002 471C58.2002 433.7 58.2002 396.5 58.2002 359.2C58.2002 302.2 58.2002 245.3 58.2002 188.3C65.8002 180.9 74.0002 174 82.5002 168.4C82.5002 231.6 82.5002 294.7 82.5002 357.9C82.5002 394 82.5002 430.2 82.5002 466.3C82.5002 478.8 82.5002 492 82.5002 505.3C82.5002 506.5 82.5002 507.6 82.5002 508.8C82.5002 513.6 82.5002 523.6 82.5002 529.4C82.5002 529.8 82.5002 530.1 82.5002 530.4Z" fill="#B0C7DA"/>
<path d="M0 601.9L72.9 648.2C72.5 649.3 72.2 650.4 71.9 651.6L0 605.9V601.9V601.9Z" fill="#704E3F"/>
<path d="M58.3001 45.5002L58.1001 46.3002C58.1001 93.7002 58.1001 141.1 58.1001 188.5C50.7001 195.7 44.0001 203.5 38.1001 211C38.1001 154.4 38.1001 97.8002 38.1001 41.2002L58.3001 45.5002Z" fill="#BBC8D4"/>
<path d="M58.2002 535.2C58.2002 536.3 58.2002 537.2 58.2002 538H58.0002C58.0002 544.1 42.1002 540.5 38.2002 537.7C38.2002 531.4 38.2002 521.8 38.2002 517C38.2002 515.3 38.2002 513.5 38.2002 511.8C38.2002 498.4 38.2002 485 38.2002 472.4C38.2002 434.5 38.2002 396.6 38.2002 358.7C38.2002 309.4 38.2002 260.1 38.2002 210.8C44.1002 203.3 50.8002 195.5 58.2002 188.3C58.2002 245.3 58.2002 302.2 58.2002 359.2C58.2002 396.5 58.2002 433.7 58.2002 471C58.2002 483.1 58.2002 495.9 58.2002 508.9C58.2002 510.9 58.2002 512.9 58.2002 514.8C58.2002 519.6 58.2002 529.1 58.2002 535.2Z" fill="#CBD9E6"/>
<path d="M38.2001 537.7C38.2001 539.4 38.2001 540.9 38.2001 541.9H38.1001C35.0001 544.4 31.9001 543.8 28.6001 543.4C28.6001 537.2 28.6001 526.2 28.6001 521C28.6001 518.4 28.6001 515.8 28.6001 513.2C28.6001 500.5 28.6001 488 28.6001 476.1C28.6001 437.9 28.6001 399.7 28.6001 361.5C28.6001 315.7 28.6001 270 28.6001 224.2C31.4001 220 34.6001 215.5 38.2001 211C38.2001 260.3 38.2001 309.6 38.2001 358.9C38.2001 396.8 38.2001 434.7 38.2001 472.6C38.2001 485.2 38.2001 498.5 38.2001 512C38.2001 513.7 38.2001 515.5 38.2001 517.2C38.2001 521.8 38.2001 531.5 38.2001 537.7Z" fill="#B0C7DA"/>
<path d="M38.2001 41.2002C38.2001 97.8002 38.2001 154.4 38.2001 211C34.7001 215.5 31.5001 220 28.6001 224.2C28.6001 163 28.6001 101.8 28.6001 40.5002L28.9001 39.2002L38.2001 41.2002Z" fill="#9FB4C5"/>
<path d="M28.8999 39.1998L28.5999 40.4998C28.5999 101.7 28.5999 162.9 28.5999 224.2C19.6999 236.5 14.3999 249.8 10.3999 263.4C10.3999 187.4 10.3999 111.4 10.3999 35.2998L28.8999 39.1998Z" fill="#BBC8D4"/>
<path d="M28.5999 547.8L28.6999 548.3C26.8999 549.5 23.4999 549.7 20.0999 549.3C15.8999 548.8 11.5999 547.4 10.3999 545.8C10.3999 545.2 10.3999 544.6 10.3999 544C10.3999 537.7 10.3999 529.4 10.3999 525C10.3999 522 10.3999 518.9 10.3999 515.9C10.3999 503.3 10.3999 490.9 10.3999 479.2C10.3999 440.2 10.3999 401.2 10.3999 362.2C10.3999 329.3 10.3999 296.4 10.3999 263.4C14.3999 249.8 19.7999 236.5 28.5999 224.2C28.5999 270 28.5999 315.7 28.5999 361.5C28.5999 399.7 28.5999 437.9 28.5999 476.1C28.5999 488 28.5999 500.6 28.5999 513.2C28.5999 515.8 28.5999 518.4 28.5999 521C28.5999 526.2 28.5999 537.2 28.5999 543.4C28.5999 545.8 28.5999 547.5 28.5999 547.8Z" fill="#CBD9E6"/>
<path d="M10.4 548.3C10.4 549.7 10.4 550.8 10.4 551.5C7.4 554.9 0.599998 553.2 0.599998 550.8H0V517.5V304.4C3.7 290.7 6.4 276.9 10.4 263.4C10.4 296.3 10.4 329.2 10.4 362.2C10.4 401.2 10.4 440.2 10.4 479.2C10.4 491 10.4 503.4 10.4 515.9C10.4 518.9 10.4 522 10.4 525C10.4 529.4 10.4 537.7 10.4 544C10.4 544.6 10.4 545.2 10.4 545.8C10.4 546.7 10.4 547.6 10.4 548.3Z" fill="#B0C7DA"/>
<path d="M10.4 35.2996C10.4 111.3 10.4 187.4 10.4 263.4C6.4 276.9 3.6 290.7 0 304.4V33.0996L10.4 35.2996Z" fill="#9FB4C5"/>
<g opacity="0.5">
<g opacity="0.5">
<g opacity="0.5">
<path opacity="0.5" d="M719 592.5L641.9 624.6L592 602.1L399.1 515L494.9 495.9L642.1 561.2L719 592.5Z" fill="#FFF3CE"/>
<path opacity="0.5" d="M627.8 630.501L546.1 664.501L285.2 537.801L391.5 516.601L627.8 630.501Z" fill="#FFF3CE"/>
<path opacity="0.5" d="M528.2 672.5L428.6 713.4L202 553.4L279.3 539L528.2 672.5Z" fill="#FFF3CE"/>
</g>
</g>
</g>
<path d="M488.8 379L487.2 379.1L348.8 389.1L340.6 389.7L164.2 402.5L162.5 402.6L112.5 394.2L448 373.4L488.8 379Z" fill="#F5875B"/>
<path d="M487.2 434V481.6L477.4 483.3L477.3 483V473.7L457.7 477L348.9 495.1V487.6L477.3 466.8V433.7C480.6 433.8 483.9 433.8 487.2 434Z" fill="#F15A29"/>
<path d="M487.2 379.101V433.901C483.9 433.801 480.6 433.701 477.3 433.701V410.801V405.401V389.701L348.9 399.901V390.301L348.8 389.101L487.2 379.101Z" fill="#DF5427"/>
<path d="M477.3 473.7V482.9L457.7 477L477.3 473.7Z" fill="#C92B28"/>
<path d="M477.3 433.7V466.8L348.9 487.6V444.6C350.9 444.3 352.8 444 354.8 443.7V480.5L471.4 462.2V433.7C473.4 433.7 475.4 433.7 477.3 433.7Z" fill="#F5875B"/>
<path d="M477.3 410.9V433.7C475.3 433.7 473.3 433.7 471.4 433.7V418.1L354.8 431V443.7C352.8 444 350.8 444.3 348.9 444.6V425.6L477.3 410.9Z" fill="#DA7852"/>
<path d="M477.3 405.4V410.9L348.9 425.5V419.4L477.3 405.4Z" fill="#DF5427"/>
<path d="M477.3 389.7V405.4L348.9 419.4V399.9L477.3 389.7ZM472.7 402.6V394.2L354.8 403.9V413.6L472.7 402.6Z" fill="#DA7852"/>
<path d="M472.7 394.2V402.6L354.8 413.6V403.9L472.7 394.2Z" fill="#BC2825"/>
<path d="M471.4 433.7V462.2L354.8 480.5V443.7C392.6 438.1 433.1 433.8 471.4 433.7Z" fill="#C92B28"/>
<path d="M471.4 418.101V433.701C433.1 433.801 392.7 438.101 354.8 443.701V431.001L471.4 418.101Z" fill="#BC2825"/>
<path d="M348.9 487.601V495.101L340.7 496.501V488.901L348.9 487.601Z" fill="#F15A29"/>
<path d="M348.9 444.601V487.601L340.7 488.901V445.801C343.4 445.401 346.1 445.001 348.9 444.601Z" fill="#F15A29"/>
<path d="M348.9 425.5V444.5C346.1 444.9 343.4 445.3 340.7 445.8V426.5L348.9 425.5Z" fill="#DF5427"/>
<path d="M348.9 419.4V425.5L340.7 426.5V420.3L348.9 419.4Z" fill="#DF5427"/>
<path d="M348.9 399.9V419.4L340.7 420.3V400.6L348.9 399.9Z" fill="#DF5427"/>
<path d="M348.9 390.301V399.901L340.7 400.601V390.301L340.6 389.701L348.8 389.101L348.9 390.301Z" fill="#DF5427"/>
<path d="M340.7 488.9V496.5L178.6 523.5V534.7L166 536.9L164.2 536.1V495.2C168.2 493 173.1 490.7 178.6 488.5V515.3L340.7 488.9Z" fill="#F15A29"/>
<path d="M340.7 445.801V488.901L178.6 515.201V488.401C180.6 487.601 182.7 486.701 184.9 485.901V506.701L335 483.901L335.4 446.701C335.5 446.701 335.5 446.701 335.5 446.701C337.2 446.401 338.9 446.101 340.7 445.801Z" fill="#F5875B"/>
<path d="M340.7 426.5V445.8C339 446.1 337.2 446.3 335.5 446.6H335.4L335.5 433L184.9 450.7V485.9C182.7 486.7 180.6 487.6 178.6 488.4V445L340.7 426.5Z" fill="#DA7852"/>
<path d="M340.7 420.301V426.501L178.6 445.001V438.001L340.7 420.301Z" fill="#DF5427"/>
<path d="M340.7 400.601V420.401L178.6 438.001V413.401L340.7 400.601ZM335.5 416.201V405.101L184.9 418.001V431.001L335.5 416.201Z" fill="#DA7852"/>
<path d="M340.7 390.3V400.5L178.6 413.5V438.1V445.1V488.5C173.1 490.8 168.2 493 164.2 495.2V402.6L340.6 389.7L340.7 390.3Z" fill="#DF5427"/>
<path d="M335.5 405.101V416.201L184.9 431.001V418.101L335.5 405.101Z" fill="#BC2825"/>
<path d="M335.5 433.101L335.4 446.701C310.9 451.201 230.7 468.501 184.9 485.901V450.701L335.5 433.101Z" fill="#BC2825"/>
<path d="M335.4 446.7L335 483.9L184.9 506.7V485.9C230.7 468.5 310.9 451.1 335.4 446.7Z" fill="#C92B28"/>
<path d="M164.2 495.101V536.001L112.5 513.601V424.801C132.7 434.901 164.2 495.101 164.2 495.101Z" fill="#C92B28"/>
<path d="M164.2 402.5V495.1C164.2 495.1 132.7 434.9 112.5 424.8V394.2L162.5 402.6L164.2 402.5Z" fill="#BC2825"/>
<path d="M448 373.4L112.5 394.2V424.8V513.6L164.2 536L166 536.8L178.6 534.7V523.5L340.7 496.5L348.9 495.1L457.7 477L477.3 482.9L477.4 483.3L487.2 481.6V434V379.1L488.8 379L448 373.4Z" fill="#000016"/>
<path d="M246.4 396.5L229.7 394.2L220.4 392.2C220.1 392.1 227.2 391 231.8 390.5C236.4 390 240.2 390.2 240.6 390.2L244.8 390.4L268.8 394.8C268.9 395 246.6 396.6 246.4 396.5Z" fill="#4F5677"/>
<path d="M194.9 400.099L189.1 399.799C189 399.799 188.9 399.799 188.8 399.799C188.5 399.799 188.2 399.899 187.9 399.899L187.4 399.799C187.3 399.899 187.3 400.699 187.4 400.799C182.2 401.399 176 401.699 175.7 401.599L159.1 399.799L158.1 397.499C157.7 397.399 162.1 396.899 167.9 396.199C173.7 395.599 178.8 395.099 179.2 395.199L180.6 395.399L180.9 395.499C181.3 395.499 181.8 395.399 182.2 395.399C182.4 395.399 182.6 395.399 182.8 395.299C189.5 394.599 195.5 394.099 196.2 394.199L198.3 394.599L220.3 398.599C220.7 398.599 195.3 400.199 194.9 400.099Z" fill="#4F5677"/>
<path d="M187.9 399.9L189 400.2C188.2 400.2 187.7 400.1 187.5 400C187.4 400 187.4 399.9 187.4 399.8L187.9 399.9Z" fill="#4F5677"/>
<path d="M228.6 365.501C233.2 365.501 236.9 365.101 236.9 364.601V384.301C234.4 386.001 232.2 386.701 228.2 386.201C224 385.601 221.6 383.001 220.3 379.701V364.701C220.3 365.101 224 365.501 228.6 365.501Z" fill="#C5F0DC"/>
<path d="M228.6 392.7C224 392.7 220.3 392.2 220.3 391.7C220.3 391.1 224 390.7 228.6 390.7C233.2 390.7 236.9 391.2 236.9 391.7C236.9 392.2 233.2 392.7 228.6 392.7Z" fill="#AEDBC6"/>
<path d="M220.3 364.6C220.3 364.1 224 363.7 228.6 363.7C233.2 363.7 236.9 364.1 236.9 364.6C236.9 365.1 233.2 365.5 228.6 365.5C224 365.5 220.3 365.1 220.3 364.6Z" fill="#A8CABB"/>
<path d="M228.6 390.601C224 390.601 220.3 391.101 220.3 391.601V379.601C221.6 383.001 224 385.501 228.2 386.101C232.1 386.601 234.3 385.901 236.9 384.201V391.601C236.9 391.101 233.2 390.601 228.6 390.601Z" fill="#AEDBC6"/>
<path d="M181.4 391.7C188.2 391.7 193.7 392.7 193.7 393.9C193.7 395.1 188.2 396.1 181.4 396.1C181.2 396.1 181 396.1 180.8 396.1C180.4 396.1 179.9 396.1 179.5 396.1V391.7C180.1 391.8 180.7 391.7 181.4 391.7Z" fill="#B2C9DC"/>
<path d="M181.4 353.1C188.2 353.1 193.7 352.6 193.7 352V390.2C187.4 391.1 181.6 384.2 179.5 377.9V364.5C179.5 363.9 174.9 363.4 169.1 363.4V352C169.1 352.6 174.6 353.1 181.4 353.1Z" fill="#CBD9E6"/>
<path d="M179.5 377.9C181.6 384.2 187.4 391.1 193.7 390.2V394C193.7 392.8 188.2 391.8 181.4 391.8C180.7 391.8 180.1 391.8 179.5 391.8V377.9V377.9Z" fill="#B2C9DC"/>
<path d="M179.5 391.801C173.6 392.001 169.1 392.901 169.1 394.001V365.701C174.8 365.701 179.5 365.201 179.5 364.601V378.001V391.801Z" fill="#FABEA1"/>
<path d="M169.1 394.001C169.1 392.901 173.6 392.001 179.5 391.801V396.201C173.6 396.001 169.1 395.101 169.1 394.001Z" fill="#FABEA1"/>
<path d="M181.4 350.9C188.2 350.9 193.7 351.4 193.7 352C193.7 352.6 188.2 353.1 181.4 353.1C174.6 353.1 169.1 352.6 169.1 352C169.1 351.4 174.6 350.9 181.4 350.9Z" fill="#BACDDF"/>
<path d="M169.1 363.4C174.8 363.4 179.5 363.9 179.5 364.5C179.5 365.1 174.9 365.6 169.1 365.6V363.4Z" fill="#D9A68D"/>
<path d="M179.5 396.701C174 398.301 166.5 395.001 163.1 390.601C161.1 387.701 160 383.801 159.2 380.501C158.2 377.101 159 374.001 158.4 370.601H158.3V364.601C158.3 365.201 163 365.701 168.9 365.701C169 365.701 169.1 365.701 169.2 365.701V394.001C169.2 395.101 173.7 396.001 179.6 396.201V396.701H179.5Z" fill="#FABEA1"/>
<path d="M168.9 397.801C174.8 397.801 179.5 398.401 179.5 399.101C179.5 399.801 174.8 400.401 168.9 400.401C163 400.401 158.3 399.801 158.3 399.101C158.3 398.401 163 397.801 168.9 397.801Z" fill="#F8A27D"/>
<path d="M169.1 363.4V365.6C169 365.6 168.9 365.6 168.8 365.6C162.9 365.6 158.2 365.1 158.2 364.5C158.2 363.9 162.9 363.4 168.8 363.4C169 363.4 169.1 363.4 169.1 363.4Z" fill="#D9A68D"/>
<path d="M163.1 390.5C166.5 395 174 398.2 179.5 396.6V399.1C179.5 398.4 174.8 397.8 168.9 397.8C163 397.8 158.3 398.4 158.3 399.1V370.4H158.4C159.1 373.8 158.2 376.9 159.2 380.3C160 383.7 161.1 387.6 163.1 390.5Z" fill="#F8A27D"/>
<path d="M228 359.8C228.2 361.5 227.9 363.6 228.7 365.2C228.9 365.6 229.5 365.2 229.3 364.9C228.5 363.4 228.9 361.4 228.7 359.8C228.6 359.3 227.9 359.3 228 359.8Z" fill="#567168"/>
<path d="M181.8 352.2C181.5 350.2 182.5 348.1 181.6 346.3C181.4 345.9 180.9 346.3 181 346.6C181.8 348.3 180.9 350.5 181.1 352.4C181.2 352.8 181.9 352.6 181.8 352.2Z" fill="#567168"/>
<path d="M167.3 360.8C166.8 362.1 167 363.5 167.8 364.6C168 364.9 168.6 364.6 168.4 364.3C167.7 363.3 167.5 362.1 167.9 361C168.1 360.6 167.5 360.4 167.3 360.8Z" fill="#567168"/>
<path d="M550.5 349.4C550.1 350.1 549.7 350.9 549.4 351.7C549.7 350.9 550.1 350.1 550.5 349.4Z" fill="#73ACBB"/>
<path d="M545.8 352.2C546.3 354.3 546.8 356.5 547.1 358.6C547.6 353.9 548.2 349.3 549 344.6C549.1 343.2 549.1 341.9 549.2 340.4C549.3 330.4 549.6 320.1 548.4 310C548.1 307.8 547.7 305.6 547.4 303.5C546 307.1 543.7 310.5 541.8 313C540.8 314 535.8 319.7 533.4 320.1C533.5 320.2 533.5 320.3 533.6 320.4C538.5 330.1 542.4 339.7 545.1 349.8C545.4 350.5 545.6 351.4 545.8 352.2Z" fill="#73ACBB"/>
<path d="M573.8 325.2C574 325.1 574.2 324.9 574.5 324.8C574.2 324.9 574 325 573.8 325.2Z" fill="#73ACBB"/>
<path d="M633.8 319.5C626.1 319.4 618.8 317.8 611.5 316.3C621.3 317.2 630.9 309.1 638.8 304.5C630 306.2 621.5 306.8 613.3 309.6L613 309.5C614.6 306.5 622.6 300.1 625.5 298.5C618.1 299.3 614.4 303.4 608.3 305.7C611.4 300.5 616.4 296.4 619.8 291.4C609.3 289.3 601.1 302.6 594.8 308.1C596.1 301.5 601.8 293.3 605.2 287.5C596 292.2 589.7 301.3 584.8 309.5C582.4 302.5 591.6 295.8 592.2 288.9C583.6 295.1 570.5 314.1 573 325.7C565.3 330.6 558.1 336.1 553 343.2C556.7 317.3 564.2 292.6 577.5 272.7C589.8 279.8 613.6 279.6 624.3 276.1C616.7 272.3 603.9 276.3 598.2 269.8C609.9 270.6 623.3 270.7 634 265.3C625.8 264.7 613.6 264.7 606 261.7C615.7 259.5 634.7 260.4 639.2 249.6C631.8 249.5 624.3 251.4 617 250.9C623.3 246.8 629.8 246.1 635.4 239.9C631.9 241.5 620.3 244.7 616.1 244.2V243.9C624.2 238.3 630.2 230.9 637.5 224C627.7 228.2 613.2 231.8 607.9 241.2C610.9 233.6 613.9 226 618.6 219C607 225.2 596.9 236.4 591.4 248.3C596.3 238 599.6 225.1 602.8 214.2C592.7 225.4 582.6 235.8 580.9 251.2C578.5 240 578.8 226 581.5 214.7C574.3 228.6 570.9 241.9 573.1 257.6C566.6 249.8 561.7 236.3 561.3 226.9C557.4 234.8 561.1 247.8 564.5 255.8C565.4 257.4 569.5 265.5 572.7 268.5L572.5 268.7C573.3 269.7 574.3 270.6 575.5 271.4C562.4 290.4 554.4 313.6 549.8 338.2C549.9 328.2 550.2 318 549 307.9C548.6 305.6 548.3 303.3 548 301C548.6 298.9 548.8 296.8 548.4 294.9C548.1 295.7 547.8 296.6 547.4 297.5C547 294.7 546.5 292 545.8 289.2C545.3 286.3 543.3 278.9 542.7 274.9C542.7 274.8 542.7 274.8 542.7 274.7C544.8 273.5 548.2 269.1 548.9 268.3C551.7 264.3 555.1 258 554.6 253.4C553.2 258 549.1 264.3 544.8 267.6C548.5 259.1 549.3 251.8 548.6 244.4C547.9 249.8 545.8 256.6 542.7 262.2C544.9 253.7 542.7 246.9 540.9 240.4C540.1 245.5 538.9 252.1 538.8 258.3C539 251.1 537.3 244.1 534.2 239.5C534.5 243.3 534.1 247.2 533.6 251.4C533.6 245.9 528.8 241.7 526.1 238.2C527.2 242.4 527.8 246.9 529.7 251.1H529.3C527.4 250.2 523.8 246.7 522.9 245.4C523.5 249.4 526 251.1 527.5 254.5C524.2 253.3 521.6 250.7 518.5 249.3C517 255.9 525.7 259.5 529.4 262.9C525.1 263 519.6 260.4 515.7 258.9C518.8 264.6 525.1 267.6 530.8 269.7C526.2 272.8 521.3 267.1 516.4 267.9C520.7 273.3 534.4 279.8 541.9 275.6C542.2 279 544.6 288 545.2 291.3C545.8 294 546.3 296.8 546.7 299.5C544.2 304.5 540.1 309.7 535.9 312.6C539.9 302.9 540 293.8 537.6 283.6C537.5 291.3 535.4 300.3 532 307.1C533.5 296.9 528.7 288.4 524.1 279.5C524.3 287 524.3 295.9 525.7 303.4C524.2 294.8 519.6 285.8 513.1 279.8C515 285.2 515.6 290.6 516.3 296C514.5 289 505.8 284.2 500.2 279.7C503.7 285.4 506.4 291.2 510.7 296.2V296.4C507.9 296 501 291.9 499 290.2C501.5 295.1 505.6 296.8 509 300.5C504.2 299.5 499.7 297 495 295.7C496.1 303.4 508.5 306.2 514.3 309.3C508.9 309.9 501.1 307.8 495.7 306.7C501.7 312 510.3 314.3 517.9 315.9C513.1 319.1 505.6 314.3 500.1 315.4C506.7 319.7 523 324.2 531.9 321.1C537 331.2 541.1 341.2 543.7 351.7C541.2 357.4 540.7 367.3 545.8 371.4C545.6 374.4 545.4 377.5 545.3 380.5C542.9 376.6 538.4 373 535.1 370.5C535 370.4 535 370.4 534.9 370.3C535.4 368.4 533.4 362.2 533.1 361.1C531.4 356.5 528 350.1 523.8 347.6C526.9 351.5 529.8 358.5 530.1 363.8C525.1 355.7 519.4 350.6 512.7 346.5C516.9 350.3 521.4 356.2 524.3 362C518.4 355.1 511.4 352.5 504.9 349.9C508.5 353.4 513 358 517.8 361.9C512.1 357.7 505.6 355 500.2 354.5C503.6 356.6 506.6 359.4 509.9 362.3C505.3 358.9 498.9 359.9 494.3 359.8C498.5 361.6 502.6 363.9 507.3 365.1L507.4 365.3C505.8 366.3 500.3 366.9 498.5 366.8C502.2 368.9 505.1 368 508.9 368.9C506 370.6 502.3 371 499.2 372.5C503.9 377.7 512 373.3 517 372.6C514.6 375.9 509.1 378.5 505.6 380.5C512.2 381.7 518.4 378.7 523.5 375.7C523.4 381.1 515.8 381.3 513.6 385.5C520.3 385.6 532.5 380 534.6 372.6C537.8 373.4 542.6 379.4 545 383.5C544.4 402.4 545.3 420.9 547 437.8L515.2 437.1L520.8 487.5L551.7 495.1L552.7 495.2L573.3 488.1L586.3 443.7L552.4 438.2C550.3 418.3 549.1 396 550.1 373.5C551.8 374.2 553.6 374.8 554.1 374.9C558.4 376 564.9 377 568.7 375.4C564.3 375.5 557.6 374 553.5 371.5C562 372.2 568.6 370.9 574.8 368.4C569.9 369.3 563.4 369.4 557.6 368.5C565.6 368 570.9 364.5 576 361.4C571.4 362.1 565.3 362.9 559.8 364.5C566.1 362.8 571.7 359.6 574.8 356C571.6 357.2 568.1 357.9 564.3 358.6C569.1 357.2 571.3 352.3 573.5 349.3C570.2 351.3 566.5 352.9 563.3 355.5H563.1C563.1 353.9 565.2 349.9 566.2 348.7C562.9 350.2 562.1 352.6 559.7 354.7C559.8 351.8 561.2 349.1 561.5 346.3C555.3 346.9 554.8 354.6 553 358.3C551.7 355.2 552.2 350.7 552.3 347.4C552.4 346.7 552.5 346.1 552.6 345.4C557.8 337.9 565.5 332.2 573.6 327.1C574.5 330.7 578.7 337.2 579.6 338.5C584.2 344.6 592.5 353.2 600.5 354.3C593.4 349.6 585.2 339.9 582.2 331.8C593.4 340.7 605.2 344.7 619.4 346.4C609.3 342.9 598.4 336.6 590.8 329.6C603.6 335.8 616.4 333.8 629.9 332.3C620 329.3 608.4 325.5 598.1 323.9C610.1 326 623.6 324.4 633.8 319.5ZM550.5 349.4C550.1 350.1 549.7 350.9 549.4 351.7C549.7 350.9 550 350.1 550.5 349.4ZM533.7 320.4C533.7 320.3 533.6 320.2 533.5 320.1C535.8 319.8 540.9 314 541.9 313C543.9 310.5 546.1 307 547.5 303.5C547.8 305.7 548.1 307.9 548.5 310C549.7 320.1 549.4 330.4 549.3 340.4C549.2 341.9 549.1 343.3 549.1 344.6C548.3 349.2 547.7 353.9 547.2 358.6C546.8 356.4 546.4 354.3 545.9 352.2C545.7 351.4 545.5 350.6 545.3 349.8C542.5 339.6 538.6 330 533.7 320.4ZM573.8 325.2C573.9 325 574.2 324.8 574.5 324.8C574.3 324.9 574.1 325.1 573.8 325.2Z" fill="#9BC0C4"/>
<path d="M587.9 285.1C595.6 286.3 603.4 287.4 611.5 287C602.9 292.1 592.1 294.9 581.6 295C578.5 290 574.2 285.7 568.8 282C566.7 280.6 563.6 279.2 560.3 278.1C564.9 268.9 570.8 259.1 579.8 253.5C576.5 260.2 571 269.8 570 277.1C576.3 270.5 584.2 255.2 595.3 256.7C592 262.5 587 267.5 584 273.5C590.3 270.5 593.9 265.7 601.7 264.2C598.8 266.2 590.7 273.9 589.2 277.4L589.5 277.5C597.9 273.7 606.9 272.4 616 269.9C607.8 275.6 598.2 285.3 587.9 285.1Z" fill="#369151"/>
<path d="M590.1 212.1C597.8 212.1 605.6 209.4 613.3 208.9C610.5 217.2 600.4 220.1 591.1 222.1C584.3 215.3 575.4 208.8 566.1 204.4C571.6 193.3 580.2 183 590.1 176.5C585.5 184.7 582.8 193.4 580.1 202C585.1 191.1 600.1 186.1 610.1 180.6C602.8 188.8 596.9 197.5 588.7 204.3V204.7C593.1 204.9 605.1 200.4 608.7 198.4C603.3 205.7 596.4 207.1 590.1 212.1Z" fill="#2F8348"/>
<path d="M608.7 226.7C605.6 228.6 602.2 230.1 598.7 231.2C597.7 229.8 596.6 228.3 595.3 226.8C600.1 226.9 604.8 226.7 608.7 226.7Z" fill="#2F8348"/>
<path d="M595.4 226.8C596.6 228.3 597.8 229.7 598.8 231.2C590 234 580.2 234.4 571.4 234.4C577.8 241.2 591 235.8 599.2 239.4C588.2 244.1 563.2 246.1 549.9 239.2C549.2 238.8 548.5 238.4 547.9 238C546.7 237.2 545.6 236.3 544.6 235.3L544.8 235.1C541.3 232 536.5 223.3 535.5 221.6C533.3 217 531 210.9 529.9 204.8C531 203.8 532.1 203 533.3 202.3C535.9 210 540 217.8 544.6 223C543.1 214.7 542.9 206.9 543.9 199.2C545.8 199.1 547.8 199.1 549.8 199.4C550.2 204.9 551 210.4 552.3 215.3C552.6 210 553.7 205.1 555.5 200.5C558.9 201.3 562.3 202.6 565.7 204.2C564.9 206.6 564.2 208.9 563.3 211.2C564.1 208.9 565.1 206.7 566.2 204.4C575.4 208.7 584.3 215.3 591.2 222.1C586.8 223.1 582.5 223.8 579.3 224.8C583.6 226.4 589.6 226.8 595.4 226.8Z" fill="#369151"/>
<path d="M582 295.7C590.8 297.2 600.1 299.7 608.3 301.6C600.8 303.1 593.5 304.6 586.3 304.9C585.1 301.6 583.7 298.6 582 295.7Z" fill="#2F8348"/>
<path d="M598 318C594.8 317.8 591.7 317.5 588.6 317.1C588.5 316.2 588.4 315.4 588.3 314.6C591.6 316 594.9 317.1 598 318Z" fill="#2F8348"/>
<path d="M573.2 172.5C571 182.5 568.8 193.9 565.6 204.2C562.2 202.6 558.8 201.4 555.4 200.5C559.4 190.3 566.3 181.6 573.2 172.5Z" fill="#2F8348"/>
<path d="M568.8 428.6L559.3 471.5H559.2C555.8 463.5 545.4 457.8 535.4 453.4V433.7L568.8 428.6Z" fill="#BA8A55"/>
<path d="M559.3 471.5L557.6 478.9L536.4 488.3H535.4V453.4C545.4 457.7 555.8 463.4 559.3 471.5Z" fill="#BA8A55"/>
<path d="M566.2 256.1C565.9 263.3 558 270.8 559.1 277.8C556.7 277.2 554.3 276.8 552 276.8C555.8 268.2 561.5 260.1 566.2 256.1Z" fill="#369151"/>
<path d="M555.8 429.1L535.4 431.9L534 431.7C533.8 430.1 533.5 428.5 533.3 426.9L555.8 429.1Z" fill="#62451D"/>
<path d="M550.9 174.8C549.5 182.5 549.2 191.1 549.8 199.5C547.8 199.3 545.8 199.2 543.9 199.3C544.9 191.1 547.4 183.1 550.9 174.8Z" fill="#2F8348"/>
<path d="M548.8 297.9C548.6 298.1 548.3 298.3 548.1 298.4C546.6 292.4 548.5 284.4 551.9 276.8C554.2 276.7 556.7 277.1 559 277.8C559.1 278.4 559.2 279 559.5 279.5C559.7 279 560 278.6 560.2 278.1C563.5 279.1 566.6 280.6 568.7 282C574.1 285.6 578.3 290 581.5 295C579.1 295 576.7 294.9 574.4 294.7C576.9 294.9 579.4 295.3 581.9 295.7C583.7 298.6 585.1 301.7 586.2 304.9C579.9 305.1 573.5 304.4 567.1 301.6C573 306.6 580.6 311.2 588.4 314.6C588.5 315.4 588.6 316.3 588.7 317.1C577.7 315.5 567.8 311.8 558.2 304.7C561.8 313.5 570.9 323.6 578.6 328.3C570.2 327.7 560.9 318.8 555.8 312.3C554.9 310.9 550 304 548.9 300.1C548.6 299.1 548.6 298.4 548.8 297.9C549 297.7 549.2 297.5 549.5 297.4C549.2 297.4 548.9 297.6 548.8 297.9Z" fill="#2F8348"/>
<path d="M552.6 345.9C549.6 347.4 546.6 348.6 543.3 349.5C542.6 348.8 541.8 348.2 540.9 347.5C545 347.4 549.2 346.8 552.6 345.9Z" fill="#2F8348"/>
<path d="M526.9 353.4C526.9 349 526.9 344.6 527 340.2C531.3 341.5 535.5 343.7 539.1 346.2C537.7 346.7 536.1 347 534.5 347.2C536.6 347.4 538.7 347.5 540.8 347.4C541.6 348.1 542.4 348.7 543.2 349.4C539.4 350.4 535.2 351 530.4 350.9C534.8 353.3 542 354.5 546.6 354.1C542.6 356.2 535.8 355.6 531.2 354.7C530.7 354.6 528.8 354.1 526.9 353.4Z" fill="#2F8348"/>
<path d="M535.4 453.4V488.3L502.5 482.2L495.9 440.1C504.1 441.3 513.6 444.5 520.9 447.5C525 449.2 530.1 451.1 535.4 453.4Z" fill="#BE8154"/>
<path d="M535.4 433.7V453.4C530.1 451.1 525 449.2 521 447.6C513.7 444.7 504.3 441.5 496 440.2L493.9 426.8L535.4 433.7Z" fill="#C49A6C"/>
<path d="M531.3 426.7L533.2 426.9C533.4 428.5 533.7 430.1 533.9 431.7L528.2 430.8C528 429.5 527.8 428.2 527.6 426.9L531.3 426.7Z" fill="#459258"/>
<path d="M530.4 189.8C530.7 193.6 531.7 198 533.2 202.4C532 203.1 530.9 203.9 529.8 204.9C528.8 199.5 528.7 194.1 530.4 189.8Z" fill="#2F8348"/>
<path d="M548.8 297.9C548.5 298.4 548.6 299.1 548.9 300.1C540.8 306.4 533 313.3 527.9 322C528 321.1 528 320.3 528.1 319.4C533 311.1 540.3 304.5 548.1 298.4C548.3 298.2 548.6 298.1 548.8 297.9Z" fill="#459258"/>
<path d="M539.1 346.2C535.5 343.7 531.3 341.5 527 340.2C527.1 334.9 527.4 329.5 527.8 324.2C527.8 328 527.6 333 529.1 336.3C530.8 332 530.9 323.4 537.4 322.3C537.2 325.5 535.9 328.5 536 331.7C538.5 329.2 539.1 326.5 542.5 324.6C541.6 325.9 539.5 330.6 539.7 332.4H539.9C543.1 329.3 546.8 327.2 550.2 324.8C548 328.3 545.9 333.9 541 335.9C544.9 334.8 548.6 333.8 551.9 332.2C548.9 336.5 543.2 340.5 536.7 342.8C542.4 340.7 548.7 339.3 553.5 338.2C549.2 341.1 545 344.4 539.1 346.2Z" fill="#369151"/>
<path d="M531.4 424.9L532.9 425C533 425.6 533.1 426.3 533.2 426.9L531.3 426.7L527.6 426.8C527.5 426.2 527.4 425.6 527.3 425L531.4 424.9Z" fill="#459258"/>
<path d="M527.6 426.9C527.8 428.2 528 429.5 528.2 430.8L507.7 427.6L527.6 426.9Z" fill="#62451D"/>
<path d="M527.7 323.3C526.9 324.2 526.2 325.2 525.7 326.3C526.4 324.8 527.1 323.4 527.9 322C527.8 322.7 527.8 323.5 527.7 324.2C527.7 323.9 527.7 323.6 527.7 323.3Z" fill="#459258"/>
<path d="M525.7 326.3C526.2 325.2 526.9 324.2 527.7 323.3C527.7 323.6 527.7 323.9 527.7 324.2C527.3 329.5 527.1 334.9 526.9 340.2C525.7 339.8 524.5 339.5 523.4 339.3C523.3 336 523.5 332.4 524.5 329.1C524.8 328.2 525.2 327.3 525.5 326.5C525.7 326.4 525.7 326.3 525.7 326.3Z" fill="#369151"/>
<path d="M524.9 219.7C525 220.4 525 221.1 525 221.8C524.8 221.8 524.5 221.7 524.3 221.7C524.6 221 524.8 220.3 524.9 219.7Z" fill="#2F8348"/>
<path d="M523.4 339.3C523.4 339.5 523.4 339.6 523.4 339.8C523.3 339.7 523.2 339.7 523.2 339.6C523.2 339.5 523.2 339.3 523.1 339.2C523.2 339.3 523.3 339.3 523.4 339.3Z" fill="#459258"/>
<path d="M527.9 322C527.1 323.4 526.4 324.8 525.7 326.3C525.7 326.4 525.6 326.4 525.6 326.5C525.2 327.3 524.8 328.2 524.6 329.1C523.6 332.4 523.4 336 523.5 339.3C523.4 339.3 523.3 339.3 523.2 339.2C523 338.4 522.9 337.7 522.7 336.9C523 331.7 523.4 326.5 523.9 321.3C524.1 318.9 524.4 316.5 524.7 314.1C528.1 286.5 535.2 260.1 547.9 238C548.6 238.4 549.2 238.8 549.9 239.2C537.1 262.4 530.6 290.3 528.2 319.3C528 320.3 528 321.1 527.9 322Z" fill="#459258"/>
<path d="M523.1 339.3C523.1 339.4 523.2 339.5 523.2 339.7C523 339.6 522.8 339.4 522.6 339.2C522.8 339.2 523 339.2 523.1 339.3Z" fill="#459258"/>
<path d="M527 340.2C526.9 344.6 526.9 349 526.9 353.4C525.5 352.9 524.1 352.4 523.3 351.8L523.2 351.9C522.8 351.7 522.5 351.5 522.2 351.3C522.2 349.1 522.3 346.9 522.3 344.7C522.4 342.9 522.4 341.1 522.5 339.2C522.6 339.2 522.6 339.2 522.6 339.2C522.8 339.4 523 339.5 523.2 339.7C523.3 339.8 523.4 339.8 523.4 339.9C523.4 339.7 523.4 339.6 523.4 339.4C524.6 339.5 525.8 339.8 527 340.2Z" fill="#2F8348"/>
<path d="M523.3 351.8C524.1 352.3 525.5 352.9 526.9 353.4C527.1 378.4 529.6 403.1 532.9 425L531.4 424.9L527.3 425.1C524.5 406.5 522.6 386 522.2 365C522.2 363.8 522.2 362.6 522.1 361.4C522.1 358 522.1 354.6 522.1 351.2C522.5 351.5 522.8 351.7 523.3 351.8Z" fill="#459258"/>
<path d="M522.6 337C522.8 337.8 522.9 338.5 523.1 339.3C522.9 339.3 522.8 339.2 522.6 339.2C522.5 339.2 522.5 339.1 522.5 339.1C522.5 338.4 522.6 337.7 522.6 337Z" fill="#459258"/>
<path d="M522.7 339.2H522.6V339.1C522.6 339.1 522.6 339.2 522.7 339.2Z" fill="#2F8348"/>
<path d="M522.5 339.2C522.4 341 522.3 342.8 522.3 344.7C522 342.8 521.6 340.9 521.2 339.1C521.7 339.1 522.1 339.1 522.5 339.2Z" fill="#2F8348"/>
<path d="M522.3 344.6C522.2 346.8 522.2 349 522.2 351.2C518.8 348.7 517.5 343.8 517.4 338.9C518.7 338.8 520 338.8 521.3 338.9C521.6 340.9 522 342.7 522.3 344.6Z" fill="#2F8348"/>
<path d="M522.1 361.5C522.1 362.7 522.1 363.9 522.2 365.1C519.4 360.7 514.1 354.4 510.7 353.8C510.9 353 511 352.1 510.9 351.3C514.5 353.7 519.4 357.3 522.1 361.5Z" fill="#459258"/>
<path d="M522.6 337C522.5 337.7 522.5 338.4 522.5 339.1C520.2 336.8 521.2 333.2 520.8 330C521.5 332.2 522.1 334.6 522.6 337Z" fill="#459258"/>
<path d="M522.1 280.6C523.9 291.7 524.1 303 524.6 314.1C524.3 316.5 524 318.9 523.8 321.3C523.8 319.8 523.8 318.3 523.8 316.6C523.3 305.5 523.1 294.1 521.3 282.9C520.8 280.5 520.4 278.1 519.9 275.7C520.2 274.8 520.4 273.9 520.6 273C521.1 275.5 521.6 278.1 522.1 280.6Z" fill="#459258"/>
<path d="M520.8 266.2C521.3 268.3 521.2 270.6 520.7 273C520.5 271.7 520.2 270.5 519.9 269.2C520.2 268.2 520.5 267.1 520.8 266.2Z" fill="#2F8348"/>
<path d="M519.9 269.2C520.2 270.5 520.4 271.7 520.7 273C520.5 273.9 520.3 274.8 520 275.7C519.7 274.3 519.4 272.8 519.1 271.4C519.4 270.7 519.6 269.9 519.9 269.2Z" fill="#2F8348"/>
<path d="M522.5 339.1V339.2C522.1 339.1 521.6 339.1 521.2 339C520.5 335.8 519.7 332.6 518.8 329.5C519.1 328.6 519.5 327.7 519.9 327C519.9 327.1 520 327.2 520 327.2C520.3 328.1 520.5 329 520.8 329.8C521.2 333.1 520.3 336.8 522.5 339.1Z" fill="#2F8348"/>
<path d="M518.8 329.6C519.7 332.7 520.5 335.8 521.2 339.1C519.9 339 518.6 339 517.3 339.1C517.3 335.6 517.9 332.2 518.8 329.6Z" fill="#369151"/>
<path d="M518.2 210.1C518.7 213.9 518.9 217.7 518.6 221.6C517.7 221.7 516.9 221.8 516 221.9C517.2 217.8 518 213.6 518.2 210.1Z" fill="#2F8348"/>
<path d="M517.8 260.1C518.6 263.1 519.3 266.1 519.9 269.2C519.7 269.9 519.4 270.6 519.1 271.4C518.5 268.4 517.8 265.4 517 262.4C516.2 258.8 513.2 249 512.7 245.2C513.1 245 513.4 244.7 513.8 244.4C514.6 248.8 517.1 257 517.8 260.1Z" fill="#459258"/>
<path d="M513.7 244.2C513.7 244.3 513.7 244.3 513.8 244.4C513.4 244.7 513.1 245 512.7 245.2C512.7 245 512.7 244.8 512.6 244.6C512.9 244.8 513.3 244.6 513.7 244.2Z" fill="#2F8348"/>
<path d="M519.8 236.6C519.2 237.5 515.8 242.7 513.7 244.2C513.3 244.5 512.9 244.7 512.6 244.6C512.6 244.8 512.6 245 512.7 245.2C507.3 248.9 498.3 246.9 491.8 243.4C492.3 242.3 492.8 241.1 493.4 240.1C495.9 240.9 498.4 241.4 500.7 239.6C498.8 239 496.8 238.3 494.9 237.5C496 235.6 497.3 233.8 498.7 232.2C498.8 232.2 498.8 232.2 498.9 232.2L498.8 232.1C501.6 228.8 504.8 226.1 508.6 224.3C508.7 225 508.7 225.7 508.7 226.4C508.7 225.7 508.7 225 508.7 224.3C510.3 223.5 511.9 222.9 513.6 222.5C513.7 225 513.6 227.6 513 230.4C514.2 227.8 515.3 224.9 516.1 222C516.9 221.9 517.8 221.8 518.7 221.7C518.4 226.3 517.4 231 515.6 236.3C519.4 232.8 522.8 226.8 524.5 221.8C524.7 221.8 525 221.8 525.2 221.9C524.9 226.6 522.2 232.6 519.8 236.6Z" fill="#369151"/>
<path d="M519.1 271.4C519.4 272.8 519.7 274.3 520 275.7C518.7 279.8 516.6 283.8 514.6 286.7C513.7 287.9 508.7 294.6 506.2 295.2C506.3 295.3 506.3 295.4 506.4 295.6C505.9 295.9 505.3 296.3 504.7 296.5C495.5 300.6 478.2 296.9 471.1 292.6C474 291.8 477.6 292.6 481.1 293.1C484.4 293.6 487.5 293.7 489.8 291.8C486.8 291.4 483.7 290.9 480.6 290.1C480.4 288.4 480.5 286.8 480.7 285.1C482.4 285.2 484.1 285.1 485.6 284.8C484.3 284.2 482.7 283.6 481 283C482 278.3 484.3 273.9 487.6 270.3C489.2 268.5 491 266.9 493.1 265.6C495 269.3 496.4 273.3 497.3 277.2C496.3 273.2 495.8 268.7 495.3 264.3C496.9 263.5 498.6 262.8 500.3 262.3C502.9 268 504.7 274 504.1 280.9C507.3 273.1 509 263 508.7 254.4C511.7 265.5 512.2 275.6 508.5 286.7C512.7 283.2 516.7 277.1 519.1 271.4Z" fill="#369151"/>
<path d="M509.9 206.3C511.5 211.3 513.3 216.5 513.6 222.4C511.9 222.8 510.3 223.4 508.7 224.2C508.6 217.9 509.4 211.4 509.9 206.3Z" fill="#2F8348"/>
<path d="M510.7 351C510.8 351 510.8 351.1 510.9 351.2C510.9 352 510.9 352.9 510.7 353.7C509.7 358 506.1 361.9 501.8 364.8C501 362.5 500.3 360.2 499.6 358C497.7 352.1 496.4 346.5 497.3 340.8C498 341.4 498.6 342.1 499.2 342.8C498.7 341.8 498.1 340.8 497.5 339.8C497.8 338.5 498.2 337.2 498.7 335.9C501 338.3 503.3 341 505.4 344.3C505 340.3 503.2 335.5 501.1 331.6C501.4 331.2 501.7 330.7 502 330.3C504.7 333.4 507 337.7 508.4 341.1C508.7 342.2 511.1 348.8 510.7 351Z" fill="#369151"/>
<path d="M527.3 425.1C527.4 425.7 527.5 426.3 527.6 426.9L507.7 427.6L528.2 430.8L533.9 431.7L535.3 431.9L555.7 429.1L533.1 426.9C533 426.3 532.9 425.6 532.8 425L568.7 428.5L535.3 433.6L493.8 426.7L527.3 425.1Z" fill="#B27E43"/>
<path d="M502.7 205.9C505.9 210.4 508 217.1 508.5 224.3C504.7 226.1 501.5 228.8 498.7 232.1C494.6 228.7 485.4 225.4 486.6 218C490 219.4 492.9 222 496.4 223.1C494.6 219.5 491.8 217.8 491 213.3C492 214.7 495.9 218.3 498 219.2L498.5 219.1C496.3 214.5 495.4 209.6 494 205C497.1 208.7 502.4 213 502.6 219.1C503 214.4 503.3 210 502.7 205.9Z" fill="#2F8348"/>
<path d="M520 327.1C519.6 327.8 519.2 328.7 518.9 329.6C515.5 318.1 510.7 307.3 504.8 296.5C505.4 296.2 506 295.9 506.5 295.6C512.2 306 516.9 316.3 520.2 327.3C520 327.2 520 327.2 520 327.1Z" fill="#459258"/>
<path d="M501.9 330.2C501.6 330.6 501.3 331.1 501 331.5C500 329.7 498.9 328 497.8 326.7C499.3 327.5 500.6 328.7 501.9 330.2Z" fill="#2F8348"/>
<path d="M499.5 357.9C500.2 360.1 501 362.4 501.7 364.7C497.5 367.5 492.7 369.4 489.2 369.6C491.3 364.8 499.3 364.1 499.1 358L499.5 357.9Z" fill="#2F8348"/>
<path d="M499.5 357.9L499.2 358C494 361.7 487.7 365.5 480.7 364.7C484.3 362.1 489.9 358.9 492.2 355C487 356.2 478.7 361.6 473.5 356.2C476.6 354.3 480.4 353.6 483.4 351.5C479.4 350.8 476.4 351.9 472.4 349.9C474.3 349.9 480 348.8 481.6 347.6L481.5 347.4C476.5 346.4 472.1 344.1 467.5 342.5C472.3 342.3 478.9 340.7 484 344.1C480.4 341 477.1 338.2 473.4 336.1C479.1 336.2 486.1 338.7 492.3 343C487 339.1 482 334.3 478 330.7C484.4 332.9 491 335 497.1 340.7C496.3 346.4 497.7 352.1 499.5 357.9Z" fill="#2F8348"/>
<path d="M484.3 228.7C488.4 230 494.2 232.5 498.7 232.1C497.3 233.7 496.1 235.5 494.9 237.4C490.7 235.6 486.7 232.9 484.3 228.7Z" fill="#2F8348"/>
<path d="M498.6 335.8C498 337.1 497.6 338.4 497.4 339.7C494.2 334.5 490 329.7 486.1 326.3C490.6 328.9 494.8 331.9 498.6 335.8Z" fill="#2F8348"/>
<path d="M500.3 262.4C498.6 262.9 496.9 263.5 495.3 264.4C494.8 259.8 494.5 255.2 494.2 250.9C496.3 254.8 498.5 258.5 500.3 262.4Z" fill="#2F8348"/>
<path d="M482.7 252.1C486.8 255.7 490.4 260.5 493 265.7C491 267 489.2 268.6 487.5 270.4L486.9 269.8C486 263.8 485 257.9 482.7 252.1Z" fill="#2F8348"/>
<path d="M493.4 240.1C492.8 241.2 492.3 242.3 491.8 243.4C489.1 242 486.9 240.3 485.5 238.6C488.1 238 490.8 239.3 493.4 240.1Z" fill="#2F8348"/>
<path d="M487.6 270.4C484.3 274 482 278.4 481 283.1C474.4 280.8 465.8 278 464.5 271.3C469.5 272.3 474.4 274.8 479.5 275.5C475.8 271.6 471.4 270.1 468.5 264.8C470.7 266.4 478.2 270.5 481.1 270.7V270.5C476.3 265.3 473.2 259 469.2 253C475.3 257.5 484.7 262.2 487 269.8L487.6 270.4Z" fill="#2F8348"/>
<path d="M480.6 285.1C480.4 286.7 480.3 288.4 480.5 290.1C475.2 288.8 470 286.8 465.9 283.3C470.1 283.9 475.7 285 480.6 285.1Z" fill="#2F8348"/>
<path d="M984.5 83.9998V159.3L914.4 166.5L913.3 165.5L982.9 158.4V83.2998L984.5 83.9998Z" fill="#A77840"/>
<path d="M919.6 151.099V157.099L921.3 156.899V158.099L976 152.199V150.699V92.4992L974.3 92.6992V91.4992L919.6 99.6992V151.099ZM982.9 83.2992V158.399L913.3 165.499L913 165.199L914.4 94.4992L982.6 83.1992L982.9 83.2992Z" fill="#C49A6C"/>
<path d="M982.9 83.0996V83.2996L982.6 83.1996L914.4 94.4996L913 165.2L913.3 165.5H912.7V93.4996L982.9 83.0996Z" fill="#C49A6C"/>
<path d="M976.1 150.699V152.199L921.4 158.099V156.899L974.5 151.199V146.699C975.2 147.999 975.7 149.299 975.9 150.699H976.1Z" fill="#C49A6C"/>
<path d="M976.1 92.5V150.7H975.9C975.6 149.4 975.1 148 974.5 146.7V92.7L976.1 92.5Z" fill="#C49A6C"/>
<path d="M961.3 136.599C962.3 136.699 963.3 136.899 964.2 137.199C968.3 138.699 972.2 142.599 974.3 146.799V151.299L921.2 156.999V148.299C923.9 144.599 927.9 141.999 932.3 140.199C933.4 139.799 934.5 139.399 935.7 138.999C934.7 141.299 945.5 142.899 946.8 142.899C951.3 142.799 956.3 140.499 958.9 136.699V136.599C959.7 136.499 960.5 136.499 961.3 136.599Z" fill="#E6B7B8"/>
<path d="M974.4 92.7998V146.8C972.3 142.6 968.4 138.7 964.3 137.2C963.3 136.9 962.4 136.7 961.4 136.6C961.1 133.9 961 131 961.1 128.3C961.2 124.1 961.6 119.5 960.8 115.3C960.3 112.6 959.2 110 957.3 107.8C953.4 103.3 944.9 103.3 939.8 105.2C936.4 106.4 932.9 108 931.6 111.5C931.5 111.7 931.4 112 931.4 112.2C930.4 115.6 931 118.9 930.9 122.3C930.8 125.9 931.1 128.8 931.6 132.4C931.9 134.2 932.9 138.2 932.7 140.1C928.3 141.9 924.3 144.5 921.6 148.2V100.7L974.4 92.7998Z" fill="#C68E6A"/>
<path d="M974.4 91.5V92.7L921.3 100.6V148.1C920.6 149 920.1 150 919.6 151V99.7L974.4 91.5Z" fill="#A77840"/>
<path d="M960.7 115.199C961.5 119.399 961.2 123.999 961 128.199C960.9 130.899 961 133.799 961.3 136.499C960.5 136.399 959.7 136.399 958.9 136.399C956.7 136.399 954.6 136.499 952.7 136.099C952.7 134.899 952.7 133.799 952.7 132.599C953.2 132.099 953.7 131.699 954.2 131.199C957.6 126.999 957.4 121.099 957 115.899C957.7 115.799 958.4 115.699 959.1 115.499L960.7 115.199Z" fill="#C28C79"/>
<path d="M956.9 115.9C953.2 116.4 948.7 116.1 945.2 115.8C943.4 115.6 937.6 114.9 935 113.2C934.3 112.7 933.8 112.2 933.7 111.6L931.4 111.3C932.7 107.8 936.3 106.2 939.6 105C944.7 103.2 953.2 103.2 957.1 107.6C959 109.8 960 112.4 960.6 115.1L959 115.4C958.4 115.7 957.7 115.8 956.9 115.9Z" fill="#C28C79"/>
<path d="M952.7 136.199C954.6 136.599 956.8 136.499 958.9 136.499V136.599C956.3 140.399 951.3 142.699 946.8 142.799C945.5 142.799 934.8 141.199 935.7 138.899C937.5 138.299 939.4 137.799 941.2 137.399C941 136.499 940.9 135.599 940.9 134.599C941.1 134.699 941.3 134.799 941.5 134.899C945.2 136.899 949.6 135.299 952.7 132.699C952.7 133.899 952.7 134.999 952.7 136.199Z" fill="#DEBBAE"/>
<path d="M957.7 188.7V258.9H871.1L869.7 257.9H956V187.8H956.1L957.7 188.7Z" fill="#A77840"/>
<path d="M952.7 132.7C949.6 135.4 945.2 136.9 941.5 134.9C941.3 134.8 941.1 134.7 940.9 134.6C937.7 132.7 936.1 129.4 935.5 125.7C935.2 123.1 934.5 117.2 935 113.5L935.1 113.3C937.7 114.9 943.5 115.7 945.3 115.9C948.7 116.2 953.3 116.4 957 116C957.4 121.2 957.6 127.1 954.2 131.3C953.7 131.7 953.2 132.2 952.7 132.7Z" fill="#E9D2C9"/>
<path d="M876.6 246V250.9H878.3V251.9L948.7 250.6V242V229.4V197.4L947 197.5V196.4L876.6 200.1V213.7V246ZM956 187.8V257.9H869.6L869.4 257.7L871.1 195.1L956 187.8Z" fill="#C49A6C"/>
<path d="M956 187.699V187.799L871.1 195.199L869.4 257.699V194.199L956 187.699Z" fill="#C49A6C"/>
<path d="M948.7 241.9V250.5L878.3 251.8V250.8L947 249.5V241.8C947.6 241.9 948.1 241.9 948.7 241.9Z" fill="#C49A6C"/>
<path d="M948.7 229.399V241.999C948.2 241.999 947.6 241.899 947 241.899V227.699C947.6 228.199 948.2 228.799 948.7 229.399Z" fill="#C49A6C"/>
<path d="M948.7 197.399V229.399C948.2 228.799 947.6 228.199 947 227.699V197.499L948.7 197.399Z" fill="#C49A6C"/>
<path d="M893.3 243.399C898.8 243.099 903.9 243.399 909.4 242.599C909.8 242.499 910.2 242.499 910.6 242.399C917.4 241.599 924.6 242.099 931.5 242.099C936.5 242.099 942 241.599 946.9 241.799V249.499L878.2 250.799V245.199C881.7 243.999 886.5 243.999 890.2 243.699C890.9 243.599 891.6 243.599 892.2 243.499C892.6 243.499 892.9 243.499 893.3 243.399Z" fill="#FBB161"/>
<path d="M929.5 230.4C929.9 229.9 930.2 229.4 930.4 228.9C931.4 226.1 930.9 225.3 934.3 224.8C934.6 224.8 935 224.7 935.4 224.7C937.3 224.6 939.9 224.6 940.5 226.1C943 225 945.2 226 947 227.6V241.8C942.1 241.6 936.6 242.1 931.6 242.1C924.6 242.1 917.5 241.5 910.7 242.4V242C910.7 242.2 908.6 238.3 912 238.9C912.7 235.5 912.8 232.4 916.7 230.6C917.2 230.4 917.7 230.2 918.3 230.2C920.6 230 923.1 231.3 923.6 233.8C924.4 232.2 926.4 232.8 927.6 234.3C927.4 232.9 928.6 231.6 929.5 230.4Z" fill="#FDC88E"/>
<path d="M947 197.399V227.599C945.2 225.999 943 224.999 940.5 226.099C939.8 224.599 937.2 224.599 935.4 224.699C928.1 221.899 920.5 219.399 912.8 217.799C912.6 217.699 912.4 217.699 912.1 217.699C912.1 217.299 912.2 216.799 912.2 216.399C914.7 218.099 920.4 213.599 916.9 210.999C919.3 207.099 912.8 205.099 912.3 207.399C911.5 206.099 909.7 206.299 908.5 207.099C908.6 205.199 907.8 203.699 905.4 204.499C905.7 203.099 903.8 202.299 901.7 202.499L901.6 199.899L947 197.399ZM940.5 209.299C940.5 206.199 938 203.599 935 203.599C932 203.599 929.5 206.199 929.5 209.299C929.5 212.499 931.9 214.999 935 214.999C938 215.099 940.5 212.499 940.5 209.299Z" fill="#FBB161"/>
<path d="M947 196.399V197.499L901.6 199.899L878.3 201.099V213.599C877.7 213.599 877.2 213.699 876.6 213.699V200.099L947 196.399Z" fill="#A77840"/>
<path d="M935.8 138.9C934.7 139.3 933.5 139.7 932.4 140.1C932.7 138.2 931.6 134.2 931.3 132.4C930.9 128.8 930.5 125.9 930.6 122.3C930.7 118.9 930.2 115.6 931.1 112.2C931.2 112 931.2 111.7 931.3 111.5L933.6 111.8C933.7 112.4 934.2 112.9 934.9 113.4L934.8 113.6C934.4 117.3 935 123.2 935.3 125.8C935.9 129.5 937.5 132.8 940.7 134.7C940.7 135.7 940.8 136.6 941 137.5C939.4 137.8 937.6 138.3 935.8 138.9Z" fill="#C28C79"/>
<path d="M935 203.699C938 203.699 940.5 206.299 940.5 209.399C940.5 212.599 938 215.099 935 215.099C932 215.099 929.5 212.499 929.5 209.399C929.6 206.199 932 203.699 935 203.699Z" fill="#FDC88E"/>
<path d="M912.1 217.699C912.3 217.699 912.5 217.799 912.8 217.799C920.4 219.499 928.1 221.899 935.4 224.699C935 224.699 934.6 224.799 934.3 224.799C930.9 225.299 931.4 226.099 930.4 228.899C930.2 229.399 929.9 229.899 929.5 230.399C927.7 227.899 925.6 225.899 922.8 224.799C920 223.699 916.3 224.099 913.8 222.499C917.7 219.699 910.2 218.399 908.3 217.799C906.6 217.199 904.8 216.599 903.2 215.999C903.2 215.899 903.2 215.799 903.2 215.699C905.6 216.199 907.9 216.699 910.3 217.199C910.8 217.399 911.5 217.499 912.1 217.699Z" fill="#E7A45A"/>
<path d="M903.1 216C904.8 216.6 906.5 217.2 908.2 217.8C910.2 218.5 917.7 219.8 913.7 222.5C916.2 224.1 919.9 223.6 922.7 224.8C925.6 225.9 927.7 227.8 929.4 230.4C928.5 231.6 927.4 232.9 927.4 234.5C926.2 233 924.2 232.3 923.4 234C922.9 231.5 920.4 230.2 918.1 230.4C918.4 227.9 916.8 226.7 914.3 225.9C913.2 225.7 909.2 226.2 908.6 225.1C907.8 223.5 910.2 223 909.9 221.4C909.2 219 902.2 218.1 900.1 217.3C898.7 216.8 896.2 215.7 895.1 214.5C897.2 214.8 899.3 215.2 901.4 215.6C902 215.6 902.6 215.8 903.1 216Z" fill="#FBB161"/>
<path d="M921.3 148.199V156.899L919.6 157.099V151.099C920.1 149.999 920.7 149.099 921.3 148.199Z" fill="#A77840"/>
<path d="M914.4 225.799C917 226.599 918.6 227.799 918.2 230.299C917.7 230.299 917.1 230.499 916.6 230.699C912.7 232.499 912.5 235.599 911.9 238.999C908.5 238.299 910.6 242.299 910.6 242.099V242.499C910.2 242.599 909.8 242.599 909.4 242.699C903.9 243.499 898.7 243.199 893.3 243.499C893.4 241.899 893.2 240.299 893.2 238.899C894.9 239.199 897 240.099 898.6 239.899C897.3 239.699 896 238.799 895.8 237.499C896.1 237.499 896.4 237.499 896.7 237.499C900.3 237.499 903.9 238.599 907.5 238.999C903.6 237.699 897.9 234.899 896.9 230.499C899.5 230.499 902.5 230.899 905.2 231.799C901.7 229.599 899.1 227.699 896.5 224.599C898.9 224.399 902.4 224.199 905.2 224.399C900.4 222.599 894.2 218.799 892 213.899C893.1 213.999 894.2 214.199 895.3 214.299C896.5 215.499 899 216.599 900.3 217.099C902.4 217.899 909.4 218.699 910.1 221.199C910.4 222.799 908 223.299 908.8 224.899C909.4 226.099 913.3 225.599 914.4 225.799Z" fill="#E7A45A"/>
<path d="M912.1 214.5C911.4 214.6 910.7 214.6 910.1 214.5C910.1 214.9 910.2 215.3 910.2 215.7C908.3 216.2 905.5 215.1 905.8 213.2C907.3 212.2 908.5 209.4 908.6 207.2C909.8 206.4 911.5 206.2 912.4 207.5C912.9 205.2 919.4 207.2 917 211.1C920.5 213.7 914.8 218.2 912.3 216.5C912.2 215.7 912.1 215.1 912.1 214.5Z" fill="#FDC88E"/>
<path d="M912.2 216.4C912.2 216.8 912.2 217.3 912.1 217.7C911.4 217.6 910.8 217.4 910.1 217.3C910.1 216.7 910.1 216.2 910.1 215.7C910.1 215.3 910.1 214.9 910 214.5C910.6 214.6 911.3 214.6 912 214.5C912.1 215.1 912.2 215.7 912.2 216.4Z" fill="#FDC88E"/>
<path d="M910.2 215.6C910.2 216.1 910.2 216.6 910.2 217.2C907.9 216.7 905.5 216.2 903.1 215.7C903.1 214.8 903 213.5 903 212.6H903.2C904 213.6 904.9 213.7 905.7 213.1C905.4 215 908.2 216.1 910.2 215.6Z" fill="#FBB161"/>
<path d="M908.5 207.1C908.4 209.3 907.2 212.2 905.7 213.1C904.9 213.6 904 213.6 903.2 212.6H903C903 213.5 903 214.8 903.1 215.7C902.6 215.6 902.1 215.5 901.5 215.4C901.5 214.7 901.5 213.9 901.5 213.1C900.3 213.1 899.1 213.2 898.1 212.9C896.5 212.2 893.7 207.5 896.8 207.7C896 204.2 899 202.6 901.7 202.4C903.8 202.3 905.7 203 905.4 204.4C907.8 203.7 908.6 205.2 908.5 207.1Z" fill="#FDC88E"/>
<path d="M893.2 238.799C892.6 238.699 892.1 238.699 891.7 238.699C891.2 238.799 890.8 238.899 890.3 239.099C888.8 239.699 887.2 240.699 885.4 240.699C886.1 239.799 886.7 238.899 887.2 237.899C884.7 238.999 881.9 239.499 879.3 239.999C882.6 237.599 888 233.499 887.8 229.099C886.3 229.499 884.8 230.199 883.2 230.799C885.6 229.099 886.2 226.699 888 224.699C886.3 226.199 882.8 227.099 880.6 227.099C885.7 224.499 888.1 218.599 891.1 213.699C891.4 213.699 891.7 213.799 892 213.799C894.2 218.699 900.4 222.499 905.2 224.299C902.4 224.099 898.9 224.299 896.5 224.499C899.1 227.499 901.7 229.499 905.2 231.699C902.6 230.799 899.6 230.399 896.9 230.399C898 234.799 903.6 237.599 907.5 238.899C903.9 238.499 900.3 237.399 896.7 237.399C896.4 237.399 896.1 237.399 895.8 237.399C896 238.699 897.3 239.599 898.6 239.799C896.9 239.999 894.9 239.199 893.2 238.799Z" fill="#FDCB94"/>
<path d="M903.1 215.699C903.1 215.799 903.1 215.899 903.1 215.999C902.6 215.799 902.1 215.599 901.5 215.399C902.1 215.499 902.6 215.599 903.1 215.699Z" fill="#E7A45A"/>
<path d="M901.5 215.4C899.4 215 897.3 214.6 895.2 214.3C894.1 214.1 893 214 891.9 213.9C891.8 213.6 891.6 213.3 891.5 213C891.3 213.3 891.1 213.6 891 213.8C886.8 213.3 882.5 213.2 878.3 213.5V201L901.6 199.8L901.7 202.4C899 202.6 895.9 204.2 896.8 207.7C893.7 207.5 896.5 212.3 898.1 212.9C899.1 213.2 900.3 213.1 901.5 213.1C901.5 213.9 901.5 214.7 901.5 215.4Z" fill="#FBB161"/>
<path d="M893.2 238.799C893.3 240.299 893.5 241.799 893.3 243.399C893 243.399 892.6 243.399 892.3 243.499C891.7 243.599 891 243.699 890.3 243.699C890.3 242.299 890.2 240.399 890.2 239.099C890.7 238.899 891.1 238.799 891.6 238.699C892.1 238.699 892.6 238.699 893.2 238.799Z" fill="#FDC88E"/>
<path d="M891.9 213.9C891.6 213.9 891.3 213.8 891 213.8C891.2 213.5 891.3 213.2 891.5 213C891.7 213.3 891.8 213.6 891.9 213.9Z" fill="#FBB161"/>
<path d="M890.2 239.1C890.2 240.4 890.2 242.3 890.3 243.7C886.6 244 881.8 244.1 878.3 245.2V213.5C882.5 213.2 886.8 213.3 891 213.8C888 218.7 885.6 224.6 880.5 227.2C882.7 227.2 886.1 226.3 887.9 224.8C886.2 226.8 885.5 229.1 883.1 230.9C884.6 230.2 886.1 229.6 887.7 229.2C887.9 233.6 882.5 237.7 879.2 240.1C881.8 239.6 884.5 239.1 887.1 238C886.6 239 886 239.9 885.3 240.8C887.1 240.7 888.7 239.7 890.2 239.1Z" fill="#E7A45A"/>
<path d="M878.3 245.199V250.799H876.6V245.899C877.1 245.699 877.7 245.399 878.3 245.199Z" fill="#A77840"/>
<path d="M878.3 213.5V245.2C877.7 245.4 877.1 245.6 876.6 245.9V213.7C877.2 213.6 877.7 213.6 878.3 213.5Z" fill="#A77840"/>
<path d="M871.1 150.099V173.499L752.8 186.099L751.3 185.099L869.4 172.499V149.899C870 149.899 870.6 149.999 871.1 150.099Z" fill="#A77840"/>
<path d="M871.1 100.7V150.1C870.5 150 870 150 869.4 149.9V99.7998L871.1 100.7Z" fill="#A77840"/>
<path d="M869.7 257.899H869.4V257.699L869.7 257.899Z" fill="#C49A6C"/>
<path d="M869.4 149.899V172.499L751.3 185.099L751.2 184.999L751.8 162.299C754.1 161.199 756.5 160.399 759 159.699V175.599L760.7 175.399V176.499L862.4 166.399V149.199C864.7 149.399 867.1 149.599 869.4 149.899Z" fill="#C49A6C"/>
<path d="M869.4 99.7998V149.9C867 149.6 864.7 149.4 862.3 149.3V109.2L860.6 109.5V108.3L758.9 124.4V159.7C756.4 160.4 754 161.2 751.7 162.3L752.7 119.5L869.4 99.7998Z" fill="#C49A6C"/>
<path d="M751.8 162.299L751.2 184.999L751.3 185.099H751.1V118.599L869.4 99.6992V99.7992L752.8 119.599L751.8 162.299Z" fill="#C49A6C"/>
<path d="M862.3 149.299V166.499L760.6 176.599V175.499L860.6 165.599V149.199C861.2 149.199 861.8 149.199 862.3 149.299Z" fill="#C49A6C"/>
<path d="M862.3 109.1V149.2C861.7 149.2 861.2 149.1 860.6 149.1V109.3L862.3 109.1Z" fill="#C49A6C"/>
<path d="M860.6 149.2V165.6L760.6 175.5V159.3C762.9 158.7 765.3 158.2 767.6 157.8V163.2L775.7 161.6V156C776.5 155.8 777.4 155.6 778.2 155.5V164.5L786.3 162.9V154C792.9 152.9 799.5 152 806.2 151.3C809.4 151 812.7 150.8 815.9 150.5V155.1L819.9 154.3V157.2L831.1 155V149.5C832.1 149.4 833.1 149.4 834.1 149.4V154L845.3 152V149C850.4 148.8 855.5 148.9 860.6 149.2Z" fill="#F9B08D"/>
<path d="M860.6 109.399V149.199C855.5 148.899 850.4 148.799 845.3 148.899V123.299L834.1 125.299V149.199C833.1 149.199 832.1 149.299 831.1 149.299V122.299L819.9 124.499V130.499L815.9 131.299V150.299C812.7 150.499 809.4 150.799 806.2 151.099C799.5 151.699 792.9 152.599 786.3 153.799V139.099L778.2 140.699V155.299C777.4 155.499 776.5 155.699 775.7 155.799V137.799L767.6 139.399V157.599C765.3 158.099 762.9 158.599 760.6 159.099V125.099L860.6 109.399Z" fill="#FDD2BA"/>
<path d="M860.6 108.199V109.399L760.6 125.299V159.299C760 159.399 759.5 159.599 758.9 159.799V124.399L860.6 108.199Z" fill="#A77840"/>
<path d="M845.3 148.899V151.899L834.1 153.899V149.299C837.9 148.999 841.6 148.899 845.3 148.899Z" fill="#F9B08D"/>
<path d="M845.3 123.3V148.9C841.6 148.9 837.8 149.1 834.1 149.3V125.4L845.3 123.3Z" fill="#FFF4EE"/>
<path d="M835.8 197.399V258.899L726.4 260.899L725.2 259.899L834.2 257.899V196.399L835.8 197.399Z" fill="#A77840"/>
<path d="M730.9 244.799V253.499H732.6V254.499L748.1 254.299L820.9 253.299L829.7 253.199V202.999L828 203.099V201.999L730.9 208.099V244.799V244.799ZM834.2 196.399V257.899L725.2 259.899L724.8 259.599L726.5 204.999L834.1 196.399H834.2V196.399Z" fill="#C49A6C"/>
<path d="M834 196.399L726.4 204.999L724.7 259.599V203.999L834 196.399Z" fill="#C49A6C"/>
<path d="M831.1 149.399V154.899L819.9 157.099V154.199L823.9 153.399V149.799C826.4 149.599 828.8 149.499 831.1 149.399Z" fill="#F9B08D"/>
<path d="M831.1 122.3V149.3C828.7 149.4 826.4 149.6 824 149.8V129.8L820 130.6V124.6L831.1 122.3Z" fill="#FDE3D7"/>
<path d="M828.1 236.6V203.1L829.8 203V253.2L821 253.3V253.2C818.2 253.2 815.5 252.9 812.9 252.4L828.1 252.2V236.6V236.6Z" fill="#C49A6C"/>
<path d="M828.1 236.599V252.199L812.9 252.399C811.8 252.199 810.6 251.899 809.6 251.599C805.5 250.099 797.2 249.199 794.8 245.299C790.2 246.799 786.5 250.299 781.3 249.199C778.7 248.499 776.3 246.999 773.9 246.199C769.3 247.499 765.4 250.999 760.6 252.299C758.9 252.699 757.2 252.999 755.5 253.299L732.6 253.599V245.699C737 247.199 746.4 245.499 747.3 242.399C747.8 240.799 745.2 240.499 742.5 240.099V239.999C742.3 231.499 752.4 237.599 757.6 240.199C758.6 241.999 759.7 243.399 762.2 243.699C765.7 244.099 770.5 242.599 773.3 240.899C776.6 238.699 779.6 234.999 776.3 231.099C774.6 228.699 770.4 228.899 767.6 228.499C767.6 228.599 767.7 228.599 767.7 228.699C766.4 228.499 765.7 227.299 766.1 225.899C766.8 222.899 772.2 223.099 774.6 223.299C779.2 224.099 782.7 227.099 786.9 228.699C788.7 230.999 790.5 233.499 792.4 235.499C796.5 239.799 805.2 242.399 810.9 238.999C816.9 235.299 808.1 228.299 804.1 230.899C803.4 229.499 809.2 228.399 810.7 228.599C813.6 229.099 815.8 230.099 818.5 230.799C818.8 231.099 819.1 231.399 819.4 231.699C821.5 233.799 825 236.699 828.1 236.599Z" fill="#95AAD8"/>
<path d="M818.5 230.7C817.2 229.5 816 228.3 814.7 227.4C815.8 227 816.4 225.2 816.9 224.3C815.1 223.5 813.1 222.8 811.2 222.1L811.9 220C813.1 220.4 814.3 220.7 815.4 220.9C813.4 219.8 812.6 216.8 812.6 214.7C812.7 211.3 814.2 209.3 816.9 207.4C816.3 207.3 815.6 207.2 815 207.3L814.8 203.9L828 203.1V236.6C824.9 236.7 821.4 233.7 819.4 231.5C819.1 231.3 818.8 231 818.5 230.7Z" fill="#ACBCE1"/>
<path d="M828.1 202V203.1L814.9 203.9L732.7 209.1V245.7C732 245.5 731.4 245.2 731 244.8V208.1L828.1 202Z" fill="#A77840"/>
<path d="M824 149.8V153.4L820 154.2V150.1C821.3 150 822.7 149.9 824 149.8Z" fill="#F9B08D"/>
<path d="M824 129.8V149.8C822.7 149.9 821.3 150 820 150.1V130.6L824 129.8Z" fill="#FFF4EE"/>
<path d="M820.9 253.2L748.1 254.2C750.5 253.8 753 253.5 755.5 253.1L812.8 252.3C815.4 253 818.2 253.2 820.9 253.2Z" fill="#C49A6C"/>
<path d="M820 150.1V154.2L816 155V150.4C817.3 150.3 818.6 150.2 820 150.1Z" fill="#F9B08D"/>
<path d="M820 130.6V150.1C818.7 150.2 817.3 150.3 816 150.4V131.4L820 130.6Z" fill="#FFF4EE"/>
<path d="M814.8 227.399C816.1 228.299 817.3 229.499 818.6 230.699C816 230.099 813.7 228.999 810.8 228.499C809.3 228.299 803.5 229.399 804.2 230.799C804.1 230.799 804.1 230.899 804.1 230.899C804.2 230.899 804.3 230.899 804.3 230.899C805.7 231.199 806.4 232.199 805.6 233.699C803 234.799 798.8 235.099 797.6 231.999C795.9 227.599 803.4 225.799 807.1 225.299C807.6 225.299 808 225.199 808.5 225.199C811 225.299 813 226.099 814.8 227.399Z" fill="#CED7ED"/>
<path d="M808.4 225.2C808 225.2 807.7 225.2 807.3 225.2C807.2 225.2 807.1 225.2 807 225.2C805.2 225.3 803.4 225.2 801.8 224.4C799.4 223.3 798.4 220.8 797 218.8L797.1 218.5C801.7 219.4 806.6 220.5 811.3 222.1C813.3 222.7 815.2 223.5 817 224.3C816.5 225.3 815.9 227 814.8 227.4C813 226.1 811 225.3 808.4 225.2Z" fill="#EBDFE2"/>
<path d="M815 207.3C815.7 207.3 816.3 207.3 816.9 207.4C814.2 209.2 812.7 211.3 812.6 214.7C812.6 216.8 813.4 219.8 815.4 220.9C814.2 220.7 813 220.4 811.9 220C809.1 219.1 806.5 217.9 804 217V216.9C804.3 212.2 810.1 207.6 815 207.3Z" fill="#EBDFE2"/>
<path d="M805.6 233.7C806.4 232.3 805.7 231.2 804.3 230.9L804.2 230.8C808.2 228.2 817 235.3 811 238.9C805.3 242.4 796.7 239.8 792.5 235.4C790.5 233.3 788.8 230.9 787 228.6C783.7 224.3 780.1 220.3 774.3 219.6C768.7 218.9 760.6 219.8 758 225.7C756 230 758.2 234.4 762.8 235C768.1 235.6 770.3 232.9 767.9 228.7C767.9 228.6 767.8 228.6 767.8 228.5C770.6 228.9 774.7 228.7 776.5 231.1C779.8 235 776.7 238.7 773.5 240.9C770.7 242.6 765.9 244.2 762.4 243.7C759.9 243.4 758.8 242 757.8 240.2C757.3 239.3 756.8 238.3 756.1 237.4C752.4 232.6 744.6 228.9 739.4 234.1C734.8 238.8 738.8 239.5 742.6 240C745.3 240.4 747.9 240.7 747.4 242.3C746.5 245.3 737.1 247.1 732.7 245.6V209L814.9 203.8L815.1 207.2C810.2 207.5 804.4 212.1 804.1 216.9V217C806.6 217.9 809.3 219.1 812 220L811.3 222.1C806.6 220.6 801.7 219.5 797.1 218.5L797 218.8C798.4 220.9 799.4 223.4 801.8 224.4C803.4 225.2 805.2 225.3 807 225.2C803.4 225.7 795.9 227.5 797.5 231.9C798.8 235.1 802.9 234.9 805.6 233.7Z" fill="#ACBCE1"/>
<path d="M812.8 252.399L755.5 253.199C757.2 252.999 758.9 252.699 760.6 252.199C765.4 250.899 769.3 247.399 773.9 246.099C776.3 246.999 778.7 248.499 781.3 249.099C786.5 250.199 790.2 246.699 794.8 245.199C797.2 249.099 805.4 249.999 809.6 251.499C810.6 251.899 811.7 252.199 812.8 252.399Z" fill="#CED7ED"/>
<path d="M807.3 225.3C807.7 225.3 808 225.3 808.4 225.3C807.9 225.3 807.5 225.4 807 225.4C807.1 225.3 807.2 225.3 807.3 225.3Z" fill="#ACBCE1"/>
<path d="M804.2 230.8L804.3 230.9C804.2 230.9 804.2 230.9 804.1 230.9C804.1 230.9 804.1 230.9 804.2 230.8Z" fill="#ACBCE1"/>
<path d="M786.4 153.8V162.7L778.3 164.3V155.3C781 154.8 783.7 154.3 786.4 153.8Z" fill="#F9B08D"/>
<path d="M786.4 139.1V153.8C783.7 154.3 781 154.8 778.3 155.4V140.8L786.4 139.1Z" fill="#FFF4EE"/>
<path d="M774.3 219.6C780.1 220.3 783.7 224.3 787 228.6C782.8 227 779.3 224 774.7 223.2C772.3 223 766.9 222.8 766.2 225.8C765.8 227.2 766.5 228.4 767.8 228.6C770.2 232.9 768 235.6 762.7 234.9C758.1 234.2 756 229.9 757.9 225.6C760.6 219.8 768.6 219 774.3 219.6Z" fill="#CED7ED"/>
<path d="M775.8 155.899V161.499L767.7 163.099V157.699C769.4 157.299 771.1 156.999 772.8 156.599C773.8 156.399 774.8 156.099 775.8 155.899Z" fill="#F9B08D"/>
<path d="M775.8 138V156C774.8 156.2 773.8 156.4 772.8 156.7C771.1 157.1 769.4 157.5 767.7 157.8V139.6L775.8 138Z" fill="#FDE3D7"/>
<path d="M760.6 159.3V175.5L758.9 175.7V159.7C759.5 159.6 760.1 159.4 760.6 159.3Z" fill="#A77840"/>
<path d="M756 237.399C756.7 238.299 757.2 239.299 757.7 240.199C752.4 237.599 742.4 231.499 742.6 239.999V240.099C738.8 239.599 734.8 238.899 739.4 234.199C744.5 228.999 752.3 232.699 756 237.399Z" fill="#CED7ED"/>
<path d="M732.6 253.499L755.5 253.199C753 253.599 750.5 253.899 748.1 254.299L732.6 254.499V253.499Z" fill="#C49A6C"/>
<path d="M732.6 245.699V253.399H730.9V244.699C731.3 245.199 731.9 245.499 732.6 245.699Z" fill="#A77840"/>
<path d="M725.2 259.9L724.7 260V259.6L725.2 259.9Z" fill="#C49A6C"/>
<path d="M674.3 368C674.1 360.4 760 366.9 800.6 369.8C877.5 375.2 950.1 373.5 1019.6 389.2C1035.5 392.8 1051.2 418.6 1042.4 438.4C1042.4 438.4 1074.3 444.3 1074.7 445.8C1078 459.1 1094 535.5 1097.1 551.4L1062.5 546.2C1062.5 546.2 1024.6 541.699 1006.9 536.799C963.7 524.999 921.4 509.699 879.6 493.799C838.1 477.999 796.9 461.3 756.8 442.3C735 432 712.6 421.4 693.4 406.7C688.6 403 684 399 679.6 394.9L674.3 368Z" fill="#9BC0C4"/>
<path d="M1062.6 503.1L1063.4 551.5C1057.7 554.8 1015.7 593.1 993.6 612.5C995.6 596.5 1006.1 576 1012.4 562.7C1025.3 536.8 1043 521 1062.6 503.1Z" fill="#A89775"/>
<path d="M1061.7 451.199L1062.6 502.999C1043.1 520.999 1025.4 536.699 1012.5 562.599C1006.2 575.999 995.7 596.399 993.7 612.399C987.2 618.099 982.5 622.199 980.9 623.299C980.6 607.899 978.2 538.999 981.2 507.099C981.9 499.599 982.9 494.199 984.3 491.899C984.5 491.599 984.7 491.299 984.9 491.099C992.8 484.099 1061.7 451.199 1061.7 451.199Z" fill="#AF9F7F"/>
<path d="M1002.7 393.799C1004.7 396.599 995.9 432.199 990.2 456.199C975.9 461.199 960.7 467.499 949.6 473.299C943 471.899 935.8 470.599 928.2 469.299C949 448.799 920.3 429.699 900.4 419.299C874.4 405.499 824 393.199 792 399.499C795.3 392.799 799.2 386.999 803.9 383.099C806.1 381.199 808.6 379.799 811.1 378.799C826.5 373.099 979 389.099 1002.3 393.599C1002.4 393.699 1002.5 393.699 1002.7 393.799Z" fill="#D9D1C0"/>
<path d="M1002.5 393.7C1002.6 393.7 1002.7 393.8 1002.7 393.9C1002.5 393.8 1002.4 393.7 1002.2 393.7C1002.3 393.6 1002.4 393.6 1002.5 393.7Z" fill="#D9D1C0"/>
<path d="M1024.8 446.299C1018.5 447.299 1008.3 450.099 997 453.899L996.8 453.199C1003.2 439.699 1015.9 428.599 1029.8 420.199C1031.2 428.899 1026.4 436.899 1024.8 446.299Z" fill="#A89775"/>
<path d="M990.2 456.2C995.9 432.2 1004.7 396.5 1002.7 393.8C1013.9 398.7 1023.5 406.8 1027.1 413C1028.5 415.5 1029.3 417.8 1029.7 420.1C1015.8 428.5 1003.1 439.6 996.7 453.1L996.9 453.8C994.8 454.7 992.5 455.4 990.2 456.2Z" fill="#AF9F7F"/>
<path d="M936 482L984.1 491.9C982.7 494.2 981.7 499.6 981 507.1L929.9 497.8C931.1 490.7 932.8 485.4 935.2 482.7C935.5 482.5 935.8 482.3 936 482Z" fill="#E0D9CA"/>
<path d="M1061.7 451.2C1061.7 451.2 992.8 484 984.7 491.2C984.5 491.4 984.3 491.6 984.1 492L936 482.1C938.9 479.5 943.6 476.5 949.5 473.4C960.6 467.6 975.8 461.4 990.1 456.3C992.4 455.5 994.7 454.7 996.9 454C1008.2 450.2 1018.4 447.4 1024.7 446.4C1026.7 446.1 1028.4 445.9 1029.5 446L1061.7 451.2Z" fill="#D7CFBC"/>
<path d="M928.8 574.7C928.3 564.9 927.9 554.1 927.8 543.4C927.6 531.7 927.8 520.2 928.5 510.3C928.8 505.8 929.3 501.6 929.9 497.8L981 507.1C978 539.1 980.4 607.9 980.7 623.3C967.1 623 942.6 619.6 930.4 609.3C930.4 607.7 930.3 605.6 930.2 603.2C929.9 596.3 929.3 586.2 928.8 574.7Z" fill="#E7E1D6"/>
<path d="M928.8 574.699C929.3 586.099 929.9 596.299 930.3 603.299C926.7 602.999 923.2 601.899 920.1 600.799L920 601.199C909.2 597.999 812.5 575.499 722.4 554.399C722.4 552.999 722.3 551.599 722.3 550.199C722 538.899 722 526.299 721.9 514.899C755.3 523.499 788.9 534.999 821.3 545.399C856.2 557.199 894 562.599 928.8 574.699Z" fill="#C9BDA6"/>
<path d="M900.3 419.299C920.2 429.599 948.9 448.799 928.1 469.299C874.6 459.999 801.8 451.899 790.5 452.399C786 452.599 781.6 453.399 777.4 454.399C778.9 441.199 783.2 417.099 791.9 399.499C823.9 393.099 874.3 405.399 900.3 419.299Z" fill="#CFC5AF"/>
<path d="M721.5 501C743.3 509.4 877.4 537.2 927.8 543.4C927.9 554.1 928.3 564.9 928.8 574.7C894 562.6 856.2 557.2 821.2 545.3C788.7 534.9 755.1 523.5 721.8 514.8C721.7 509.9 721.6 505.2 721.5 501Z" fill="#C2B59B"/>
<path d="M720 475.899C790.9 491.499 870.3 501.599 928.6 510.299C927.8 520.199 927.7 531.699 927.9 543.399C877.5 537.199 743.4 509.399 721.6 500.999C719.9 500.299 718.9 499.799 718.6 499.399C718.5 499.099 718.3 498.699 718.2 498.299C717.1 494.399 716.9 486.299 717.4 481.999C717.8 479.599 718.7 477.599 720 475.899Z" fill="#D9D1C0"/>
<path d="M770.7 437C774.5 415.6 783.7 380.5 795.5 376.8C799.4 378.1 802.6 380 803.8 383.1C799.1 387 795.2 392.8 791.9 399.5C783.2 417.1 778.9 441.2 777.4 454.4C775.7 454.8 774.1 455.3 772.4 455.8C771.5 455 770.3 454.3 768.9 453.5C768.5 452.4 769.1 445.9 770.7 437Z" fill="#AF9F7F"/>
<path d="M795.5 376.8C783.7 380.5 774.5 415.6 770.7 437C760.7 399.9 680.9 369.8 645.7 376.1C650.5 367.7 651.3 364.5 662.6 364.3C698.6 362.4 742.2 369.7 776.4 374C780.8 374.4 789.1 374.7 795.5 376.8Z" fill="#D9D1C0"/>
<path d="M790.5 452.399C801.9 451.899 874.7 459.899 928.1 469.299C935.7 470.599 942.9 471.999 949.5 473.299C943.6 476.399 938.8 479.399 936 481.999C935.8 482.199 935.5 482.499 935.3 482.699C932.9 485.399 931.1 490.799 930 497.799C929.4 501.499 928.9 505.699 928.6 510.299C870.3 501.599 790.9 491.499 720 475.899L720.1 475.799C725.7 468.699 737.8 467.199 747.7 463.899C756.2 461.499 764.1 458.199 772.4 455.699C774 455.199 775.7 454.699 777.4 454.299C781.6 453.299 785.9 452.599 790.5 452.399Z" fill="#BFB297"/>
<path d="M770.7 437C769.1 445.9 768.5 452.5 769 453.5C768.8 453.4 768.6 453.3 768.4 453.2C753.4 445.9 714.7 441.6 699.7 438.7C678.8 434.7 658 431.3 637.1 430.6C637 430.6 637 430.6 637 430.6C633.7 430.6 630.2 430.7 626.8 430.9C627 423.6 629.6 416.2 632.5 409.2C633.6 406.4 634.8 403.6 636 400.8C636.6 399.4 637.1 398 637.7 396.6C640.2 390.6 642.6 382.6 645.8 376.5C645.9 376.3 646 376.2 646.1 376C680.9 369.7 760.7 399.9 770.7 437Z" fill="#CFC5AF"/>
<path d="M768.3 453.1C749.2 460.1 728.1 464.1 711.3 475C671.4 470.6 568.3 453.6 555.1 448.7C555 448.7 554.9 448.6 554.8 448.6C565 440.9 583.1 437.5 596.7 434.8C606.4 432.3 616.7 431.2 626.5 430.8C630 430.6 633.4 430.6 636.7 430.5H636.8C657.8 431.2 678.6 434.6 699.4 438.6C714.6 441.5 753.3 445.8 768.3 453.1Z" fill="#BFB297"/>
<path d="M772.4 455.7C764.1 458.2 756.2 461.5 747.7 463.9C737.8 467.2 725.6 468.7 720.1 475.8C717.7 475.6 714.8 475.3 711.4 475C728.1 464.2 749.3 460.1 768.4 453.1C768.6 453.2 768.8 453.3 769 453.4C770.3 454.2 771.5 455 772.4 455.7Z" fill="#9F8D68"/>
<path d="M721.8 514.8C721.9 526.2 722 538.7 722.2 550.1C720.8 550.8 718.6 552 716.6 553C716.3 552.9 716.1 552.9 715.8 552.8C715.4 540.1 715 526.3 714.6 513.1C717 513.6 719.4 514.2 721.8 514.8Z" fill="#AF9F7F"/>
<path d="M714.2 498.5C715.8 498.5 717.1 498.4 718.2 498.3C718.3 498.7 718.4 499.1 718.6 499.4C718.8 499.8 719.9 500.4 721.6 501C721.7 505.3 721.8 509.9 721.9 514.8C719.5 514.2 717.1 513.6 714.7 513C714.6 508.1 714.4 503.3 714.3 498.7L714.2 498.5Z" fill="#9F8D68"/>
<path d="M714.6 512.999C715 526.299 715.4 540.099 715.8 552.699C667.2 541.299 621 530.499 591.3 523.299C596.4 513.599 604.2 503.399 616.1 500.899C639.6 494.799 673.5 503.499 696 508.699C702.2 510.099 708.4 511.499 714.6 512.999Z" fill="#C9BDA6"/>
<path d="M714.2 498.7C714.3 503.3 714.5 508.2 714.6 513C708.4 511.5 702.2 510.1 696.1 508.8C673.5 503.6 639.6 494.9 616.2 501C604.3 503.5 596.5 513.7 591.4 523.4C577.8 520.1 567.6 517.6 562.2 516.2C562.1 515.7 562 515.3 561.9 514.8C559.3 501.4 559.7 485.4 559.3 470.8C580.1 480.9 676.7 497 710.1 498.4C711.6 498.5 713 498.5 714.2 498.5V498.7Z" fill="#C2B59B"/>
<path d="M711.4 475C714.8 475.4 717.7 475.7 720.1 475.8L720 475.9C718.7 477.6 717.8 479.6 717.4 482C716.9 486.2 717.1 494.3 718.2 498.3C717.1 498.4 715.8 498.4 714.2 498.5C713 498.5 711.6 498.5 710.1 498.4V498.3C706.7 491.7 706.4 482.5 709.3 475.9L709.9 476.1C710.4 475.7 710.8 475.3 711.4 475Z" fill="#9F8D68"/>
<path d="M711.4 474.999C710.9 475.299 710.4 475.699 709.9 475.999L709.3 475.799C706.4 482.499 706.7 491.599 710.1 498.199V498.299C676.7 496.899 580.1 480.799 559.3 470.699C556.9 469.599 555.5 468.499 555.3 467.499C555.1 462.799 553.7 451.799 555.2 448.699C568.4 453.599 671.5 470.599 711.4 474.999Z" fill="#D9D1C0"/>
<path d="M606.8 413.3C583.6 417.2 552.5 423 546.1 426.5L521.5 422.2C524.8 419.5 531.2 417 539.3 414.8L539.6 415.8C555.2 412.2 588.8 407.5 606.8 413.3Z" fill="#D7CFBC"/>
<path d="M539.4 414.8C570 406.2 625.1 400.9 635.7 400.8C634.6 403.5 633.4 406.3 632.2 409.2C629.2 409.7 619.1 411.2 606.8 413.4C588.8 407.6 555.2 412.3 539.6 415.9L539.4 414.8Z" fill="#BFB297"/>
<path d="M606.8 413.3C619.1 411.2 629.2 409.6 632.2 409.1C629.3 416.2 626.8 423.5 626.5 430.8C616.7 431.2 606.3 432.3 596.7 434.8C583.1 437.5 565 440.8 554.8 448.6C554.9 448.6 555 448.7 555.1 448.7C553.5 451.9 555 462.9 555.2 467.5C555.5 468.5 556.9 469.5 559.2 470.7C559.6 485.2 559.2 501.3 561.8 514.7C556.8 517.3 550 518.7 545.5 522.2C545.5 522 545.5 521.8 545.5 521.5C545.4 518.2 545 512.4 544.7 505.4C543.6 484.9 542 453.2 543.1 437.1C543.5 431.8 544.2 428.2 545.3 427.2C545.5 427 545.8 426.8 546.2 426.6C552.5 423 583.6 417.3 606.8 413.3Z" fill="#A89775"/>
<path d="M521.5 422.3L546.1 426.6C545.7 426.8 545.4 427 545.2 427.2C544.1 428.3 543.4 431.9 543 437.1L517.3 431.8C517.8 428.7 518.5 426.3 519.3 424.7C519.8 423.8 520.6 423 521.5 422.3Z" fill="#E0D9CA"/>
<path d="M544.6 505.399C545 512.399 545.3 518.199 545.4 521.499C536.8 521.399 527.3 519.099 519.2 513.099C518.5 501.699 516.5 478.199 516.2 457.899C519.4 475.199 531.1 494.499 544.6 505.399Z" fill="#D7CFBC"/>
<path d="M516.3 457.899C516.1 447.699 516.4 438.299 517.4 431.699L543.1 436.999C541.9 453.199 543.5 484.799 544.7 505.299C531.1 494.499 519.4 475.199 516.3 457.899Z" fill="#E7E1D6"/>
<path d="M700.3 579.1L698.6 578.8L521.1 585.5L458.2 605.7L467 608L469.6 607.8L495.9 605.7L525.8 596.1L626.6 622L572.9 638.5L584.6 642.1L609.4 639.5C619.7 636.1 653.5 625.5 653.5 625.5L797.8 614.5L766.4 624.6L776.1 627.1L795.9 625.4L860.4 616.9L700.3 579.1Z" fill="#95B5BA"/>
<path d="M495.9 605.9L637.5 664.8L700.3 690.8L860.3 616.8L527.5 587.3L495.9 605.9Z" fill="#95B5BA"/>
<path d="M481.9 573.6V598.7L464.5 606.3V568.3L481.9 573.6Z" fill="#845823"/>
<path d="M785.1 578.8V612.7L783.7 616.8L768.6 612.2V585.8L785.1 578.8Z" fill="#845823"/>
<path d="M768.6 585.8L672.6 626.5C672.6 626.5 671.9 654.4 672 663.2L657.5 671.9L659.5 612.2L660 612.4L796.4 562V611L783.6 616.9L785 578.8L768.6 585.8Z" fill="#B48046"/>
<path d="M481.9 573.6L464.5 568.3V606.3L462.7 607L448.7 602.6V549.7L659.6 612.1L657.6 671.8L637.5 664.8L639.6 621.4L481.9 573.6Z" fill="#BC8D59"/>
<path d="M659.6 612.1L448.7 549.7L585.4 515.2L587.6 515.7L796.5 561.8L660.1 612.2L659.6 612.1Z" fill="#C49A6C"/>
<g opacity="0.3">
<g opacity="0.3">
<g opacity="0.3">
<path opacity="0.3" d="M572.6 517.7C612.9 535.6 658 555.6 658 555.6L734.9 584.6L660.1 612.2L614.8 599.6L607.9 596.5C607.9 596.5 539.7 565.7 484.4 540.8L572.6 517.7Z" fill="#FFF3CE"/>
</g>
</g>
</g>
<path d="M785.9 561.5C785.9 560.6 785.9 559.7 785.6 559C784.6 559.3 783.6 559.6 782.5 559.9C767.5 564 749.2 568.7 734.3 573.2C734.3 574.1 734.3 575.3 734.4 576.1C750.4 571.2 770.4 566.2 786 561.8L785.9 561.5Z" fill="#2F8AA1"/>
<path d="M733.4 564.399C748.4 559.799 767 555.099 782.1 550.899C783.1 550.599 784 550.399 785 550.099L785.2 549.999C785.2 548.999 785.1 548.099 784.9 547.199C769.4 551.599 749.3 556.599 733.4 561.499C733.3 562.399 733.3 563.599 733.4 564.399Z" fill="#2F8AA1"/>
<path d="M733.3 564.4C733.3 564.4 732.8 564.2 731.9 563.9L731.7 564.3C730 567 730.4 569.8 732.3 572.2L732.2 572.5C733.4 573 734.1 573.3 734.1 573.3H734.2C749.1 568.8 767.4 564.1 782.4 560C780.5 557.6 780.5 553.7 782.1 551.2V551C767 555.2 748.4 559.9 733.4 564.5C733.4 564.4 733.4 564.4 733.3 564.4Z" fill="#D0DCD7"/>
<path d="M737.6 554.4C737.6 555.2 737.6 556.3 737.7 557C750.1 553.2 765.3 549.3 778.2 545.8C780.2 545.3 782 544.8 783.8 544.3C783.7 543.6 783.5 542.5 783.3 541.8C782.6 542 781.9 542.2 781.1 542.4C778.5 543.1 775.7 543.9 772.9 544.7C761.2 547.8 748.4 551.1 737.6 554.4Z" fill="#AF5B54"/>
<path d="M736.8 546.499C736.7 546.499 736.7 546.499 736.8 546.499C736.7 546.499 736.3 546.299 735.5 545.999L735.3 546.399C734.9 547.099 734.6 547.899 734.4 548.699C734.1 550.299 734.4 552.099 735 553.599C736.5 554.199 737.4 554.599 737.4 554.599H737.5C748.3 551.299 761.2 547.899 772.8 544.799C775.6 543.999 778.4 543.299 781 542.499C779.3 540.399 779.3 536.899 780.7 534.599V534.399C773.3 536.499 764.9 538.699 756.6 540.899C749.8 542.599 743 544.599 736.8 546.499Z" fill="#D0DCD7"/>
<path d="M701.1 530C705.3 531.5 712.4 534.3 719.1 536.9C720.9 537.6 722.8 538.4 724.5 539C731.2 541.7 736.6 543.8 736.6 543.8H736.7C741.4 542.4 746.5 540.9 751.7 539.5C762.5 536.5 773.8 533.6 783.3 530.9C776.7 529.7 748.8 523 740.8 520.6C730 523.1 712.8 527.4 701.2 529.8C701.2 529.8 701.2 529.8 701.1 529.8C701.1 529.9 701.1 529.9 701.1 530Z" fill="#C7685E"/>
<path d="M736.7 543.799C736.7 544.599 736.7 545.699 736.8 546.399C743 544.499 749.8 542.599 756.8 540.699C765.1 538.399 773.5 536.199 780.9 534.199C781.8 533.899 782.7 533.699 783.5 533.499H783.6C783.6 532.499 783.5 531.699 783.4 530.899C773.9 533.599 762.6 536.499 751.8 539.499C746.5 540.999 741.4 542.399 736.7 543.799Z" fill="#AF5B54"/>
<path d="M734.3 573.2H734.2C734.2 573.2 733.5 572.9 732.3 572.4C726 569.9 705.4 561.6 695.7 558.1C695.7 558.1 695.6 558.1 695.5 558.1C695.5 558.1 695.5 558 695.4 558C695.2 557.8 695.1 557.6 695 557.3C694.9 557.5 694.9 557.7 694.9 557.8C694.9 557.9 694.9 558.1 694.9 558.2C694.9 559 695 559.9 695.4 560.7C695.6 560.8 695.7 560.9 695.9 560.9C707.3 565.1 734.3 576 734.3 576H734.4C734.3 575.3 734.3 574.1 734.3 573.2Z" fill="#266F82"/>
<path d="M734.4 548.699C734.5 547.899 734.8 547.099 735.3 546.399L735.5 545.999C733 544.999 727 542.599 720.5 539.999C718.7 539.299 716.999 538.599 715.199 537.899C709.999 535.899 705 533.899 701.6 532.699C700.2 534.999 700.9 538.499 702.5 540.799C702.5 540.799 702.599 540.799 702.699 540.899C704.299 541.499 706.199 542.199 708.199 542.999C714.099 545.199 721.5 548.199 727.4 550.499C730.6 551.799 733.3 552.899 735.1 553.599C734.4 552.099 734.2 550.299 734.4 548.699Z" fill="#ABB5B1"/>
<path d="M732 563.9C732.9 564.2 733.4 564.4 733.4 564.4H733.5C733.4 563.5 733.4 562.4 733.4 561.5C733.3 561.5 733.3 561.5 733.3 561.5C733.3 561.5 724 557.8 714.1 553.8C706.7 550.9 698.9 547.8 694.2 546.1C694 547.1 694.2 548.1 694.6 549V549.1H694.7C698.4 550.5 704 552.6 709.7 554.9C718.8 558.6 728.5 562.5 732 563.9Z" fill="#266F82"/>
<path d="M731.8 564.299L732 563.899C728.5 562.499 718.8 558.599 709.6 554.999C703.8 552.799 698.3 550.599 694.6 549.199C693.2 551.499 693.7 554.899 695.2 557.399C695.3 557.699 695.5 557.899 695.6 558.099C695.7 558.099 695.7 558.199 695.8 558.199C705.4 561.699 726.1 569.999 732.4 572.499L732.5 572.199C730.5 569.799 730.1 566.999 731.8 564.299Z" fill="#ABB5B1"/>
<path d="M723.7 551.4C731.2 554.5 737.5 557.1 737.5 557.1H737.6C737.5 556.3 737.5 555.3 737.5 554.5C737.4 554.5 737.4 554.5 737.4 554.5C737.4 554.5 736.5 554.1 735 553.5C733.2 552.8 730.5 551.7 727.3 550.4C721.4 548.1 714 545.1 708.1 542.9C706 542.1 704.1 541.4 702.6 540.8H702.5C702.3 541.7 702 542 702.2 542.8C702.9 543.1 703.7 543.4 704.6 543.7C709.8 545.7 717.2 548.7 723.7 551.4Z" fill="#9B4745"/>
<path d="M713.9 553.9C723.9 557.9 733.2 561.6 733.2 561.6H733.3C749.3 556.7 769.3 551.7 784.8 547.3C783.4 547 781 546.5 778.1 545.9C765.2 549.4 750 553.3 737.6 557.1H737.5C737.5 557.1 731.2 554.5 723.7 551.4C717.2 548.7 709.8 545.7 704.6 543.8C700.8 544.7 697.2 545.5 694 546.1C694 546.2 694 546.2 694 546.2C698.7 547.9 706.5 550.9 713.9 553.9Z" fill="#4EB2CF"/>
<path d="M715.2 537.9C717 538.6 718.8 539.3 720.5 540C727 542.6 733 544.9 735.5 546C736.3 546.3 736.7 546.5 736.7 546.5H736.8C736.7 545.7 736.7 544.7 736.7 543.9H736.6C736.6 543.9 731.3 541.8 724.5 539.1C722.8 538.4 721 537.7 719.1 537C712.4 534.4 705.3 531.6 701.1 530.1C700.9 531 701.1 531.9 701.5 532.7H701.6C705 533.9 710 535.9 715.2 537.9Z" fill="#9B4745"/>
<path d="M702.5 540.9C702.5 540.8 702.5 540.8 702.5 540.9C700.9 538.5 700.1 535 701.5 532.7H701.4C701 531.9 700.9 530.9 701 530.1V530C700.9 530 700.8 530 700.7 530.1H700.8C697.5 532.4 697.9 538.1 700.3 541.4C700.7 542 701.1 542.4 701.6 542.8C701.8 543 702 543.1 702.1 543.2C702 543.1 702 543 702 542.9C702 542.1 702.3 541.7 702.5 540.9Z" fill="#844141"/>
<path d="M695 557.999C695 557.799 695 557.599 695.1 557.499C693.7 554.999 693.1 551.599 694.5 549.299H694.4V549.199C694 548.299 693.8 547.199 694 546.299C694 546.199 694 546.199 694 546.199C693.9 546.199 693.8 546.199 693.8 546.299C693.7 546.299 693.7 546.199 693.6 546.199C693.5 546.199 693.4 546.299 693.4 546.299C690.1 548.899 690.8 555.099 693.3 558.799C693.9 559.699 694.6 560.399 695.4 560.899C695 560.099 694.9 559.299 694.9 558.399C694.9 558.199 695 558.099 695 557.999Z" fill="#194854"/>
<path d="M752.1 106.1C746.3 115.1 736.3 121 724.8 121C706.9 121 692.3 106.5 692.3 88.5002C692.3 81.9002 694.2 75.8002 697.6 70.7002C697.6 82.9002 706.2 97.5002 714 102.2C723.4 108.2 740.2 110.8 752.1 106.1Z" fill="white"/>
<path d="M697.6 70.7996C703.2 62.1996 712.8 56.4996 723.7 56.0996C724 56.0996 724.4 56.0996 724.7 56.0996C725.1 56.0996 725.4 56.0996 725.7 56.0996C743.2 56.5996 757.1 70.9996 757.1 88.4996C757.1 94.9996 755.2 101 751.9 106.1C740.1 110.8 723.2 108.1 713.8 102.3C706.2 97.5996 697.6 82.9996 697.6 70.7996Z" fill="#DCE5E4"/>
<path d="M724.7 56.1C724.3 56.1 724 56.1 723.7 56.1V0H725.8V56.1C725.4 56.1 725.1 56.1 724.7 56.1Z" fill="#A3CFCB"/>
<path d="M700.3 172.5C694.1 187.5 679.3 198 662.2 198C639.4 198 620.9 179.5 620.9 156.7C620.9 140.7 630 126.8 643.4 119.9C633.3 132.4 631.1 146.7 640.3 162.2C650.4 179.1 671.9 186.3 690.5 178.8C694.1 177.4 697.4 175.2 700.3 172.5Z" fill="white"/>
<path d="M663.5 115.4C685.7 116.1 703.5 134.3 703.5 156.7C703.5 162.3 702.4 167.6 700.4 172.5C697.5 175.2 694.1 177.5 690.6 178.9C672 186.4 650.5 179.2 640.4 162.3C631.2 146.8 633.4 132.5 643.5 120C648.8 117.3 654.7 115.7 661 115.5C661.4 115.5 661.9 115.5 662.3 115.5C662.6 115.4 663.1 115.4 663.5 115.4Z" fill="#DCE5E4"/>
<path d="M663.5 0V115.5C663.1 115.5 662.6 115.5 662.2 115.5C661.8 115.5 661.3 115.5 660.9 115.5V0H663.5Z" fill="#A3CFCB"/>
<path d="M640.9 90.5004C636 99.2004 626.6 105.1 615.9 105.1C600.1 105.1 587.2 92.2004 587.2 76.4004C587.2 66.0004 592.7 57.0004 600.9 51.9004C594.8 63.8004 596.8 79.9004 608.3 88.2004C619.1 95.9004 630.3 96.1004 640.9 90.5004Z" fill="white"/>
<path d="M616.8 47.7002C632.2 48.2002 644.6 60.8002 644.6 76.4002C644.6 81.5002 643.3 86.3002 640.9 90.5002C630.3 96.1002 619.2 95.9002 608.3 88.2002C596.8 79.9002 594.8 63.9002 600.9 51.9002C605 49.4002 609.8 47.9002 615 47.7002C615.3 47.7002 615.6 47.7002 615.9 47.7002C616.2 47.7002 616.5 47.7002 616.8 47.7002Z" fill="#DCE5E4"/>
<path d="M615.9 47.7C615.6 47.7 615.3 47.7 615 47.7V0H616.8V47.7C616.5 47.7 616.2 47.7 615.9 47.7Z" fill="#A3CFCB"/>
</svg>
