<svg width="760" height="303" viewBox="0 0 760 303" fill="none" xmlns="http://www.w3.org/2000/svg">
<path d="M315.521 152.405H337.521C337.821 158.805 339.021 163.605 341.421 166.605C343.721 169.605 347.221 171.205 351.721 171.205C356.221 171.205 359.621 169.805 361.721 167.005C363.821 164.205 364.82 159.805 364.82 153.705C364.82 148.605 363.62 144.605 361.32 141.705C359.02 138.705 355.021 136.005 349.421 133.405L340.521 129.405C332.021 125.605 325.921 120.905 322.221 115.405C318.521 109.805 316.621 102.405 316.621 93.0051C316.621 82.0051 319.821 73.2051 326.221 66.6051C332.621 60.0051 341.221 56.7051 352.121 56.7051C362.821 56.7051 371.221 60.0051 377.021 66.5051C382.921 73.0051 386.021 82.4051 386.421 94.7051H365.021C364.921 88.8051 363.821 84.3051 361.921 81.3051C359.921 78.3051 356.721 76.8051 352.121 76.8051C343.621 76.8051 339.421 81.8051 339.421 91.8051C339.421 96.4051 340.421 100.005 342.521 102.705C344.621 105.405 348.121 107.905 353.021 110.005L361.521 113.805C370.621 117.805 377.22 122.905 381.32 129.005C385.42 135.105 387.521 143.205 387.521 153.305C387.521 165.405 384.321 174.805 378.021 181.405C371.721 188.005 362.721 191.305 351.121 191.305C339.621 191.305 330.821 187.905 324.721 181.205C318.821 174.505 315.721 164.905 315.521 152.405Z" fill="white"/>
<path d="M439.421 79.9053V189.705H416.32V79.9053H393.521V58.9053H462.021V79.9053H439.421Z" fill="white"/>
<path d="M475.32 174.205C472.22 168.805 470.72 162.505 470.72 155.405V58.9053H494.02V154.905C494.02 160.205 495.02 164.105 497.02 166.605C499.02 169.105 502.12 170.305 506.32 170.305C514.52 170.305 518.62 165.205 518.62 154.905V58.9053H542.02V155.405C542.02 162.505 540.52 168.705 537.42 174.205C534.32 179.705 530.12 183.805 524.72 186.805C519.32 189.805 513.12 191.305 506.32 191.305C499.52 191.305 493.42 189.805 488.02 186.805C482.62 183.805 478.42 179.605 475.32 174.205Z" fill="white"/>
<path d="M594.12 58.9053C605.12 58.9053 613.92 62.1053 620.62 68.4053C627.32 74.7053 630.62 84.1053 630.62 96.5053V152.305C630.62 164.605 627.121 173.905 620.221 180.305C613.221 186.705 604.22 189.905 593.12 189.905H558.021V58.9053H594.12ZM603.721 163.705C606.021 160.305 607.221 155.505 607.221 149.505V100.405C607.221 93.7053 606.12 88.6053 603.82 85.1053C601.52 81.6053 598.12 79.9053 593.62 79.9053H581.021V168.905H593.521C598.021 168.905 601.321 167.205 603.721 163.705Z" fill="white"/>
<path d="M669.62 58.9053V189.805H646.521V58.9053H669.62Z" fill="white"/>
<path d="M685.521 153.705V94.7053C685.521 82.3053 689.021 72.9053 695.921 66.5053C702.921 60.1053 712.021 56.9053 723.421 56.9053C734.421 56.9053 743.221 60.1053 749.921 66.5053C756.521 72.9053 759.921 82.3053 759.921 94.7053V153.705C759.921 165.805 756.421 175.105 749.421 181.605C742.421 188.005 733.321 191.305 722.221 191.305C710.921 191.305 702.021 188.105 695.521 181.705C688.821 175.305 685.521 166.005 685.521 153.705ZM736.521 151.005V98.5053C736.521 91.8053 735.42 86.7053 733.12 83.2053C730.82 79.7053 727.421 78.0053 722.921 78.0053C718.021 78.0053 714.421 79.7053 712.221 83.1053C710.021 86.5053 708.921 91.6053 708.921 98.5053V151.005C708.921 163.805 713.621 170.205 722.921 170.205C727.321 170.205 730.721 168.505 733.021 165.205C735.321 161.805 736.521 157.105 736.521 151.005Z" fill="white"/>
<path d="M323.021 240.805L320.421 247.705H313.121L327.821 211.905H333.421L348.121 247.705H340.821L338.221 240.805H323.021ZM330.621 220.605L325.221 235.205H336.121L330.621 220.605Z" fill="white"/>
<path d="M397.82 223.105C397.82 226.605 396.721 229.305 394.421 231.205C392.121 233.105 388.921 234.105 384.721 234.105H376.32V247.705H369.521V211.905H385.021C389.021 211.905 392.221 212.905 394.421 214.805C396.721 216.805 397.82 219.605 397.82 223.105ZM389.521 219.205C388.521 218.305 387.121 217.905 385.221 217.905H376.32V228.205H385.221C389.021 228.205 391.021 226.505 391.021 223.105C391.021 221.305 390.521 220.005 389.521 219.205Z" fill="white"/>
<path d="M424.821 240.805L422.221 247.705H414.921L429.621 211.905H435.221L449.921 247.705H442.621L440.021 240.805H424.821ZM432.321 220.605L426.921 235.205H437.821L432.321 220.605Z" fill="white"/>
<path d="M478.121 233.705V247.805H471.321V211.905H486.921C490.821 211.905 493.921 212.805 496.221 214.705C498.521 216.605 499.621 219.305 499.621 222.805C499.621 225.405 499.021 227.505 497.821 229.205C496.621 230.905 494.821 232.105 492.421 232.905L501.321 247.805H493.021L485.221 233.705H478.121ZM487.021 227.905C490.821 227.905 492.721 226.205 492.721 222.905C492.721 221.205 492.221 220.005 491.221 219.205C490.221 218.405 488.821 218.005 487.021 218.005H478.021V228.005H487.021V227.905Z" fill="white"/>
<path d="M538.721 217.905V247.805H531.921V217.905H521.221V211.905H549.521V217.805H538.721V217.905Z" fill="white"/>
<path d="M606.821 247.705H600.021V225.005L591.221 240.805H586.621L577.721 224.905V247.705H570.921V211.905H577.721L588.921 232.405L600.021 211.905H606.821V247.705Z" fill="white"/>
<path d="M637.921 226.705H654.021V232.605H637.921V241.805H656.721V247.705H631.121V211.905H656.721V217.805H637.921V226.705Z" fill="white"/>
<path d="M709.821 247.705H703.021L686.521 224.005V247.705H679.721V211.905H686.521L703.021 235.705V211.905H709.821V247.705Z" fill="white"/>
<path d="M748.921 217.905V247.805H742.121V217.905H731.421V211.905H759.721V217.805H748.921V217.905Z" fill="white"/>
<path d="M0.0207116 70.9052C0.320712 52.2052 -2.57929 56.7052 14.4207 49.6052C16.9207 48.5052 19.5207 47.6052 22.0207 46.6052C25.5207 45.2052 28.6207 45.6051 30.1207 49.3051C31.6207 53.0051 29.8207 55.5052 26.3207 57.0052C22.5207 58.5052 18.8207 60.2052 14.9207 61.5052C12.1207 62.4052 10.8207 63.9052 11.0207 67.0052C11.3207 71.9052 11.1207 76.9051 11.0207 81.8051C11.0207 85.5051 9.52071 88.2051 5.42071 88.2051C1.32071 88.1051 -0.0792884 85.5051 0.0207116 81.7051C0.120712 78.0051 0.0207116 74.5052 0.0207116 70.9052Z" fill="#636363"/>
<path d="M0.0205078 130.305C0.0205078 125.705 0.0205078 121.105 0.0205078 116.505C0.0205078 112.905 1.4205 110.505 5.2205 110.305C9.0205 110.105 11.0205 112.305 11.0205 115.905C11.1205 125.605 11.1205 135.405 11.0205 145.105C10.9205 148.405 9.12051 150.605 5.52051 150.605C1.72051 150.605 0.0205078 148.305 0.0205078 144.705C0.0205078 139.805 0.0205078 135.005 0.0205078 130.305Z" fill="#636363"/>
<path d="M84.5206 22.1055C87.9206 22.1055 89.9206 23.2055 90.6206 25.9055C91.3206 28.4055 90.9206 31.0055 88.4206 32.1055C79.0206 36.1055 69.6206 40.0055 60.0206 43.4055C57.2206 44.4055 54.7206 42.4055 53.8206 39.4055C52.8206 36.0055 54.7206 33.8055 57.6206 32.6055C64.8206 29.6055 72.1206 26.7055 79.3206 23.9055C81.3206 23.1055 83.3206 22.5055 84.5206 22.1055Z" fill="#636363"/>
<path d="M281.721 151.605C281.621 151.605 281.621 151.605 281.721 151.605C281.721 121.505 281.621 91.4052 281.821 61.3052C281.821 57.1052 280.521 54.7053 276.521 53.1053C232.521 35.8053 188.521 18.3052 144.521 0.905249C142.521 0.105249 140.621 -0.394751 138.621 0.405249C131.021 3.40525 123.321 6.40525 115.821 9.50525C112.521 10.9053 110.921 13.4052 112.321 16.9052C113.721 20.5052 116.721 20.9052 120.021 19.8052C123.721 18.5052 127.421 17.0052 130.921 15.4052C134.021 14.0052 135.321 14.1053 135.321 18.1053C135.221 62.0053 135.221 106.005 135.321 149.905C135.321 153.005 133.921 154.605 131.421 155.605C111.821 163.305 92.3207 170.805 72.7207 178.505C53.6207 186.005 34.6207 193.505 15.6207 201.205C12.2207 202.605 11.1207 202.005 11.3207 198.205C11.5207 193.305 11.3207 188.305 11.4207 183.305C11.4207 179.405 10.1207 176.205 5.7207 176.305C1.4207 176.405 0.220703 179.505 0.220703 183.405C0.320703 203.105 0.320703 222.705 0.220703 242.405C0.220703 246.305 1.92071 248.405 5.32071 249.705C49.3207 267.105 93.3207 284.505 137.321 301.905C140.021 303.005 142.421 302.905 145.221 301.805C188.721 284.505 232.221 267.205 275.721 250.105C280.221 248.305 282.021 246.005 282.021 241.005C281.621 211.405 281.721 181.505 281.721 151.605ZM25.0207 209.705C62.4207 194.805 99.9207 180.005 137.321 165.205C139.721 164.305 141.721 164.205 144.121 165.105C182.021 180.205 219.921 195.205 257.921 210.205C258.421 210.405 258.821 210.605 260.521 211.505C250.621 215.405 241.821 218.905 232.921 222.405C203.921 233.905 174.821 245.405 145.821 257.005C142.921 258.205 140.321 258.805 137.021 257.505C99.6207 242.505 62.1207 227.805 24.7207 212.905C23.9207 212.605 23.2207 212.205 22.5207 211.905C22.4207 209.705 24.1207 210.005 25.0207 209.705ZM231.321 151.005C231.321 161.805 231.221 172.505 231.421 183.305C231.521 186.905 230.621 187.305 227.421 185.905C214.821 180.705 202.121 175.705 189.321 170.905C186.321 169.805 185.621 168.105 185.621 165.205C185.721 144.005 185.721 122.805 185.621 101.605C185.621 97.2053 186.721 96.8053 190.521 98.4053C202.621 103.405 214.921 108.205 227.221 112.905C230.521 114.105 231.521 115.805 231.421 119.305C231.221 129.805 231.321 140.405 231.321 151.005ZM261.621 243.705C223.021 259.005 184.421 274.205 145.921 289.605C142.321 291.005 139.321 291.005 135.721 289.505C95.6207 273.505 55.4207 257.605 15.2207 241.805C12.3207 240.705 10.7207 239.405 11.0207 235.905C11.4207 232.205 11.4207 228.405 11.1207 224.605C10.8207 220.305 12.1207 219.705 16.0207 221.305C38.7207 230.405 61.4207 239.305 84.1207 248.305C101.421 255.105 118.821 261.905 136.021 268.905C139.421 270.305 142.421 270.205 145.821 268.905C185.221 253.205 224.621 237.705 263.921 222.105C270.521 219.505 270.521 219.505 270.521 226.705C270.521 227.905 270.521 229.105 270.521 230.305C270.621 240.105 270.621 240.205 261.621 243.705ZM270.621 198.705C270.621 202.305 269.621 202.805 266.521 201.505C259.921 198.705 253.221 196.005 246.521 193.605C243.421 192.505 242.521 190.705 242.621 187.505C242.721 163.005 242.621 138.605 242.821 114.105C242.821 108.905 241.121 106.105 236.121 104.205C218.921 97.7052 201.821 90.7053 184.621 83.9053C177.521 81.1053 174.621 83.1053 174.621 90.6053C174.621 113.705 174.521 136.805 174.721 159.905C174.721 164.405 173.621 164.605 169.821 163.105C163.221 160.405 156.721 157.205 149.721 155.705C146.421 155.005 146.721 152.505 146.721 150.105C146.721 128.205 146.721 106.305 146.721 84.4053C146.721 62.7052 146.821 41.0052 146.621 19.3052C146.521 14.3052 147.821 14.2052 151.921 15.9052C189.821 31.1052 227.721 46.1053 265.821 61.0053C269.421 62.4053 270.921 64.0053 270.921 67.9053C270.621 111.505 270.621 155.105 270.621 198.705Z" fill="#636363"/>
</svg>
