<svg width="332" height="260" viewBox="0 0 332 260" fill="none" xmlns="http://www.w3.org/2000/svg">
<path d="M127.3 0H314.4C324.1 0 332 7.89999 332 17.6V242.3C332 252 324.1 259.9 314.4 259.9H237C232.5 259.9 228.2 258.2 224.9 255.1L184 216.6C177.2 210.2 166.6 210.2 159.9 216.6L119 255.1C115.7 258.2 111.4 259.9 106.9 259.9H55.7002L119.4 200.1L119.6 199.9L159.7 162.2C167 156 177.8 156.2 184.8 162.8L224.8 200.5C228.1 203.6 232.4 205.3 236.9 205.3H259.6C269.3 205.3 277.2 197.4 277.2 187.7V72.3C277.2 62.6 269.3 54.7 259.6 54.7H173.9C170.7 54.7 167.6 53.5 165.3 51.3L122.7 11.4C118.5 7.40001 121.3 0 127.3 0Z" fill="#55CBD8"/>
<path d="M18.8002 259.9L77.0002 205.2H72.4002C62.8002 205.2 54.9002 197.4 54.9002 187.7V72.2C54.9002 62.6 62.7002 54.7 72.4002 54.7H113C119.6 54.7 122.9 46.6 118 42L78.5002 4.8C75.3002 1.7 71.0002 0 66.5002 0H17.7002C8.10019 0 0.200195 7.80002 0.200195 17.5V241.1C0.300195 251.4 8.6002 259.8 18.8002 259.9Z" fill="url(#paint0_linear_910_577)"/>
<defs>
<linearGradient id="paint0_linear_910_577" x1="52.5515" y1="138.496" x2="132.573" y2="221.455" gradientUnits="userSpaceOnUse">
<stop stop-color="#419AAC"/>
<stop offset="1" stop-color="#263F42"/>
</linearGradient>
</defs>
</svg>
