<svg width="557" height="125" viewBox="0 0 557 125" fill="none" xmlns="http://www.w3.org/2000/svg">
<path d="M134 124.799L118.1 114.899V124.799H112.1V97.6992H133.4C135.3 97.6992 136.9 97.7992 138.3 98.0992C139.7 98.2992 140.8 98.7992 141.6 99.3992C142.5 99.9992 143.1 100.799 143.5 101.899C143.9 102.999 144.1 104.299 144.1 105.899V107.799C144.1 109.399 143.9 110.699 143.5 111.699C143.1 112.699 142.4 113.499 141.5 114.099C140.6 114.699 139.5 115.099 138.1 115.399C136.7 115.599 135.1 115.799 133.3 115.799H128.5L144.4 124.999H134V124.799ZM138.1 106.099C138.1 105.399 138 104.799 137.9 104.299C137.7 103.799 137.5 103.499 137.1 103.299C136.7 103.099 136.2 102.899 135.5 102.799C134.8 102.699 134 102.699 133 102.699H118.2V110.999H133C134 110.999 134.8 110.999 135.4 110.899C136 110.799 136.6 110.699 137 110.399C137.4 110.199 137.7 109.799 137.8 109.399C138 108.899 138 108.399 138 107.599V106.099H138.1Z" fill="#55CBD8"/>
<path d="M177.4 124.8C175.4 124.8 173.8 124.6 172.4 124.3C171.1 124 170 123.4 169.2 122.7C168.4 122 167.8 121 167.5 119.8C167.2 118.6 167 117.2 167 115.4V106.9C167 105.2 167.2 103.8 167.5 102.6C167.8 101.4 168.4 100.4 169.2 99.6996C170 98.9996 171.1 98.3996 172.4 98.0996C173.7 97.7996 175.4 97.5996 177.4 97.5996H196.4V102.7H177.4C176.5 102.7 175.8 102.8 175.3 102.9C174.7 103 174.3 103.3 174 103.6C173.7 103.9 173.4 104.3 173.3 104.9C173.2 105.4 173.1 106.1 173.1 106.9V108.7H196.2V113.5H173.1V115.4C173.1 116.2 173.2 116.9 173.3 117.4C173.4 117.9 173.6 118.4 174 118.7C174.3 119 174.8 119.2 175.3 119.4C175.9 119.5 176.6 119.6 177.5 119.6H196.4V124.7H177.4V124.8Z" fill="#55CBD8"/>
<path d="M247.3 118.499H228.5L224.6 124.699H217.6L233.4 99.5994C233.9 98.7994 234.4 98.1995 235.1 97.6995C235.8 97.1995 236.7 96.8994 238 96.8994C239.2 96.8994 240.2 97.1995 240.8 97.6995C241.5 98.1995 242 98.7994 242.5 99.5994L258.2 124.699H251.2L247.3 118.499ZM231.3 113.899H244.4L237.8 103.199L231.3 113.899Z" fill="#55CBD8"/>
<path d="M289 124.8C287 124.8 285.4 124.6 284 124.3C282.7 124 281.6 123.4 280.8 122.7C280 122 279.4 121 279.1 119.8C278.8 118.6 278.6 117.2 278.6 115.4V97.5996H284.6V115.2C284.6 116 284.7 116.7 284.8 117.2C284.9 117.7 285.2 118.2 285.6 118.6C286 119 286.5 119.2 287.1 119.4C287.7 119.6 288.5 119.6 289.5 119.6H305.6V124.8H289V124.8Z" fill="#55CBD8"/>
<path d="M328.199 124.799V97.6992H334.199V124.799H328.199Z" fill="#55CBD8"/>
<path d="M368.2 124.799V102.899H356.8V97.6992H385.6V102.899H374.2V124.799H368.2Z" fill="#55CBD8"/>
<path d="M422 124.799V111.999L406.1 97.6992H414.3L425.2 107.399L436.3 97.6992H444L428 112.099V124.799H422Z" fill="#55CBD8"/>
<path d="M268 70.5992V44.7992V34.9992H276.8V23.2992H268V15.7992C268 14.0992 268.3 12.9992 269 12.3992C269.6 11.7992 270.9 11.4992 272.7 11.4992H287.2V1.19922H270.4C264.7 1.19922 260.5 2.19919 257.7 4.29919C254.9 6.39919 253.5 10.0992 253.5 15.3992V23.3992V70.7992H268V70.5992Z" fill="white"/>
<path d="M84.8 64.1996C83.9 66.0996 82.8 67.5996 81.4 68.7996C80 69.9996 78.2 70.5996 76 70.5996C73.6 70.5996 71.7 69.9996 70.2 68.8996C68.7 67.7996 67.5 66.1996 66.6 64.1996L52.4 20.8996L37.1 64.1996C36.2 66.0996 35 67.5996 33.4 68.7996C31.9 69.9996 29.9 70.5996 27.6 70.5996C25.2 70.5996 23.3 69.9996 21.9 68.7996C20.5 67.5996 19.4 66.0996 18.7 64.1996L0 0.599609H16.6L30.2 47.8996L43.6 6.59961C44.6 4.39961 45.7 2.7996 47 1.8996C48.3 0.999597 50.2 0.599609 52.6 0.599609C55 0.599609 56.9 0.999597 58.3 1.8996C59.7 2.7996 60.8 4.29961 61.7 6.59961L74.3 47.8996L88.5 0.599609H104.8L84.8 64.1996Z" fill="white"/>
<path d="M119.2 15.0992C117.4 15.0992 116.1 14.6992 115.4 13.9992C114.7 13.2992 114.3 12.1992 114.3 10.5992V4.99921C114.3 3.39921 114.7 2.29922 115.4 1.69922C116.1 0.999219 117.4 0.699219 119.2 0.699219H124C125.9 0.699219 127.2 0.999219 127.9 1.69922C128.6 2.39922 129 3.49921 129 4.99921V10.5992C129 12.1992 128.6 13.2992 127.9 13.9992C127.2 14.6992 125.8 15.0992 124 15.0992H119.2Z" fill="white"/>
<path d="M128.9 21.8994H114.2V70.5994H128.9V21.8994Z" fill="white"/>
<path d="M140.4 70.5996V40.1996C140.4 36.2996 140.9 32.8996 141.8 30.0996C142.7 27.2996 144.1 24.9996 146.1 23.2996C148.1 21.4996 150.6 20.1996 153.7 19.3996C156.8 18.5996 160.6 18.0996 165 18.0996H174.4V29.7996H165.4C163.4 29.7996 161.7 29.9996 160.4 30.2996C159 30.5996 158 31.1996 157.2 31.8996C156.4 32.6996 155.8 33.6996 155.5 35.0996C155.1 36.4996 155 38.1996 155 40.1996V70.4996H140.4V70.5996Z" fill="white"/>
<path d="M469.6 70.5996V38.9996C469.6 35.6996 469 33.4996 467.7 32.2996C466.4 31.0996 464.4 30.4996 461.6 30.4996H452.2C450.1 30.4996 448.3 30.5996 446.9 30.8996C445.5 31.1996 444.4 31.6996 443.6 32.3996C442.8 33.0996 442.2 33.9996 441.9 34.9996C441.6 36.0996 441.4 37.3996 441.4 38.9996V70.5996H428.7V38.9996C428.7 37.3996 428.6 35.9996 428.3 34.9996C428 33.8996 427.5 33.0996 426.7 32.3996C425.9 31.6996 424.8 31.1996 423.4 30.8996C422 30.5996 420.2 30.4996 418 30.4996H408.8C405.9 30.4996 403.8 31.0996 402.6 32.2996C401.4 33.4996 400.8 35.6996 400.8 38.9996V70.5996H386.7V36.8996C386.7 33.6996 387 30.8996 387.7 28.4996C388.3 26.0996 389.4 24.1996 390.9 22.5996C392.4 20.9996 394.3 19.8996 396.7 19.1996C399.1 18.4996 402 18.0996 405.5 18.0996H418.2C420.8 18.0996 423.1 18.2996 425 18.6996C426.9 19.0996 428.5 19.6996 429.8 20.3996C431.1 21.0996 432.2 22.0996 433 23.2996C433.8 24.4996 434.5 25.7996 435 27.3996C435.9 24.2996 437.6 21.9996 440.2 20.4996C442.8 18.9996 446.6 18.1996 451.8 18.1996H464.9C468.4 18.1996 471.3 18.5996 473.7 19.2996C476.1 19.9996 478 21.1996 479.5 22.6996C481 24.2996 482.1 26.1996 482.7 28.5996C483.3 30.9996 483.7 33.7996 483.7 36.9996V70.6996H469.6V70.5996Z" fill="white"/>
<path d="M219.9 59.5998C219.6 59.5998 219.3 59.5998 219 59.5998H207.7H204.2C202.5 59.5998 201.1 59.4998 200 59.2998C198.9 59.0998 198 58.6998 197.3 58.1998C196.6 57.6998 196.2 56.8998 195.9 55.8998C195.6 54.8998 195.5 53.5998 195.5 51.9998V49.5998H203.8H243.1V32.2998C243.1 30.1998 242.8 28.2998 242.2 26.4998C241.6 24.6998 240.6 23.1998 239.1 21.8998C237.6 20.5998 235.7 19.6998 233.2 18.8998C230.7 18.1998 227.6 17.7998 223.8 17.7998H204.9C200.2 17.7998 196.4 18.1998 193.4 18.8998C190.4 19.5998 187.9 20.7998 186.1 22.2998C184.3 23.8998 183 25.9998 182.2 28.5998C181.5 31.1998 181.1 34.3998 181.1 38.1998V50.2998C181.1 57.2998 182.9 62.3998 186.4 65.4998C190 68.6998 195.9 70.2998 204.2 70.2998H207.7H214.8H219.2C223.9 70.2998 227.7 69.8998 230.7 69.1998C233.7 68.4998 236.2 67.2998 238 65.7998C239.8 64.1998 241.1 62.0998 241.9 59.4998C241.9 59.3998 241.9 59.3998 241.9 59.2998H219.9V59.5998ZM195.6 37.4998C195.6 35.5998 195.8 34.0998 196.1 32.9998C196.4 31.8998 197 31.0998 197.7 30.4998C198.4 29.8998 199.4 29.4998 200.7 29.3998C201.9 29.1998 203.4 29.1998 205.3 29.1998H222.9C225.1 29.1998 226.6 29.4998 227.5 30.0998C228.4 30.6998 228.8 31.7998 228.8 33.5998V40.3998H195.7V37.4998H195.6Z" fill="white"/>
<path d="M533.2 59.5998C532.9 59.5998 532.6 59.5998 532.3 59.5998H521H517.5C515.8 59.5998 514.4 59.4998 513.3 59.2998C512.2 59.0998 511.3 58.6998 510.6 58.1998C509.9 57.6998 509.5 56.8998 509.2 55.8998C508.9 54.8998 508.8 53.5998 508.8 51.9998V49.5998H517.1H556.4V32.2998C556.4 30.1998 556.1 28.2998 555.5 26.4998C554.9 24.6998 553.9 23.1998 552.4 21.8998C550.9 20.5998 549 19.6998 546.5 18.8998C544 18.1998 540.9 17.7998 537.1 17.7998H518.2C513.5 17.7998 509.7 18.1998 506.7 18.8998C503.7 19.5998 501.2 20.7998 499.4 22.2998C497.6 23.8998 496.3 25.9998 495.5 28.5998C494.8 31.1998 494.4 34.3998 494.4 38.1998V50.2998C494.4 57.2998 496.2 62.3998 499.7 65.4998C503.3 68.6998 509.2 70.2998 517.5 70.2998H521H528.1H532.5C537.2 70.2998 541 69.8998 544 69.1998C547 68.4998 549.5 67.2998 551.3 65.7998C553.1 64.1998 554.4 62.0998 555.2 59.4998C555.2 59.3998 555.2 59.3998 555.2 59.2998H533.2V59.5998ZM508.9 37.4998C508.9 35.5998 509.1 34.0998 509.4 32.9998C509.7 31.8998 510.3 31.0998 511 30.4998C511.7 29.8998 512.7 29.4998 514 29.3998C515.2 29.1998 516.7 29.1998 518.6 29.1998H536.2C538.4 29.1998 539.9 29.4998 540.8 30.0998C541.7 30.6998 542.1 31.7998 542.1 33.5998V40.3998H509V37.4998H508.9Z" fill="white"/>
<path d="M285.6 70.5997V39.3997C285.6 35.4997 286.1 32.0998 287 29.2998C287.9 26.4998 289.3 24.1998 291.3 22.4998C293.3 20.6998 295.8 19.3997 298.9 18.5997C302 17.7997 315.1 17.9998 319.6 17.9998V28.2998H311.8C309.8 28.2998 307 28.1998 305.7 28.4998C304.3 28.7998 303.3 29.3998 302.4 30.1998C301.6 30.9998 301 31.9997 300.7 33.3997C300.3 34.7997 300.2 36.4998 300.2 38.4998V70.5997H285.6V70.5997Z" fill="white"/>
<path d="M334.199 70.6C330.399 70.6 327.199 70.3 324.799 69.6C322.299 69 320.399 68 318.899 66.8C317.399 65.6 316.399 64.1 315.799 62.4C315.199 60.7 314.899 58.8 314.899 56.6V51.8C314.899 49.6 315.199 47.6 315.699 45.9C316.199 44.2 317.199 42.7 318.599 41.5C319.999 40.3 321.799 39.4 324.199 38.8C326.599 38.2 329.599 37.9 333.199 37.9H361.799V36.7C361.799 33.3 361.099 31.1 359.799 30C358.399 28.9 356.099 28.3 352.899 28.3H332.299V18H352.899C357.099 18 360.699 18.4 363.599 19.2C366.499 20 368.999 21.2 370.799 22.7C372.699 24.3 374.099 26.3 374.899 28.7C375.799 31.1 376.199 34 376.199 37.4V50.2C376.199 54 375.799 57.2 375.099 59.8C374.399 62.4 373.099 64.5 371.199 66.1C369.399 67.7 366.899 68.9 363.799 69.5C360.699 70.2 356.899 70.5 352.199 70.5H334.199V70.6ZM361.799 46.8H334.799C333.099 46.8 331.799 47.2 330.799 47.9C329.799 48.6 329.299 50.1 329.299 52.1V55.7C329.299 57.6 329.799 58.9 330.899 59.6C331.899 60.3 333.399 60.7 335.299 60.7H352.099C353.799 60.7 355.199 60.6 356.499 60.3C357.699 60 358.699 59.6 359.499 58.9C360.299 58.2 360.899 57.3 361.199 56C361.599 54.8 361.799 53.2 361.799 51.2V46.8Z" fill="white"/>
</svg>
