<svg width="90" height="90" viewBox="0 0 90 90" fill="none" xmlns="http://www.w3.org/2000/svg">
<path fill-rule="evenodd" clip-rule="evenodd" d="M89.3 86.7002C89.3 88.2998 88.8 88.7998 87.3999 89.2002H2.80005C1.6001 89.0996 0.800049 88.2998 0.699951 87.2002V2.5C1.1001 1 1.69995 0.599609 3.19995 0.599609H86.1001C88.7 0.599609 89.3999 1.2998 89.3999 3.90039L89.3 86.7002ZM80.0227 19.5391L77.1575 22.4365L76.5686 23.0293L75.7 23.9004C74.3237 22.4727 72.9475 21.0713 71.5579 19.6699L70.3069 18.4102L67.5 15.5996L77.3999 5.7002C77.4426 5.65723 77.467 5.63281 77.4966 5.61914C77.5364 5.59961 77.5852 5.59961 77.7 5.59961H84.2V15.0996C84.2 15.1934 84.2 15.2578 84.1968 15.3057L84.1946 15.332L84.189 15.3682L84.1816 15.3945C84.1677 15.4326 84.1433 15.457 84.1001 15.5C83.3638 16.21 82.6345 16.9268 81.9067 17.6504C81.2788 18.2744 80.6519 18.9043 80.0227 19.5391ZM5.6001 20.7002L21.6001 5.7002H5.6001V20.7002ZM54.2476 22.0166L51.1455 25.1328C48.8945 27.3945 46.6472 29.6523 44.3999 31.9004C41.5 28.9004 38.6001 26 35.6001 23C39.0784 19.5898 42.6033 16.1797 46.1111 12.7373C47.7466 11.1328 49.3784 9.52148 51 7.90039L53.1001 5.90039C53.1921 5.80859 53.2629 5.75879 53.3127 5.73145L53.342 5.7168L53.3662 5.70703L53.3879 5.70117L53.3999 5.7002H70.6001L64.8999 11.4004C63.564 12.7168 62.2317 14.0371 60.9023 15.3594C58.6768 17.5742 56.4597 19.7959 54.2476 22.0166ZM44.6001 7.2002C36 15.5996 27.5 24 19 32.4004L10 23.4004C16.1001 17.5 22.3 11.7002 28.5 5.90039C28.5364 5.86426 28.5725 5.84082 28.604 5.82617C28.6594 5.7998 28.7 5.7998 28.7 5.7998H46.1001L44.6001 7.2002ZM5.5 53V70.7002L40.8999 35.2998C39.2253 33.6924 37.5957 32.04 35.981 30.4023L35.1304 29.541C34.6196 29.0244 34.1099 28.5098 33.6001 28L32.1001 26.4004L5.69995 52.4004C5.6001 52.5996 5.5 52.7002 5.5 53ZM46.0117 53.5488C42.3972 57.1582 38.783 60.7715 35.1724 64.3887C32.1785 67.3887 29.187 70.3926 26.2 73.4004C23.6001 70.5996 20.8999 67.9004 18.1001 65.2002L64.1001 19.2002L64.5754 19.6973L65.0762 20.2168L65.8638 21.0264C66.3899 21.5654 66.9177 22.1016 67.449 22.6387C68.0437 23.2393 68.6428 23.8418 69.248 24.4482L70.3586 25.5596L70.5 25.7002L72.2 27.4004L46.0117 53.5488ZM11.3081 40.0898L11.4297 39.9697C12.8115 38.6133 14.1931 37.2568 15.6001 35.9004L6.3999 26.7002C6.1001 27 5.69995 27.5996 5.6001 27.7998V45.7002L7.30005 44C8.18604 43.1455 9.06226 42.291 9.93457 41.4375L11.3081 40.0898ZM14.6001 68.5996L5.69995 77.5C5.6001 77.5996 5.6001 77.5996 5.6001 77.7002V84.2998H15.2C15.3149 84.2998 15.3638 84.2998 15.4036 84.2803C15.4331 84.2666 15.4575 84.2422 15.5 84.2002C18 81.7002 20.3999 79.2002 22.8999 76.7998L22.6018 76.5117L22.5652 76.4766C21.5234 75.4707 20.5066 74.4893 19.5054 73.5127C17.8413 71.8896 16.2207 70.2803 14.6001 68.5996ZM84.3 44.7002V61.2998C84.3 61.5996 84.3 61.7002 84.1001 61.9004L66.7 79.2998L58.2 70.7998L84.3 44.7002ZM84.3 22.2998L59.3 47.2998L67 55L84.1001 37.9004C84.3 37.7002 84.3 37.5996 84.3 37.4004V22.2998ZM55.8 50.7002C58.3 53.2998 60.8999 55.9004 63.5 58.4004L37.8 84.0996C37.708 84.1914 37.6582 84.2412 37.6216 84.2686L37.5964 84.2852C37.5869 84.29 37.5779 84.293 37.5686 84.2949C37.5493 84.2998 37.5288 84.2998 37.5 84.2998H22.2L55.8 50.7002ZM68.8 84.4004L84.2 69V84.4004H68.8ZM54.6001 74.2998L44.5 84.4004H52.3C53.1714 84.4004 54.0427 84.4004 54.9141 84.4062C55.6685 84.4111 56.4229 84.4199 57.1772 84.4355C57.8516 84.4502 58.5256 84.4707 59.2 84.5C61 84.5996 62.2 84.0996 63.1001 83C61.595 81.3877 60.0898 79.833 58.5693 78.2891C57.271 76.9717 55.9614 75.6621 54.6309 74.332L54.6001 74.2998Z" fill="white"/>
</svg>
