<svg width="90" height="90" viewBox="0 0 90 90" fill="none" xmlns="http://www.w3.org/2000/svg">
<path fill-rule="evenodd" clip-rule="evenodd" d="M85.6001 46.8996C85.1001 47.3996 85.0001 47.8996 85.0001 48.4996V68.6996C85.0001 70.4996 84.8001 72.2996 84.0001 73.9996C83.3001 75.5996 82.2001 76.8996 80.8001 77.8996C80.1001 78.3996 79.9001 78.9996 79.9001 79.6996C79.9001 80.034 79.9101 80.3685 79.92 80.7018C79.9545 81.8635 79.9886 83.0118 79.6001 84.0996C78.8001 86.6996 77.3001 88.5996 74.7001 89.3996C69.0001 90.9996 64.7001 87.2996 64.5001 82.2996V80.8996C64.5001 80.1996 64.3001 79.8996 63.6001 79.9996H26.5001C25.2001 79.9996 25.1001 79.9996 25.2001 81.3996C25.3001 83.2996 24.9001 85.0996 23.8001 86.6996C22.1001 89.0996 19.7001 89.8996 16.8001 89.7996C12.7001 89.5996 9.80011 85.9996 9.80011 82.0996V79.6996C9.80011 78.9996 9.60009 78.4996 9.00009 78.0996C7.00009 76.5996 5.6001 74.5996 5.1001 72.1996C4.8001 70.9996 4.7001 69.7996 4.7001 68.5996V48.8996C4.7001 47.9996 4.40011 47.3996 3.80011 46.7996C1.60011 44.6996 0.200098 42.1996 0.100098 39.1996V36.0996C0.300098 33.4996 1.4001 31.1996 3.1001 29.2996C4.8001 27.3996 6.90009 25.9996 9.50009 25.5996C10.5001 25.3996 10.9001 24.8996 11.2001 23.9996C12.8001 18.2996 15.7001 13.2996 20.0001 9.29959C24.8001 4.69959 30.5001 1.79959 37.1001 0.799591C37.5001 0.74959 37.9001 0.724594 38.3001 0.699598C38.7001 0.674604 39.1001 0.649609 39.5001 0.599609H48.4001C48.7435 0.714077 49.1197 0.69751 49.4911 0.68115C49.7686 0.668926 50.0435 0.656818 50.3001 0.699585C53.0001 0.699585 55.7001 1.29959 58.2001 2.19958C63.0001 3.89959 67.1001 6.59959 70.6001 10.1996C74.4001 14.0996 77.0001 18.6996 78.5001 23.9996C78.8001 24.8996 79.2001 25.2996 80.2001 25.5996C84.9001 26.7996 88.1001 29.6996 89.3001 34.3996C90.6001 38.8996 89.6001 43.3996 85.6001 46.8996ZM16.7001 25.7996C17.9001 26.1996 19.0001 26.7996 20.0001 27.5996C23.4001 30.2996 25.0001 33.8996 25.0001 38.2996V48.9996C25.0001 49.6996 25.2001 49.8996 25.9001 49.8996H63.9001C64.6001 49.8996 64.8001 49.7996 64.8001 48.9996C64.8001 47.7038 64.789 46.3969 64.778 45.0863V45.0852C64.7557 42.4518 64.7333 39.8033 64.8001 37.1996C64.9001 31.8996 68.0001 27.4996 73.1001 25.7996C73.7001 25.5996 73.7001 25.2996 73.5001 24.8996C72.7001 22.3996 71.7001 19.8996 70.2001 17.6996C66.3001 11.6996 60.9001 7.69962 54.0001 5.99961C48.8001 4.69962 43.4001 4.59962 38.1001 5.49961C26.9001 7.39962 19.6001 14.0996 16.1001 24.9996C16.1001 25.4996 16.3001 25.6996 16.7001 25.7996ZM22.3001 54.8996C21.1001 54.9996 20.1001 56.0996 20.1001 57.2996C20.1001 58.7996 21.2001 59.7996 22.9001 59.7996H67.5001C68.7001 59.6996 69.6001 58.6996 69.6001 57.4996C69.7001 55.8996 68.6001 54.8996 66.7001 54.8996H22.3001ZM72.8146 79.7212C73.2478 79.7436 73.6966 79.7668 74.1001 79.6996C74.7001 79.5996 74.8001 79.8996 74.8001 80.3996C74.7501 80.7996 74.7501 81.1746 74.7501 81.5496C74.7501 81.9246 74.7501 82.2996 74.7001 82.6996C74.5001 83.8996 73.5001 84.6996 72.3001 84.6996C71.2001 84.6996 70.2001 83.8996 69.9001 82.7996C69.7858 82.2854 69.8021 81.7711 69.8185 81.2568C69.8307 80.8711 69.8429 80.4853 69.8001 80.0996C69.8001 79.6996 70.0001 79.6996 70.3001 79.6996H72.2001C72.3965 79.6996 72.6038 79.7103 72.8146 79.7212ZM19.6001 79.6996H15.6001C15.3001 79.6996 15.1001 79.6996 15.1001 80.0996C15.1001 80.3278 15.0937 80.5496 15.0873 80.7682C15.0687 81.4117 15.0508 82.0278 15.2001 82.6996C15.4001 83.7996 16.4001 84.5996 17.6001 84.6996C18.7001 84.6996 19.7001 83.9996 20.0001 82.8996C20.1513 82.5216 20.131 82.0865 20.1122 81.6806C20.1061 81.5496 20.1001 81.4216 20.1001 81.2996V80.2996C20.1001 79.7996 20.0001 79.6996 19.6001 79.6996ZM69.8001 37.4996C69.9001 31.8996 75.5001 28.2996 80.5001 30.6996C85.6001 33.0996 86.2001 40.2996 81.7001 43.3996C80.3001 44.2996 79.8001 45.3996 79.8001 46.9996V69.1996C79.8001 72.6996 77.8001 74.6996 74.3001 74.6996H15.7001C12.8001 74.6996 10.9001 73.1996 10.3001 70.6996C10.2001 70.1996 10.2001 69.6996 10.2001 69.0996V46.5996C10.2001 45.1996 9.70009 44.2996 8.60009 43.4996C5.50009 41.4996 4.5001 38.0996 5.8001 34.4996C7.0001 31.4996 10.3001 29.5996 13.7001 29.9996C16.8001 30.2996 19.7001 33.2996 20.0001 36.6996C20.2286 38.8704 20.196 41.0087 20.1634 43.1515C20.1389 44.7596 20.1144 46.3705 20.2001 47.9996C20.2001 49.4996 20.0001 50.3996 18.5001 51.1996C15.8001 52.5996 14.6001 56.0996 15.3001 58.8996C16.1001 61.9996 18.6001 64.2996 21.7001 64.5996C22.3999 64.6996 23.1997 64.6996 23.8996 64.6996H66.8001C70.0001 64.6996 72.5001 63.4996 74.0001 60.5996C75.9001 56.9996 74.4001 52.2996 70.6001 50.5996C70.0001 50.3996 69.8001 50.0996 69.8001 49.4996V37.4996Z" fill="white"/>
</svg>
