<svg width="39" height="30" viewBox="0 0 39 30" fill="none" xmlns="http://www.w3.org/2000/svg">
<path d="M12.3894 18.4804C12.5158 18.4804 12.6422 18.4804 12.7054 18.4804C20.0995 18.4804 27.4936 18.4804 34.8876 18.4804C36.5308 18.4804 37.8579 17.5324 38.3003 16.0157C38.9955 13.7406 37.3524 11.5287 34.9509 11.5287C28.7575 11.5287 22.5642 11.5287 16.3077 11.5287C14.9805 11.5287 13.6534 11.5287 12.263 11.5287C12.3894 11.4023 12.4526 11.3391 12.5158 11.2759C14.0958 9.69598 15.7389 8.05286 17.3188 6.47293C18.2668 5.52497 18.5196 4.38739 18.2036 3.12344C17.8244 1.8595 17.0028 0.974758 15.6757 0.658772C14.4749 0.342785 13.4006 0.658749 12.5158 1.54351C8.78718 5.20895 5.12174 8.87442 1.45629 12.6031C0.129152 13.9302 0.129152 16.0789 1.45629 17.4692C5.12174 21.1347 8.78718 24.8001 12.4526 28.4656C13.7798 29.7927 15.9917 29.7927 17.3188 28.4656C18.6459 27.1384 18.6459 24.9897 17.3188 23.5994C15.7389 21.9563 14.0958 20.3763 12.5158 18.7964C12.4526 18.7332 12.3262 18.67 12.263 18.6068C12.3894 18.5436 12.3894 18.4804 12.3894 18.4804Z" fill="#55C6D3"/>
</svg>
