<svg width="268" height="352" viewBox="0 0 268 352" fill="none" xmlns="http://www.w3.org/2000/svg">
<path d="M260.8 261.8C255.5 255.6 248.8 251.3 241.6 247.7C226.3 240.2 210 236.1 193.3 233.2C191.9 233 190.7 232.8 189.8 231.4C187 227 184 222.7 181.1 218.3C232.5 194.9 257.5 137.2 243.6 85.3997C230.5 36.6997 187.3 1.79967 138.7 0.599667C87.1002 -0.700333 42.4002 30.4997 26.5002 79.2997C18.8002 103 18.9002 127 26.9002 150.6C37.4002 181.6 58.0002 203.8 87.3002 218.1C84.5002 222.3 81.7002 226.4 79.1002 230.5C78.1002 232.1 76.8002 232.7 75.0002 233.1C60.7002 235.6 46.6002 239 33.2002 244.6C23.4002 248.8 14.1002 253.8 7.10017 262.2C-1.69983 272.7 -1.89983 285.7 6.50016 296.4C11.9002 303.3 19.1002 307.9 26.9002 311.7C46.8002 321.2 68.2002 325.3 89.8002 328.2C96.3002 329.1 102.8 329.6 110.3 330.4C108.4 332.1 107.1 333.1 106 334.4C101.9 339.1 102.6 346 107.5 349.5C108.6 350.3 109.7 350.9 110.9 351.6C112.7 351.6 114.6 351.6 116.4 351.6C117.9 350.6 119.6 349.9 120.8 348.7C127.8 341.8 134.8 334.9 141.6 327.8C145.4 323.8 145.7 318 142 314.1C134.9 306.6 127.6 299.4 120.2 292.3C116.3 288.6 110.3 289.1 106.5 292.8C102.7 296.4 102.4 302.2 105.6 306.5C106.2 307.4 107.5 307.8 107.5 309.2C102.5 309.1 97.7002 308.3 92.8002 307.6C75.5002 305.1 58.4002 301.9 41.9002 296C35.8002 293.8 29.8002 291.3 24.9002 286.7C19.9002 282 19.9002 277.9 24.9002 273.3C29.0002 269.5 33.8002 266.9 38.8002 264.7C46.3002 261.3 54.1002 258.6 62.2002 256.8C62.5002 265.1 66.2002 269.2 73.5002 269.2C114.1 269.2 154.6 269.2 195.2 269.2C201.8 269.2 205.9 265.3 206.2 258.7C206.3 257.3 206.2 256.6 208 257.1C218.8 260.1 229.4 263.6 238.9 269.7C241.6 271.4 244.1 273.4 246 276C247.7 278.3 247.7 280.6 246 282.9C244.2 285.3 241.9 287.2 239.5 288.9C231.1 294.5 221.6 297.9 212 300.8C199.5 304.5 186.6 306.4 173.8 308.3C168.2 309.1 164.5 314.2 165.2 319.6C165.9 325 170.9 329.2 176.3 328.5C197 326 217.3 322 236.6 313.8C245.8 309.9 254.5 305.1 261.1 297.3C270.4 286.4 270.3 272.9 260.8 261.8ZM41.6002 114.5C41.6002 62.9997 83.3002 21.0997 134.3 21.1997C185.3 21.2997 226.7 63.0997 226.7 114.5C226.7 166 185 207.9 134 207.8C83.1002 207.7 41.7002 165.9 41.6002 114.5ZM91.8002 248.9C93.7002 246 95.5002 243.4 97.2002 240.8C100.2 236.2 103.3 231.7 106.3 227.1C107.2 225.6 108.2 225.2 109.9 225.6C126.3 229.3 142.7 229.2 159.1 225.6C160.1 225.4 161 225.2 161.8 226.3C166.7 233.7 171.6 241.1 176.8 248.9C148.1 248.9 120.3 248.9 91.8002 248.9Z" fill="#55CBD8"/>
<path d="M134.2 63.0996C105.9 63.0996 82.8003 86.1996 82.8003 114.5C82.8003 142.8 105.9 166 134.2 166C162.5 166 185.6 142.9 185.7 114.6C185.7 86.1996 162.6 63.0996 134.2 63.0996ZM134.1 145.4C117.1 145.4 103.3 131.4 103.4 114.3C103.5 97.2996 117.5 83.4996 134.5 83.5996C151.5 83.6996 165.2 97.7996 165.1 114.8C164.9 131.7 151 145.4 134.1 145.4Z" fill="#55CBD8"/>
</svg>
