<svg width="133" height="78" viewBox="0 0 133 78" fill="none" xmlns="http://www.w3.org/2000/svg">
<path d="M104.8 29.3998C103.8 25.3998 101 22.8998 96.9996 21.8998C96.1996 21.6998 95.7996 21.2998 95.5996 20.4998C94.3996 15.9998 92.0996 11.9998 88.7996 8.59982C85.7996 5.49982 82.1996 3.19983 78.0996 1.69983C75.8996 0.899829 73.5996 0.399811 71.2996 0.399811C70.7996 0.399811 70.1996 0.499805 69.6996 0.299805C67.0996 0.299805 64.5996 0.299805 61.9996 0.299805C61.2996 0.499805 60.5996 0.399817 59.8996 0.499817C54.1996 1.39982 49.3996 3.8998 45.1996 7.7998C41.4996 11.2998 38.9996 15.5998 37.6996 20.4998C37.4996 21.2998 37.0996 21.6998 36.1996 21.8998C33.9996 22.2998 32.1996 23.4998 30.6996 25.0998C29.1996 26.7998 28.2996 28.6998 28.0996 30.8998C28.0996 31.7998 28.0996 32.6998 28.0996 33.5998C28.1996 36.1998 29.4996 38.3998 31.2996 40.1998C31.8996 40.6998 32.0996 41.2998 32.0996 41.9998C32.0996 47.6998 32.0996 53.2998 32.0996 58.9998C32.0996 59.9998 32.1996 61.0998 32.3996 62.0998C32.8996 64.1998 34.0996 65.8998 35.7996 67.1998C36.2996 67.5998 36.4996 67.9998 36.4996 68.5998C36.4996 69.2998 36.4996 69.9998 36.4996 70.6998C36.3996 73.9998 38.9996 77.1998 42.4996 77.3998C44.9996 77.4998 46.9996 76.7998 48.4996 74.6998C49.4996 73.2998 49.7996 71.7998 49.6996 70.0998C49.5996 68.8998 49.6996 68.8998 50.7996 68.8998C61.2996 68.8998 71.7996 68.8998 82.2996 68.8998C82.3996 68.8998 82.5996 68.8998 82.6996 68.8998C83.2996 68.7998 83.4996 69.0998 83.4996 69.6998C83.4996 70.0998 83.4996 70.4998 83.4996 70.8998C83.5996 75.1998 87.3996 78.3998 92.1996 76.9998C94.3996 76.3998 95.7996 74.6998 96.3996 72.4998C96.7996 71.1998 96.5996 69.9998 96.5996 68.6998C96.5996 67.9998 96.7996 67.4998 97.3996 67.0998C98.5996 66.1998 99.4996 65.0998 100.1 63.7998C100.8 62.3998 101 60.7998 101 59.2998C101 53.4998 101 47.6998 101 41.9998C101 41.4998 101.1 40.9998 101.5 40.5998C105 37.4998 105.9 33.5998 104.8 29.3998ZM41.9996 21.6998C44.9996 12.3998 51.1996 6.59982 60.8996 4.99982C65.3996 4.19982 69.9996 4.29981 74.4996 5.39981C80.3996 6.89981 85.0996 10.2998 88.3996 15.4998C89.5996 17.3998 90.4996 19.4998 91.1996 21.6998C91.2996 22.0998 91.2996 22.2998 90.7996 22.4998C86.4996 23.9998 83.7996 27.6998 83.6996 32.2998C83.5996 35.6998 83.6996 39.0998 83.6996 42.3998C83.6996 42.9998 83.4996 43.0998 82.8996 43.0998C77.3996 43.0998 71.9996 43.0998 66.4996 43.0998C60.9996 43.0998 55.5996 43.0998 50.0996 43.0998C49.4996 43.0998 49.2996 42.9998 49.3996 42.3998C49.3996 39.2998 49.3996 36.1998 49.3996 33.1998C49.3996 29.4998 47.9996 26.3998 45.0996 23.9998C44.1996 23.2998 43.2996 22.7998 42.1996 22.3998C41.9996 22.2998 41.7996 22.0998 41.9996 21.6998ZM87.8996 49.5998C87.7996 50.5998 87.0996 51.3998 86.0996 51.5998C85.7996 51.5998 85.4996 51.5998 85.1996 51.5998C78.9996 51.5998 72.6996 51.5998 66.4996 51.5998C60.1996 51.5998 53.8996 51.5998 47.6996 51.5998C46.1996 51.5998 45.2996 50.7998 45.2996 49.3998C45.2996 48.2998 46.0996 47.3998 47.1996 47.2998C47.3996 47.2998 47.5996 47.2998 47.7996 47.2998C60.3996 47.2998 72.9996 47.2998 85.4996 47.2998C87.0996 47.2998 87.9996 48.1998 87.8996 49.5998ZM45.2996 69.9998C45.2996 70.4998 45.2996 70.8998 45.1996 71.3998C44.8996 72.2998 44.0996 72.9998 43.0996 72.8998C42.0996 72.8998 41.2996 72.1998 41.0996 71.1998C40.8996 70.4998 41.0996 69.6998 40.9996 68.9998C40.9996 68.6998 41.1996 68.5998 41.3996 68.5998C42.4996 68.5998 43.6996 68.5998 44.7996 68.5998C45.0996 68.5998 45.1996 68.6998 45.1996 68.9998C45.1996 69.3998 45.2996 69.6998 45.2996 69.9998ZM92.1996 71.1998C91.9996 72.1998 91.1996 72.8998 90.0996 72.8998C89.0996 72.8998 88.2996 72.2998 87.9996 71.2998C87.7996 70.4998 87.9996 69.7998 87.8996 68.9998C87.8996 68.6998 88.0996 68.6998 88.2996 68.6998C88.8996 68.6998 89.3996 68.6998 89.9996 68.6998C90.4996 68.6998 91.0996 68.6998 91.5996 68.6998C92.0996 68.6998 92.1996 68.8998 92.1996 69.2998C92.1996 69.8998 92.2996 70.5998 92.1996 71.1998ZM98.0996 37.4998C96.8996 38.2998 96.4996 39.1998 96.4996 40.5998C96.5996 46.9998 96.4996 53.2998 96.4996 59.6998C96.4996 62.6998 94.7996 64.4998 91.7996 64.4998C83.3996 64.4998 74.9996 64.4998 66.6996 64.4998C58.3996 64.4998 49.8996 64.4998 41.5996 64.4998C39.0996 64.4998 37.3996 63.2998 36.9996 61.0998C36.8996 60.5998 36.8996 60.1998 36.8996 59.6998C36.8996 53.2998 36.8996 46.7998 36.8996 40.3998C36.8996 39.1998 36.4996 38.3998 35.4996 37.7998C32.7996 35.9998 31.9996 33.0998 33.0996 29.9998C34.0996 27.3998 36.8996 25.7998 39.8996 26.0998C42.5996 26.3998 45.0996 28.9998 45.2996 31.8998C45.5996 35.0998 45.2996 38.3998 45.3996 41.5998C45.4996 42.8998 45.1996 43.6998 43.9996 44.2998C41.6996 45.4998 40.6996 48.4998 41.2996 50.8998C41.9996 53.5998 44.0996 55.4998 46.7996 55.7998C47.3996 55.8998 47.9996 55.8998 48.6996 55.8998C60.9996 55.8998 73.2996 55.8998 85.5996 55.8998C88.2996 55.8998 90.3996 54.7998 91.7996 52.3998C93.4996 49.2998 92.0996 45.1998 88.8996 43.7998C88.3996 43.5998 88.1996 43.3998 88.1996 42.7998C88.1996 39.3998 88.1996 35.8998 88.1996 32.4998C88.2996 27.5998 93.0996 24.5998 97.3996 26.5998C101.5 28.5998 102.1 34.7998 98.0996 37.4998Z" fill="white"/>
<path d="M12.2998 12.7996C13.1998 13.0996 14.1998 13.0996 15.1998 13.0996C18.0998 13.3996 20.9998 13.5996 23.8998 13.8996C25.5998 14.0996 26.4998 16.0996 25.4998 17.5996C23.9998 19.7996 22.4998 21.8996 21.0998 23.9996C20.1998 25.2996 19.2998 26.5996 18.3998 27.7996C17.7998 28.5996 16.8998 28.9996 15.9998 28.7996C14.9998 28.4996 14.3998 27.7996 14.2998 26.6996C14.1998 26.0996 14.3998 25.4996 14.6998 24.9996C15.2998 24.0996 15.8998 23.2996 16.4998 22.3996C16.5998 22.1996 16.7998 22.0996 16.6998 21.7996C15.6998 22.3996 14.7998 23.0996 13.9998 23.8996C8.09979 29.2996 5.19979 36.0996 5.59979 44.1996C6.09979 53.6996 10.5998 60.6996 18.5998 65.3996C18.7998 65.4996 18.8998 65.5996 19.0998 65.6996C20.1998 66.3996 20.5998 67.7996 19.9998 68.8996C19.3998 69.9996 18.0998 70.4996 16.8998 69.8996C14.6998 68.7996 12.7998 67.3996 10.8998 65.7996C5.69978 60.9996 2.3998 55.0996 1.1998 47.9996C1.0998 47.1996 0.99978 46.3996 0.89978 45.5996C0.89978 45.4996 0.899805 45.3996 0.799805 45.2996C0.799805 43.7996 0.799805 42.1996 0.799805 40.6996C0.899805 40.0996 0.899786 39.3996 0.999786 38.7996C1.79979 33.2996 3.8998 28.3996 7.2998 24.0996C8.9998 21.9996 10.0998 20.6996 13.9998 17.7996C12.9998 17.6996 12.0998 17.5996 11.1998 17.4996C10.1998 17.3996 9.29979 16.6996 8.99979 15.7996C8.69979 14.7996 8.8998 13.7996 9.6998 13.0996C9.9998 12.7996 10.3998 12.6996 10.7998 12.5996C11.2998 12.7996 11.7998 12.7996 12.2998 12.7996Z" fill="white"/>
<path d="M121.2 73.7996C120.3 73.4996 119.3 73.5996 118.3 73.4996C115.4 73.1996 112.5 72.9996 109.6 72.6996C107.9 72.4996 107 70.4996 108 68.9996C109.2 67.1996 110.5 65.2996 111.8 63.4996C112.9 61.8996 114 60.2996 115.1 58.6996C115.7 57.8996 116.6 57.4996 117.5 57.6996C118.4 57.8996 119.1 58.6996 119.3 59.7996C119.4 60.3996 119.2 60.9996 118.9 61.4996C118.2 62.4996 117.5 63.5996 116.8 64.5996C117 64.6996 117.1 64.4996 117.3 64.3996C123.7 59.7996 127.5 53.4996 128 45.4996C128.7 34.5996 124.1 26.3996 115 20.9996C113.8 20.2996 113.2 19.3996 113.4 18.2996C113.7 16.6996 115.3 15.8996 116.8 16.6996C119.5 18.0996 121.9 19.8996 124 22.0996C128.7 26.8996 131.7 32.6996 132.5 39.4996C133.9 51.6996 129.5 61.3996 119.8 68.4996C119.6 68.5996 119.5 68.6996 119.2 68.8996C120.3 68.9996 121.2 69.0996 122.2 69.1996C123.5 69.2996 124.4 70.0996 124.6 71.1996C124.8 72.4996 124.2 73.3996 122.9 73.8996C122.9 73.8996 122.9 73.9996 122.8 73.9996C122.2 73.7996 121.7 73.7996 121.2 73.7996Z" fill="white"/>
</svg>
