<svg width="29" height="38" viewBox="0 0 29 38" fill="none" xmlns="http://www.w3.org/2000/svg">
<path d="M10.9808 11.9285C10.9808 12.0549 10.9808 12.1813 10.9808 12.2445C10.9808 19.6386 10.9808 27.0326 10.9808 34.4267C10.9808 36.0698 11.9287 37.397 13.4455 37.8394C15.7206 38.5345 17.9325 36.8914 17.9325 34.4899C17.9325 28.2966 17.9325 22.1033 17.9325 15.8467C17.9325 14.5196 17.9325 13.1924 17.9325 11.8021C18.0589 11.9285 18.1221 11.9917 18.1853 12.0549C19.7652 13.6348 21.4083 15.2779 22.9883 16.8579C23.9362 17.8058 25.0738 18.0586 26.3377 17.7426C27.6017 17.3635 28.4864 16.5419 28.8024 15.2147C29.1184 14.014 28.8024 12.9396 27.9177 12.0549C24.2522 8.32624 20.5868 4.6608 16.8581 0.995357C15.531 -0.331786 13.3823 -0.331786 11.9919 0.995357C8.3265 4.6608 4.66104 8.32624 0.995601 11.9917C-0.331542 13.3188 -0.331542 15.5307 0.995601 16.8579C2.32274 18.185 4.47146 18.185 5.8618 16.8579C7.50493 15.2779 9.08487 13.6348 10.6648 12.0549C10.728 11.9917 10.7912 11.8653 10.8544 11.8021C10.9176 11.9285 10.9808 11.9285 10.9808 11.9285Z" fill="white"/>
</svg>
