<svg width="396" height="214" viewBox="0 0 396 214" fill="none" xmlns="http://www.w3.org/2000/svg">
<path fill-rule="evenodd" clip-rule="evenodd" d="M114.7 13.9997C114.855 7.47403 118.572 2.27606 124.114 0H169.931C175.46 2.1814 179.001 7.19623 179.3 13.9997C179.5 17.9997 179.7 22.0997 179.3 26.0997C178.8 30.5997 180.5 31.5997 184.9 31.5997C229.604 31.4497 274.363 31.4685 319.095 31.4872L319.321 31.4873C334.152 31.4935 348.979 31.4997 363.8 31.4997C366.4 31.4997 369 31.4997 371.6 31.7997C380.8 32.6997 387.5 37.2997 392.4 45.0997C392.935 45.9793 393.251 46.9612 393.566 47.9393C394.074 49.5188 394.58 51.0881 396 52.1997V192.5C395.3 192.7 395.1 193.3 394.9 193.9C389.4 207.8 381.2 213.4 365.9 213.4H30.4999C27.0999 213.4 23.6999 213.3 20.3999 212.4C7.59995 208.7 0.299927 198.6 0.299927 184.3C0.289185 177.239 0.279602 171.027 0.271057 165.481C0.239777 145.187 0.22226 133.818 0.212433 122.45C0.199951 107.975 0.199951 93.4997 0.199951 60.5997C0.199951 42.8997 11.1999 31.6997 28.8999 31.5997H42.0999H43.0999H52.2999C71.7999 31.5997 91.2 31.5997 110.7 31.6997C113.9 31.6997 114.9 30.7997 114.7 27.5997C114.5 23.0997 114.6 18.4997 114.7 13.9997ZM164.8 28.5997C164.9 30.9997 164 31.5997 161.7 31.5997C151.8 31.4997 142 31.4997 132.1 31.5997C130.1 31.5997 129.2 31.0997 129.3 28.8997C129.4 24.6997 129.4 20.4997 129.3 16.2997C129.2 13.9997 130.1 13.1997 132.4 13.2997C135.604 13.3665 138.852 13.3441 142.085 13.3219C143.696 13.3108 145.304 13.2997 146.9 13.2997C148.567 13.2997 150.233 13.3108 151.9 13.3219H151.903C155.236 13.3441 158.568 13.3664 161.9 13.2997C163.9 13.2997 164.8 13.8997 164.8 15.9997C164.7 20.1997 164.7 24.3997 164.8 28.5997ZM14.8221 124.62V124.6C14.811 114.6 14.7999 104.6 14.7999 94.5997V61.2997C14.7999 50.9997 19.5999 46.1997 29.8999 46.1997H43.3999H43.4999H365.1C365.663 46.1997 366.235 46.1823 366.811 46.1648L366.814 46.1647C368.999 46.0981 371.243 46.0296 373.3 46.8997C378.6 49.3997 381.5 53.4997 381.5 59.4997V185.2C381.5 193.4 376.5 198.5 368.3 198.8C367.433 198.866 366.567 198.844 365.7 198.822C365.267 198.811 364.833 198.8 364.4 198.8H35.9999C35.5035 198.8 34.8993 198.81 34.2231 198.821C30.6771 198.882 25.1515 198.975 22.7999 197.8C17.1999 195.2 14.7999 190.7 14.7999 184.6C14.8666 164.607 14.8444 144.613 14.8221 124.62ZM49.6 115.5C40.8 115.5 36.2 110.9 36 102C35.8 93.1997 35.8 84.4997 36 75.7997C36.2 66.6997 40.8 62.2997 50 62.1997H77.7C80.3076 62.1997 84.4925 62.192 89.3798 62.183H89.4245C102.152 62.1595 119.616 62.1275 126.4 62.1997C135.2 62.2997 139.8 66.8997 139.9 75.6997C140 84.3997 140 93.1997 139.9 101.9C139.8 110.7 135.2 115.4 126.4 115.5C107.6 115.6 68.4 115.6 49.6 115.5ZM54 76.6997C51.2 76.5997 50.5 77.4997 50.6 80.1997C50.7989 85.9672 50.7011 91.7347 50.6017 97.6003L50.6 97.6997C50.6 100.2 51.3 101 53.9 101C69.7 100.9 106.1 100.9 121.9 101C124.8 101.1 125.4 99.9998 125.3 97.3997C125.1 91.4998 125.1 85.6997 125.3 79.8997C125.3 77.2997 124.5 76.6997 122 76.6997C115.6 76.8597 96.0168 76.8276 84.2919 76.8084H84.2839H84.2781H84.2637H84.2495H84.2354H84.2215C81.3213 76.8036 78.9072 76.7997 77.3 76.7997C75.3623 76.7997 73.4307 76.8058 71.5023 76.812L71.4554 76.8122H71.4524H71.4494H71.4464H71.4433H71.4403H71.4373C65.6249 76.8309 59.8406 76.8496 54 76.6997ZM121.1 170V148.1C121.102 147.88 121.105 147.664 121.11 147.449C121.114 147.268 121.119 147.088 121.126 146.911C124.559 146.923 133.174 146.937 137.797 146.908C136.181 147.223 135.551 148.238 135.7 150.7C136 155.6 136.1 160.5 135.7 165.3C135.2 170 136.7 171.1 141.5 171.3C167.503 171.269 182.165 171.248 192.376 171.233C198.972 171.224 203.711 171.217 208.45 171.212C220.525 171.2 232.6 171.2 275.4 171.2C275.667 171.2 275.933 171.189 276.2 171.177C276.733 171.155 277.267 171.133 277.8 171.2C280.5 171.5 281.1 170.2 281 167.8C280.8 162.1 280.7 156.5 281 150.8C281.2 147.3 279.8 146.7 276.8 146.9C272.9 147.1 269 147 265.1 146.9H264.9H263.7H138.866C140.887 146.881 141.626 146.85 139.8 146.8C139.033 146.775 138.382 146.799 137.84 146.9H121.126C121.505 136.202 125.806 132.203 136.9 132.3H263.8H265C268.596 132.233 272.148 132.255 275.715 132.277L275.733 132.278C277.516 132.289 279.302 132.3 281.1 132.3C290.7 132.3 295.4 136.9 295.5 146.5C295.567 151.696 295.544 156.893 295.522 162.089V162.1C295.511 164.7 295.5 167.3 295.5 169.9C295.5 181.3 291.2 185.7 279.7 185.7H146.9H137C125.5 185.7 121.1 181.4 121.1 170ZM137.84 146.9H138.866C138.541 146.903 138.183 146.905 137.797 146.908L137.84 146.9ZM121.126 146.9L121.126 146.911C119.502 146.905 119.037 146.9 120.7 146.9H121.126ZM281 102C281.1 110.8 285.7 115.4 294.5 115.5C313.3 115.6 332.1 115.6 350.8 115.5C359.4 115.4 364 110.9 364.3 102.4C364.5 93.2997 364.6 84.2997 364.3 75.1997C364.1 66.6997 359.4 62.2997 350.7 62.1997C344.433 62.1331 338.167 62.1553 331.9 62.1775C328.767 62.1886 325.633 62.1997 322.5 62.1997H295.3C285.5 62.1997 281 66.5997 280.9 76.2997V76.3152C280.9 84.8102 280.9 93.405 281 102ZM295.5 79.8997C295.4 77.2997 296.3 76.6997 298.8 76.6997C304.641 76.8496 310.427 76.8309 316.24 76.8122H316.243H316.246H316.249H316.252H316.255L316.302 76.812C318.231 76.8058 320.162 76.7997 322.1 76.7997C324.125 76.7997 326.151 76.806 328.176 76.8123C334.251 76.831 340.325 76.8497 346.4 76.6997C349.2 76.5997 349.9 77.4997 349.8 80.1997C349.6 85.9997 349.6 91.7997 349.8 97.6997C349.9 100.2 349.1 101 346.5 101C330.7 100.9 314.8 100.9 299 101C296.6 101 295.5 100.5 295.6 97.7997C295.7 91.7997 295.7 85.8997 295.5 79.8997ZM321.8 185.6C313.4 185.4 308.6 180.6 308.5 172.2C308.3 163.3 308.3 154.4 308.6 145.5C308.7 137.2 313.5 132.5 322 132.3C325.263 132.233 328.482 132.255 331.715 132.277L331.73 132.278C333.347 132.289 334.968 132.3 336.6 132.3C338.167 132.3 339.733 132.289 341.3 132.277C344.433 132.255 347.567 132.233 350.7 132.3C359.5 132.5 364.2 136.9 364.4 145.7C364.6 154.6 364.6 163.5 364.4 172.4C364.2 181 359.6 185.5 351 185.6C341.3 185.8 331.5 185.8 321.8 185.6ZM333.815 146.932C331.743 146.973 329.672 147.014 327.6 146.8C324.2 146.5 322.7 147.2 323 151.3C323.344 156.111 323.244 160.995 323.146 165.827V165.828V165.829V165.829V165.83L323.124 166.935C323.116 167.357 323.107 167.779 323.1 168.2C323 170.5 323.8 171.2 326.1 171.2C332.8 171.1 339.6 171.1 346.4 171.2C348.8 171.2 349.9 170.7 349.8 168C349.6 161.9 349.7 155.7 349.8 149.6C349.8 147.4 349 146.8 347 146.9C344.604 146.966 342.252 146.944 339.885 146.922C338.696 146.911 337.504 146.9 336.3 146.9C335.471 146.9 334.643 146.916 333.815 146.932ZM36.1 173C36.4001 181 41.0001 185.4 49.1 185.6C59.0001 185.8 85.3 185.8 95.2 185.6C103.6 185.4 108.2 180.5 108.3 172.1C108.4 163.3 108.4 154.6 108.3 145.8C108.2 137.1 103.4 132.4 94.7 132.2C91.5667 132.133 88.4334 132.155 85.3 132.177C83.7334 132.189 82.1667 132.2 80.6 132.2C79.3033 132.2 76.9035 132.193 73.971 132.185H73.9565H73.9493H73.9371C65.562 132.161 52.8723 132.126 49.1 132.2C41.0001 132.4 36.3 136.7 36.1 144.8C35.7 154.2 35.7 163.6 36.1 173ZM50.6 168C50.8 161.9 50.7 155.7 50.6 149.6C50.6 147.5 51.2 146.8 53.3 146.8C56.6469 146.874 69.0657 146.838 77.1031 146.814C79.8722 146.806 82.1213 146.8 83.3 146.8C93.7 146.8 93.8 146.8 93.7 157.3C93.6694 158.68 93.8457 160.192 94.0212 161.697C94.4179 165.099 94.8105 168.466 92.8 170.2C91.0718 171.651 87.7668 171.287 84.4703 170.924C82.9981 170.762 81.5276 170.6 80.2 170.6V170.9C79.4507 170.9 77.7964 170.894 75.661 170.887L75.5869 170.887C68.5927 170.864 56.542 170.823 54.1 170.9C51.7 171.2 50.5001 170.7 50.6 168ZM163.7 115.4C155.9 115.1 151.7 110.4 151.6 102.5C151.55 97.9997 151.525 93.4747 151.5 88.9497C151.475 84.4247 151.45 79.8997 151.4 75.3997C151.6 66.7997 156.2 62.3997 164.8 62.1997C167.933 62.1331 171.067 62.1553 174.2 62.1775C175.767 62.1886 177.333 62.1997 178.9 62.1997C180.608 62.1997 182.304 62.1885 183.993 62.1774H184.001H184.002C187.354 62.1552 190.677 62.1332 194 62.1997C202.5 62.3997 207.1 67.0997 207.2 75.5997C207.3 84.4997 207.3 93.3997 207.2 102.3C207.1 110.3 202.8 115.1 194.8 115.4C184.4 115.7 174.1 115.8 163.7 115.4ZM165.848 87.3376C166.039 89.0438 166.23 90.7502 166.2 92.2997C166.1 100.9 166.2 100.9 174.6 100.8H179.5V100.5C180.8 100.5 182.234 100.663 183.666 100.825L183.667 100.825C186.861 101.188 190.043 101.55 191.7 100.1C193.648 98.4297 193.273 95.1137 192.897 91.8022C192.733 90.3546 192.57 88.9077 192.6 87.5997C192.65 82.1661 192.675 79.4412 191.325 78.0746C189.967 76.6997 187.217 76.6997 181.7 76.6997C180.167 76.7304 178.474 76.5825 176.782 76.4346L176.781 76.4344C172.957 76.1001 169.141 75.7665 167.2 77.4997C164.972 79.5186 165.41 83.4277 165.848 87.3376ZM216.6 102.9C216.8 110.9 221.5 115.3 229.6 115.5C239.5 115.7 249.4 115.7 259.2 115.5C267.6 115.3 272.2 110.5 272.3 102C272.4 93.2997 272.4 84.4997 272.3 75.7997C272.2 67.0997 267.4 62.3997 258.7 62.2997C255.437 62.2331 252.218 62.2552 248.985 62.2774C247.363 62.2885 245.737 62.2997 244.1 62.2997C242.468 62.2997 240.847 62.2886 239.23 62.2776L239.215 62.2774C235.982 62.2552 232.763 62.2331 229.5 62.2997C221.4 62.4997 216.7 66.7997 216.5 74.7997C216.3 84.0997 216.3 93.4998 216.6 102.9ZM231.1 89.8997C231.1 88.6685 230.971 87.3169 230.842 85.9609C230.53 82.6914 230.216 79.3962 231.7 77.6997C233.346 75.8564 236.379 76.2234 239.286 76.5752C240.795 76.7578 242.27 76.9363 243.5 76.7997C244.994 76.7997 246.403 76.8118 247.753 76.8233C250.289 76.845 252.616 76.865 254.9 76.7997C257.3 76.6997 257.9 77.4997 257.8 79.7997C257.7 85.7997 257.6 91.7997 257.8 97.6997C257.9 100.7 256.6 101.1 254.1 101C251.43 100.866 248.717 100.911 246.018 100.955H246.015C244.67 100.978 243.33 101 242 101C231.1 100.9 231.1 100.9 231.1 89.8997Z" fill="#55CBD8"/>
</svg>
