<svg width="39" height="30" viewBox="0 0 39 30" fill="none" xmlns="http://www.w3.org/2000/svg">
<path d="M26.5325 11.5196C26.4061 11.5196 26.2797 11.5196 26.2165 11.5196C18.8224 11.5196 11.4283 11.5196 4.03424 11.5196C2.39111 11.5196 1.06395 12.4676 0.621567 13.9843C-0.0736034 16.2594 1.56952 18.4713 3.97102 18.4713C10.1644 18.4713 16.3577 18.4713 22.6142 18.4713C23.9414 18.4713 25.2685 18.4713 26.6589 18.4713C26.5325 18.5977 26.4693 18.6609 26.4061 18.7241C24.8261 20.304 23.183 21.9471 21.6031 23.5271C20.6551 24.475 20.4023 25.6126 20.7183 26.8766C21.0975 28.1405 21.919 29.0252 23.2462 29.3412C24.4469 29.6572 25.5213 29.3413 26.4061 28.4565C30.1347 24.791 33.8001 21.1256 37.4656 17.3969C38.7927 16.0698 38.7927 13.9211 37.4656 12.5308C33.8001 8.86532 30.1347 5.19986 26.4693 1.53442C25.1421 0.207277 22.9302 0.207277 21.6031 1.53442C20.2759 2.86156 20.2759 5.01028 21.6031 6.40062C23.183 8.04375 24.8261 9.62369 26.4061 11.2036C26.4693 11.2668 26.5957 11.33 26.6589 11.3932C26.5325 11.4564 26.5325 11.5196 26.5325 11.5196Z" fill="white"/>
</svg>
