<svg width="29" height="38" viewBox="0 0 29 38" fill="none" xmlns="http://www.w3.org/2000/svg">
<path d="M17.9413 26.0715C17.9413 25.9451 17.9413 25.8187 17.9413 25.7555C17.9413 18.3614 17.9413 10.9674 17.9413 3.5733C17.9413 1.93017 16.9934 0.60301 15.4766 0.160629C13.2015 -0.534541 10.9896 1.10858 10.9896 3.51008C10.9896 9.70341 10.9896 15.8967 10.9896 22.1533C10.9896 23.4804 10.9896 24.8076 10.9896 26.1979C10.8632 26.0715 10.8 26.0083 10.7368 25.9451C9.15691 24.3652 7.5138 22.7221 5.93387 21.1421C4.98591 20.1942 3.84833 19.9414 2.58438 20.2574C1.32043 20.6365 0.435696 21.4581 0.119709 22.7853C-0.196277 23.986 0.119686 25.0604 1.00445 25.9451C4.66989 29.6738 8.33535 33.3392 12.064 37.0046C13.3911 38.3318 15.5398 38.3318 16.9302 37.0046C20.5956 33.3392 24.2611 29.6738 27.9265 26.0083C29.2537 24.6812 29.2537 22.4693 27.9265 21.1421C26.5994 19.815 24.4507 19.815 23.0603 21.1421C21.4172 22.7221 19.8373 24.3652 18.2573 25.9451C18.1941 26.0083 18.1309 26.1347 18.0677 26.1979C18.0045 26.0715 17.9413 26.0715 17.9413 26.0715Z" fill="white"/>
</svg>
