<svg width="354" height="354" viewBox="0 0 354 354" fill="none" xmlns="http://www.w3.org/2000/svg">
<path d="M349.7 160C341.9 160 334.1 160 326.2 160C321.7 160 321.6 160 321 155.5C318.4 137.9 312.7 121.4 304 105.8C289.5 80 269 60.5 242.7 47C228.7 39.8 213.8 35.1 198.2 32.9C194.2 32.3 194.1 32.1 194 28.1C194 20.3 194 12.5 194 4.60001C194 3.00001 194.3 1.3 193.1 0C182.5 0 171.9 0 161.3 0C161.3 9.9 161.1 19.8 161.3 29.7C161.4 32.5 160.4 33.4 157.8 33.7C139.2 36 121.8 41.9 105.6 51.3C78.8998 66.7 58.9998 88.3 45.9998 116.3C39.8998 129.4 35.7998 143.1 34.0998 157.5C33.7998 160.1 32.8998 161 29.9998 161C21.0998 160.8 12.2998 161 3.39979 160.8C0.699793 160.7 0.199787 161.6 0.299787 164C0.499787 172.7 0.399787 181.5 0.299787 190.2C0.299787 192.3 0.699793 192.9 2.89979 192.9C11.8998 192.8 20.8998 193 29.7998 192.8C32.7998 192.7 33.6998 193.7 34.0998 196.4C36.3998 215.2 42.4998 232.8 52.0998 249.1C67.3998 275.4 88.8998 295 116.5 307.9C129.6 314 143.3 318.1 157.6 319.8C160.4 320.1 161.3 321.1 161.2 324.1C160.9 333 161.2 341.8 161 350.7C161 353.2 161.7 353.7 164 353.7C172.6 353.6 181.3 353.5 189.9 353.7C192.4 353.7 193.2 353.3 193.1 350.6C192.9 341.7 193.2 332.9 192.9 324C192.8 321.2 193.7 320.3 196.4 319.9C215 317.6 232.4 311.7 248.6 302.4C275.3 287 295.2 265.4 308.2 237.5C314.3 224.4 318.4 210.7 320.1 196.3C320.4 193.7 321.3 192.8 324.1 192.8C334 193 343.9 192.8 353.8 192.8C353.8 182.2 353.8 171.6 353.8 161C352.8 159.8 351.2 160 349.7 160ZM177.2 289.3C115.3 289.2 64.4998 238.4 64.6998 176.7C64.8998 114.8 115.1 64.6 177.1 64.3C238.8 64.1 289.6 114.8 289.7 176.7C289.8 238.5 239 289.3 177.2 289.3Z" fill="#55CBD8"/>
<path d="M241.5 176.8C241.5 212.3 212.7 241 177.2 240.9C141.7 240.9 113 212 113 176.6C113 141.1 141.8 112.4 177.3 112.5C212.8 112.6 241.5 141.4 241.5 176.8Z" fill="#55CBD8"/>
</svg>
