<svg width="178" height="267" viewBox="0 0 178 267" fill="none" xmlns="http://www.w3.org/2000/svg">
<path d="M172.625 141.957C171.125 140.257 169.525 138.757 167.925 137.257C159.425 129.057 150.925 120.857 142.525 112.657C138.325 108.657 134.125 104.557 129.925 100.557C129.525 100.157 129.025 99.7568 128.625 99.3568C125.825 96.6568 123.025 93.8568 120.225 91.1568C119.825 90.5568 119.225 90.2568 118.625 89.8568C116.925 87.7568 114.825 86.0568 112.925 84.1568C106.525 77.9568 100.025 71.7568 93.625 65.5568C87.525 59.6568 81.525 53.7568 75.425 47.8568C69.825 42.3568 64.125 36.9568 58.525 31.5568C51.725 24.9568 45.025 18.4568 38.225 11.8568C35.525 9.25678 33.025 6.35677 29.925 4.15677C23.625 -0.443232 16.725 -1.44323 9.82498 2.25677C3.32498 5.65677 0.225003 11.4568 0.125003 18.6568C-0.0749969 30.3568 0.0249969 41.9568 0.0249969 53.6568C0.0249969 76.5568 0.0249969 99.4568 0.0249969 122.357C0.0249969 132.157 0.0249969 141.857 0.0249969 151.657C0.0249969 172.357 0.0249969 193.057 0.0249969 213.757C0.0249969 220.657 2.725 226.357 8.525 230.157C15.625 234.857 25.525 233.457 31.925 226.857C40.225 218.457 48.425 209.957 56.625 201.557C57.325 200.857 57.625 200.857 58.025 201.757C59.925 206.357 61.825 210.857 63.725 215.357C66.925 222.957 70.125 230.457 73.325 238.057C75.325 242.757 77.625 247.457 79.425 252.257C83.125 262.257 94.425 268.457 104.825 265.857C109.225 264.757 113.225 262.557 117.325 260.857C122.125 258.957 126.825 256.557 131.725 254.757C143.125 250.557 149.125 237.957 144.825 226.557C143.525 223.157 142.025 219.757 140.625 216.357C138.425 211.157 136.325 206.057 134.025 200.857C132.425 197.057 130.725 193.257 129.025 189.457C128.325 187.757 127.625 186.057 126.925 184.457C126.725 183.957 126.525 183.457 126.325 182.957C126.125 182.457 125.925 182.057 125.625 181.557C124.525 178.957 123.425 176.357 122.425 173.757C122.325 173.457 121.825 173.157 122.425 172.957C127.625 172.957 132.725 173.057 137.925 172.757C138.125 172.757 138.225 172.757 138.425 172.757C138.825 172.857 139.125 172.957 139.425 172.857C140.825 172.957 142.225 172.957 143.625 172.857C144.025 172.857 144.525 172.857 144.925 172.757C149.725 172.757 154.625 172.857 159.425 172.657C166.725 172.357 172.325 169.157 175.725 162.557C179.325 155.557 177.525 147.357 172.625 141.957Z" fill="black"/>
<path d="M114.925 198.457C116.525 202.357 118.225 206.157 119.825 210.057C122.925 217.457 126.125 224.757 129.225 232.157C130.325 234.757 129.125 237.657 126.525 238.757C118.325 242.257 110.025 245.857 101.825 249.257C99.1254 250.357 96.3254 249.057 95.1254 246.257C90.5254 235.557 86.0254 224.857 81.4254 214.157C76.6254 202.957 71.9254 191.757 67.1254 180.657C66.4254 179.057 65.8254 177.357 65.0254 175.757C63.7254 173.057 61.4254 172.657 59.2254 174.857C54.2254 179.957 49.3254 185.057 44.3254 190.157C36.4254 198.257 28.4254 206.457 20.5254 214.557C20.2254 214.857 19.8254 215.257 19.4254 215.557C18.0254 216.657 16.9254 216.157 16.6254 214.457C16.5254 214.057 16.5254 213.557 16.5254 213.157C16.5254 171.557 16.5254 129.957 16.5254 88.3572C16.5254 65.6572 16.5254 42.9572 16.6254 20.2572C16.6254 19.7572 16.6254 19.2572 16.7254 18.8572C17.1254 16.6572 18.3254 16.1571 20.0254 17.6571C21.7254 19.1571 23.4254 20.8572 25.0254 22.4572C31.5254 28.6572 37.9254 34.9571 44.4254 41.1571C50.6254 47.1571 56.8254 53.1572 63.0254 59.1572C68.2254 64.2571 73.5254 69.2572 78.7254 74.2572C87.6254 82.8572 96.5254 91.4572 105.325 100.057C116.125 110.557 127.025 121.057 137.825 131.457C144.725 138.157 151.625 144.857 158.625 151.557C159.325 152.257 160.125 152.757 160.625 153.657C161.225 154.657 160.925 155.457 159.825 155.857C158.625 156.257 157.425 156.157 156.225 156.157C143.025 156.257 129.925 156.257 116.725 156.257C111.925 156.257 107.125 156.357 102.425 156.357C99.2254 156.357 97.8254 158.357 99.1254 161.257C102.725 169.657 106.325 178.057 109.825 186.457C111.025 189.257 112.225 191.957 113.425 194.757C114.225 195.857 114.625 197.157 114.925 198.457Z" fill="#FEFEFE"/>
</svg>
