<svg width="89" height="96" viewBox="0 0 89 96" fill="none" xmlns="http://www.w3.org/2000/svg">
<path fill-rule="evenodd" clip-rule="evenodd" d="M88.6001 86.5004C88.6001 91.0004 86.9001 93.2004 82.1001 95.1004H9.10004C7.70004 95.1004 6.40003 94.8004 6.00003 94.6004C2.80003 93.3004 1.00005 90.9004 0.800049 87.6004V9.70038C0.800049 8.10038 1.00005 5.70038 2.80005 3.70038C4.40005 1.80038 6.60005 0.900391 9.30005 0.900391H80.3C85.6 0.900391 88.9001 4.20037 88.9001 9.50037C88.6001 41.1988 88.6001 51.3993 88.6001 79.796V86.5004ZM9.20004 5.90039H80C82.5 5.90039 83.5 7.00039 83.5 9.40039V86.4004C83.5 89.0004 82.2 89.6004 81.3 89.9004C80.9001 90.0004 80.5003 90.0004 80.1004 90.0004H9.20004C6.80004 90.0004 5.70004 88.9004 5.70004 86.6004V9.30038C5.70004 7.00039 6.80004 5.90039 9.20004 5.90039ZM75.8 85.3004C78.2 85.3004 79 84.5004 79 82.1004V53.2004C79 50.8004 78.2 50.0004 75.7 50.0004H13.5C11.1 50.0004 10.3 50.8004 10.3 53.3004V82.0004C10.3 84.5004 11.1 85.3004 13.6 85.3004H75.8ZM75.7 45.8004C78.2 45.8004 79 45.0004 79 42.6004V13.8004C79 11.4004 78.2 10.6004 75.7 10.6004H13.5C11 10.6004 10.2 11.4004 10.2 13.8004V42.6004C10.2 45.0004 11 45.8004 13.5 45.8004H75.7ZM74.1001 15.4004H15.1V41.1004H74V15.9004C74.2 15.5004 74.1001 15.4004 74.1001 15.4004ZM45.5 36.9004C43.5 36.9004 41.8 35.2004 41.8 33.2004C41.8 31.2004 43.5 29.5004 45.5 29.5004C47.5 29.5004 49.2 31.2004 49.2 33.2004C49.3 35.3004 47.6 36.9004 45.5 36.9004ZM74.1001 54.9004H15.6C15.2 54.9004 15.1 55.0004 15.1 55.0004V80.5004H74.2V55.3004C74.2 55.0004 74.1001 54.9004 74.1001 54.9004ZM45.5 76.3004C43.5 76.3004 41.8 74.6004 41.8 72.6004C41.8 70.6004 43.5 68.9004 45.5 68.9004C47.5 68.9004 49.2 70.6004 49.2 72.6004C49.2 74.7004 47.6 76.3004 45.5 76.3004Z" fill="white"/>
</svg>
