<svg width="47" height="61" viewBox="0 0 47 61" fill="none" xmlns="http://www.w3.org/2000/svg">
<path d="M18 19.2002C18 19.4002 18 19.6002 18 19.7002C18 31.4002 18 43.1002 18 54.8002C18 57.4002 19.5 59.5002 21.9 60.2002C25.5 61.3002 29 58.7002 29 54.9002C29 45.1002 29 35.3002 29 25.4002C29 23.3002 29 21.2002 29 19.0002C29.2 19.2002 29.3 19.3002 29.4 19.4002C31.9 21.9002 34.5 24.5002 37 27.0002C38.5 28.5002 40.3 28.9002 42.3 28.4002C44.3 27.8002 45.7 26.5002 46.2 24.4002C46.7 22.5002 46.2 20.8002 44.8 19.4002C39 13.5002 33.2 7.7002 27.3 1.9002C25.2 -0.199805 21.8 -0.199805 19.6 1.9002C13.8 7.7002 8 13.5002 2.2 19.3002C0.1 21.4002 0.1 24.9002 2.2 27.0002C4.3 29.1002 7.70001 29.1002 9.90001 27.0002C12.5 24.5002 15 21.9002 17.5 19.4002C17.6 19.3002 17.7 19.1002 17.8 19.0002C17.9 19.2002 18 19.2002 18 19.2002Z" fill="white"/>
</svg>
